M48
;Layer_Color=9474304
;FILE_FORMAT=2:5
INCH,LZ
;TYPE=PLATED
T1F00S00C0.01181
T2F00S00C0.03543
%
T01
X0313113Y024085
X0316113
X0319113
X0322113
X0325113
X0328113
X0331113
X0334113
X0337113
X0340113
X0343113
X0351813
Y023785
X0363113
Y024085
X0366113
X0369113
X0372113
X0375113
X0378113
X0381113
X0384113
X0387113
X0390113
X0393113
X0396113
X0399113
X0402113
X0384563Y0246
X0325563
X03619Y020595
X0362Y02026
X036375Y02043
X036555Y020595
Y02026
Y0286382
Y0289732
X036375Y0288082
X0362Y0286382
X03619Y0289732
X030655
Y0286382
X030475Y0288082
X0303Y0286382
X03029Y0289732
X0304113Y024085
Y023785
X0307113Y024085
X0310113
X0292813
Y023785
X0284113Y024085
X0281113
X0278113
X0275113
X0272113
X0269113
X0266113
X0263113
X0260113
X0257113
X0254113
X0251113
X0248113
X0245113
Y023785
X0233813
Y024085
X0225113
X0222113
X0219113
X0216113
X0213113
X0210113
X0207113
X0204113
X0201113
X0198113
X0195113
X0192113
X0189113
X0186113
Y023785
X0174813
Y024085
X0207563Y0246
X0266563
X024755Y020595
Y02026
X024575Y02043
X0244Y02026
X02439Y020595
X018855
Y02026
X018675Y02043
X0185Y02026
X01849Y020595
X0185Y0286382
X018675Y0288082
X018855Y0289732
Y0286382
X01849Y0289732
X02439
X0244Y0286382
X024575Y0288082
X024755Y0289732
Y0286382
X03029Y020595
X0303Y02026
X030475Y02043
X030655Y020595
Y02026
X0304113Y0321632
Y0324632
X0307113
X0310113
X0292813
Y0321632
X0284113Y0324632
X0281113
X0278113
X0275113
X0272113
X0269113
X0266113
X0263113
X0260113
X0257113
X0254113
X0251113
X0248113
X0245113
Y0321632
X0233813
Y0324632
X0225113
X0222113
X0219113
X0216113
X0213113
X0210113
X0207113
X0204113
X0201113
X0198113
X0195113
X0192113
X0189113
X0186113
Y0321632
X0174813
Y0324632
X0207563Y0329782
X0266563
X024755Y0370163
Y0373514
X024575Y0371864
X0244Y0370163
X02439Y0373514
X0245113Y0405413
Y0408414
X0248113
X0251113
X0254113
X0257113
X0260113
X0263113
X0266113
X0269113
X0272113
X0275113
X0278113
X0281113
X0284113
X0292813
Y0405413
X0304113
Y0408414
X0307113
X0310113
X030655Y0373514
Y0370163
X030475Y0371864
X0303Y0370163
X03029Y0373514
X0266563Y0413563
X0233813Y0408414
Y0405413
X0225113Y0408414
X0222113
X0219113
X0216113
X0213113
X0210113
X0207113
X0204113
X0201113
X0198113
X0195113
X0192113
X0189113
X0186113
Y0405413
X0174813
Y0408414
X0207563Y0413563
X018855Y0373514
Y0370163
X018675Y0371864
X0185Y0370163
X01849Y0373514
X0313113Y0408414
X0316113
X0319113
X0322113
X0325113
X0328113
X0331113
X0334113
X0337113
X0340113
X0343113
X0351813
Y0405413
X0363113
Y0408414
X0366113
X0369113
X0372113
X0375113
X0378113
X0381113
X0384113
X0387113
X0390113
X0393113
X0396113
X0399113
X0402113
X0384563Y0413563
X0325563
X03619Y0373514
X0362Y0370163
X036375Y0371864
X036555Y0373514
Y0370163
X0366113Y0324632
X0363113
Y0321632
X0369113Y0324632
X0372113
X0375113
X0378113
X0381113
X0384113
X0387113
X0390113
X0393113
X0396113
X0399113
X0402113
X0384563Y0329782
X0351813Y0324632
Y0321632
X0343113Y0324632
X0340113
X0337113
X0334113
X0331113
X0328113
X0325113
X0322113
X0319113
X0316113
X0313113
X0325563Y0329782
T02
X032015Y01783
Y01883
X033015
Y01783
X035915
Y01883
X036915
Y01783
X037915
Y01883
X038915
Y01783
Y0262082
X037915
X036915
X035915
Y0272082
X036915
X037915
X038915
X033015
X032015
Y0262082
X033015
X031015
X030015
Y0272082
X031015
X027115
X026115
X025115
X024115
Y0262082
X025115
X026115
X027115
X021215
X020215
X019215
X018215
Y0272082
X019215
X020215
X021215
Y01883
X020215
X019215
X018215
Y01783
X019215
X020215
X021215
X024115
Y01883
X025115
Y01783
X026115
Y01883
X027115
Y01783
X030015
Y01883
X031015
Y01783
Y0345864
X030015
Y0355863
X031015
X027115
X026115
X025115
X024115
Y0345864
X025115
X026115
X027115
X021215
X020215
X019215
X018215
Y0355863
X019215
X020215
X021215
X032015
Y0345864
X033015
Y0355863
X035915
Y0345864
X036915
Y0355863
X037915
Y0345864
X038915
Y0355863
M30
