G04*
G04 #@! TF.GenerationSoftware,Altium Limited,Altium Designer,18.1.7 (191)*
G04*
G04 Layer_Physical_Order=2*
G04 Layer_Color=13798239*
%FSLAX25Y25*%
%MOIN*%
G70*
G01*
G75*
%ADD34C,0.05906*%
%ADD35R,0.05906X0.05906*%
%ADD36C,0.01968*%
G36*
X402929Y415563D02*
Y401264D01*
X402929D01*
Y341634D01*
X390575D01*
X390475Y342134D01*
X391143Y342411D01*
X391969Y343044D01*
X392603Y343870D01*
X393001Y344832D01*
X393137Y345864D01*
X393001Y346895D01*
X392603Y347857D01*
X391969Y348683D01*
X391143Y349316D01*
X390182Y349714D01*
X389150Y349850D01*
X388118Y349714D01*
X387157Y349316D01*
X386331Y348683D01*
X385697Y347857D01*
X385299Y346895D01*
X385163Y345864D01*
X385299Y344832D01*
X385697Y343870D01*
X386331Y343044D01*
X387157Y342411D01*
X387825Y342134D01*
X387725Y341634D01*
X380575D01*
X380475Y342134D01*
X381143Y342411D01*
X381969Y343044D01*
X382603Y343870D01*
X383001Y344832D01*
X383137Y345864D01*
X383001Y346895D01*
X382603Y347857D01*
X381969Y348683D01*
X381143Y349316D01*
X380182Y349714D01*
X379150Y349850D01*
X378118Y349714D01*
X377157Y349316D01*
X376331Y348683D01*
X375697Y347857D01*
X375299Y346895D01*
X375163Y345864D01*
X375299Y344832D01*
X375697Y343870D01*
X376331Y343044D01*
X377157Y342411D01*
X377825Y342134D01*
X377725Y341634D01*
X370575D01*
X370475Y342134D01*
X371143Y342411D01*
X371969Y343044D01*
X372603Y343870D01*
X373001Y344832D01*
X373137Y345864D01*
X373001Y346895D01*
X372603Y347857D01*
X371969Y348683D01*
X371143Y349316D01*
X370182Y349714D01*
X369150Y349850D01*
X368118Y349714D01*
X367157Y349316D01*
X366331Y348683D01*
X365697Y347857D01*
X365299Y346895D01*
X365163Y345864D01*
X365299Y344832D01*
X365697Y343870D01*
X366331Y343044D01*
X367157Y342411D01*
X367825Y342134D01*
X367725Y341634D01*
X346071D01*
Y401264D01*
Y409563D01*
X361763D01*
Y415563D01*
X402929Y415563D01*
D02*
G37*
G36*
X343929D02*
Y401264D01*
X343929D01*
Y341634D01*
X331575D01*
X331475Y342134D01*
X332143Y342411D01*
X332969Y343044D01*
X333603Y343870D01*
X334001Y344832D01*
X334137Y345864D01*
X334001Y346895D01*
X333603Y347857D01*
X332969Y348683D01*
X332143Y349316D01*
X331182Y349714D01*
X330150Y349850D01*
X329118Y349714D01*
X328157Y349316D01*
X327331Y348683D01*
X326697Y347857D01*
X326299Y346895D01*
X326163Y345864D01*
X326299Y344832D01*
X326697Y343870D01*
X327331Y343044D01*
X328157Y342411D01*
X328825Y342134D01*
X328725Y341634D01*
X321575D01*
X321475Y342134D01*
X322143Y342411D01*
X322969Y343044D01*
X323603Y343870D01*
X324001Y344832D01*
X324137Y345864D01*
X324001Y346895D01*
X323603Y347857D01*
X322969Y348683D01*
X322143Y349316D01*
X321182Y349714D01*
X320150Y349850D01*
X319118Y349714D01*
X318157Y349316D01*
X317331Y348683D01*
X316697Y347857D01*
X316299Y346895D01*
X316163Y345864D01*
X316299Y344832D01*
X316697Y343870D01*
X317331Y343044D01*
X318157Y342411D01*
X318825Y342134D01*
X318725Y341634D01*
X311575D01*
X311475Y342134D01*
X312143Y342411D01*
X312969Y343044D01*
X313603Y343870D01*
X314001Y344832D01*
X314137Y345864D01*
X314001Y346895D01*
X313603Y347857D01*
X312969Y348683D01*
X312143Y349316D01*
X311182Y349714D01*
X310150Y349850D01*
X309118Y349714D01*
X308157Y349316D01*
X307331Y348683D01*
X306697Y347857D01*
X306299Y346895D01*
X306163Y345864D01*
X306299Y344832D01*
X306697Y343870D01*
X307331Y343044D01*
X308157Y342411D01*
X308825Y342134D01*
X308725Y341634D01*
X287071D01*
Y401264D01*
Y409563D01*
X302763D01*
Y415563D01*
X343929Y415563D01*
D02*
G37*
G36*
X284929D02*
Y401264D01*
X284929D01*
Y341634D01*
X272575D01*
X272475Y342134D01*
X273143Y342411D01*
X273969Y343044D01*
X274603Y343870D01*
X275001Y344832D01*
X275137Y345864D01*
X275001Y346895D01*
X274603Y347857D01*
X273969Y348683D01*
X273143Y349316D01*
X272182Y349714D01*
X271150Y349850D01*
X270118Y349714D01*
X269157Y349316D01*
X268331Y348683D01*
X267697Y347857D01*
X267299Y346895D01*
X267163Y345864D01*
X267299Y344832D01*
X267697Y343870D01*
X268331Y343044D01*
X269157Y342411D01*
X269825Y342134D01*
X269725Y341634D01*
X262575D01*
X262475Y342134D01*
X263143Y342411D01*
X263969Y343044D01*
X264603Y343870D01*
X265001Y344832D01*
X265137Y345864D01*
X265001Y346895D01*
X264603Y347857D01*
X263969Y348683D01*
X263143Y349316D01*
X262182Y349714D01*
X261150Y349850D01*
X260118Y349714D01*
X259157Y349316D01*
X258331Y348683D01*
X257697Y347857D01*
X257299Y346895D01*
X257163Y345864D01*
X257299Y344832D01*
X257697Y343870D01*
X258331Y343044D01*
X259157Y342411D01*
X259825Y342134D01*
X259725Y341634D01*
X252575D01*
X252475Y342134D01*
X253143Y342411D01*
X253969Y343044D01*
X254603Y343870D01*
X255001Y344832D01*
X255137Y345864D01*
X255001Y346895D01*
X254603Y347857D01*
X253969Y348683D01*
X253143Y349316D01*
X252182Y349714D01*
X251150Y349850D01*
X250118Y349714D01*
X249157Y349316D01*
X248331Y348683D01*
X247697Y347857D01*
X247299Y346895D01*
X247163Y345864D01*
X247299Y344832D01*
X247697Y343870D01*
X248331Y343044D01*
X249157Y342411D01*
X249825Y342134D01*
X249725Y341634D01*
X228071D01*
Y401264D01*
Y409563D01*
X243763D01*
Y415563D01*
X284929Y415563D01*
D02*
G37*
G36*
X225929D02*
Y401264D01*
X225929D01*
Y341634D01*
X213575D01*
X213475Y342134D01*
X214143Y342411D01*
X214969Y343044D01*
X215603Y343870D01*
X216001Y344832D01*
X216137Y345864D01*
X216001Y346895D01*
X215603Y347857D01*
X214969Y348683D01*
X214143Y349316D01*
X213182Y349714D01*
X212150Y349850D01*
X211118Y349714D01*
X210157Y349316D01*
X209331Y348683D01*
X208697Y347857D01*
X208299Y346895D01*
X208163Y345864D01*
X208299Y344832D01*
X208697Y343870D01*
X209331Y343044D01*
X210157Y342411D01*
X210825Y342134D01*
X210725Y341634D01*
X203575D01*
X203475Y342134D01*
X204143Y342411D01*
X204969Y343044D01*
X205603Y343870D01*
X206001Y344832D01*
X206137Y345864D01*
X206001Y346895D01*
X205603Y347857D01*
X204969Y348683D01*
X204143Y349316D01*
X203182Y349714D01*
X202150Y349850D01*
X201118Y349714D01*
X200157Y349316D01*
X199331Y348683D01*
X198697Y347857D01*
X198299Y346895D01*
X198163Y345864D01*
X198299Y344832D01*
X198697Y343870D01*
X199331Y343044D01*
X200157Y342411D01*
X200825Y342134D01*
X200725Y341634D01*
X193575D01*
X193475Y342134D01*
X194143Y342411D01*
X194969Y343044D01*
X195603Y343870D01*
X196001Y344832D01*
X196137Y345864D01*
X196001Y346895D01*
X195603Y347857D01*
X194969Y348683D01*
X194143Y349316D01*
X193182Y349714D01*
X192150Y349850D01*
X191118Y349714D01*
X190157Y349316D01*
X189331Y348683D01*
X188697Y347857D01*
X188299Y346895D01*
X188163Y345864D01*
X188299Y344832D01*
X188697Y343870D01*
X189331Y343044D01*
X190157Y342411D01*
X190825Y342134D01*
X190725Y341634D01*
X169071D01*
Y401264D01*
Y409563D01*
X184763D01*
Y415563D01*
X225929Y415563D01*
D02*
G37*
G36*
X402929Y331782D02*
Y317482D01*
X402929D01*
Y257852D01*
X390575D01*
X390475Y258352D01*
X391143Y258629D01*
X391969Y259263D01*
X392603Y260088D01*
X393001Y261050D01*
X393137Y262082D01*
X393001Y263114D01*
X392603Y264075D01*
X391969Y264901D01*
X391143Y265534D01*
X390182Y265933D01*
X389150Y266069D01*
X388118Y265933D01*
X387157Y265534D01*
X386331Y264901D01*
X385697Y264075D01*
X385299Y263114D01*
X385163Y262082D01*
X385299Y261050D01*
X385697Y260088D01*
X386331Y259263D01*
X387157Y258629D01*
X387825Y258352D01*
X387725Y257852D01*
X380575D01*
X380475Y258352D01*
X381143Y258629D01*
X381969Y259263D01*
X382603Y260088D01*
X383001Y261050D01*
X383137Y262082D01*
X383001Y263114D01*
X382603Y264075D01*
X381969Y264901D01*
X381143Y265534D01*
X380182Y265933D01*
X379150Y266069D01*
X378118Y265933D01*
X377157Y265534D01*
X376331Y264901D01*
X375697Y264075D01*
X375299Y263114D01*
X375163Y262082D01*
X375299Y261050D01*
X375697Y260088D01*
X376331Y259263D01*
X377157Y258629D01*
X377825Y258352D01*
X377725Y257852D01*
X370575D01*
X370475Y258352D01*
X371143Y258629D01*
X371969Y259263D01*
X372603Y260088D01*
X373001Y261050D01*
X373137Y262082D01*
X373001Y263114D01*
X372603Y264075D01*
X371969Y264901D01*
X371143Y265534D01*
X370182Y265933D01*
X369150Y266069D01*
X368118Y265933D01*
X367157Y265534D01*
X366331Y264901D01*
X365697Y264075D01*
X365299Y263114D01*
X365163Y262082D01*
X365299Y261050D01*
X365697Y260088D01*
X366331Y259263D01*
X367157Y258629D01*
X367825Y258352D01*
X367725Y257852D01*
X346071D01*
Y317482D01*
Y325782D01*
X361763D01*
Y331782D01*
X402929Y331782D01*
D02*
G37*
G36*
X343929D02*
Y317482D01*
X343929D01*
Y257852D01*
X331575D01*
X331475Y258352D01*
X332143Y258629D01*
X332969Y259263D01*
X333603Y260088D01*
X334001Y261050D01*
X334137Y262082D01*
X334001Y263114D01*
X333603Y264075D01*
X332969Y264901D01*
X332143Y265534D01*
X331182Y265933D01*
X330150Y266069D01*
X329118Y265933D01*
X328157Y265534D01*
X327331Y264901D01*
X326697Y264075D01*
X326299Y263114D01*
X326163Y262082D01*
X326299Y261050D01*
X326697Y260088D01*
X327331Y259263D01*
X328157Y258629D01*
X328825Y258352D01*
X328725Y257852D01*
X321575D01*
X321475Y258352D01*
X322143Y258629D01*
X322969Y259263D01*
X323603Y260088D01*
X324001Y261050D01*
X324137Y262082D01*
X324001Y263114D01*
X323603Y264075D01*
X322969Y264901D01*
X322143Y265534D01*
X321182Y265933D01*
X320150Y266069D01*
X319118Y265933D01*
X318157Y265534D01*
X317331Y264901D01*
X316697Y264075D01*
X316299Y263114D01*
X316163Y262082D01*
X316299Y261050D01*
X316697Y260088D01*
X317331Y259263D01*
X318157Y258629D01*
X318825Y258352D01*
X318725Y257852D01*
X311575D01*
X311475Y258352D01*
X312143Y258629D01*
X312969Y259263D01*
X313603Y260088D01*
X314001Y261050D01*
X314137Y262082D01*
X314001Y263114D01*
X313603Y264075D01*
X312969Y264901D01*
X312143Y265534D01*
X311182Y265933D01*
X310150Y266069D01*
X309118Y265933D01*
X308157Y265534D01*
X307331Y264901D01*
X306697Y264075D01*
X306299Y263114D01*
X306163Y262082D01*
X306299Y261050D01*
X306697Y260088D01*
X307331Y259263D01*
X308157Y258629D01*
X308825Y258352D01*
X308725Y257852D01*
X287071D01*
Y317482D01*
Y325782D01*
X302763D01*
Y331782D01*
X343929Y331782D01*
D02*
G37*
G36*
X284929D02*
Y317482D01*
X284929D01*
Y257852D01*
X272575D01*
X272475Y258352D01*
X273143Y258629D01*
X273969Y259263D01*
X274603Y260088D01*
X275001Y261050D01*
X275137Y262082D01*
X275001Y263114D01*
X274603Y264075D01*
X273969Y264901D01*
X273143Y265534D01*
X272182Y265933D01*
X271150Y266069D01*
X270118Y265933D01*
X269157Y265534D01*
X268331Y264901D01*
X267697Y264075D01*
X267299Y263114D01*
X267163Y262082D01*
X267299Y261050D01*
X267697Y260088D01*
X268331Y259263D01*
X269157Y258629D01*
X269825Y258352D01*
X269725Y257852D01*
X262575D01*
X262475Y258352D01*
X263143Y258629D01*
X263969Y259263D01*
X264603Y260088D01*
X265001Y261050D01*
X265137Y262082D01*
X265001Y263114D01*
X264603Y264075D01*
X263969Y264901D01*
X263143Y265534D01*
X262182Y265933D01*
X261150Y266069D01*
X260118Y265933D01*
X259157Y265534D01*
X258331Y264901D01*
X257697Y264075D01*
X257299Y263114D01*
X257163Y262082D01*
X257299Y261050D01*
X257697Y260088D01*
X258331Y259263D01*
X259157Y258629D01*
X259825Y258352D01*
X259725Y257852D01*
X252575D01*
X252475Y258352D01*
X253143Y258629D01*
X253969Y259263D01*
X254603Y260088D01*
X255001Y261050D01*
X255137Y262082D01*
X255001Y263114D01*
X254603Y264075D01*
X253969Y264901D01*
X253143Y265534D01*
X252182Y265933D01*
X251150Y266069D01*
X250118Y265933D01*
X249157Y265534D01*
X248331Y264901D01*
X247697Y264075D01*
X247299Y263114D01*
X247163Y262082D01*
X247299Y261050D01*
X247697Y260088D01*
X248331Y259263D01*
X249157Y258629D01*
X249825Y258352D01*
X249725Y257852D01*
X228071D01*
Y317482D01*
Y325782D01*
X243763D01*
Y331782D01*
X284929Y331782D01*
D02*
G37*
G36*
X225929D02*
Y317482D01*
X225929D01*
Y257852D01*
X213575D01*
X213475Y258352D01*
X214143Y258629D01*
X214969Y259263D01*
X215603Y260088D01*
X216001Y261050D01*
X216137Y262082D01*
X216001Y263114D01*
X215603Y264075D01*
X214969Y264901D01*
X214143Y265534D01*
X213182Y265933D01*
X212150Y266069D01*
X211118Y265933D01*
X210157Y265534D01*
X209331Y264901D01*
X208697Y264075D01*
X208299Y263114D01*
X208163Y262082D01*
X208299Y261050D01*
X208697Y260088D01*
X209331Y259263D01*
X210157Y258629D01*
X210825Y258352D01*
X210725Y257852D01*
X203575D01*
X203475Y258352D01*
X204143Y258629D01*
X204969Y259263D01*
X205603Y260088D01*
X206001Y261050D01*
X206137Y262082D01*
X206001Y263114D01*
X205603Y264075D01*
X204969Y264901D01*
X204143Y265534D01*
X203182Y265933D01*
X202150Y266069D01*
X201118Y265933D01*
X200157Y265534D01*
X199331Y264901D01*
X198697Y264075D01*
X198299Y263114D01*
X198163Y262082D01*
X198299Y261050D01*
X198697Y260088D01*
X199331Y259263D01*
X200157Y258629D01*
X200825Y258352D01*
X200725Y257852D01*
X193575D01*
X193475Y258352D01*
X194143Y258629D01*
X194969Y259263D01*
X195603Y260088D01*
X196001Y261050D01*
X196137Y262082D01*
X196001Y263114D01*
X195603Y264075D01*
X194969Y264901D01*
X194143Y265534D01*
X193182Y265933D01*
X192150Y266069D01*
X191118Y265933D01*
X190157Y265534D01*
X189331Y264901D01*
X188697Y264075D01*
X188299Y263114D01*
X188163Y262082D01*
X188299Y261050D01*
X188697Y260088D01*
X189331Y259263D01*
X190157Y258629D01*
X190825Y258352D01*
X190725Y257852D01*
X169071D01*
Y317482D01*
Y325782D01*
X184763D01*
Y331782D01*
X225929Y331782D01*
D02*
G37*
G36*
X402929Y248000D02*
Y233700D01*
X402929D01*
Y174071D01*
X390575D01*
X390475Y174571D01*
X391143Y174847D01*
X391969Y175481D01*
X392603Y176307D01*
X393001Y177268D01*
X393137Y178300D01*
X393001Y179332D01*
X392603Y180293D01*
X391969Y181119D01*
X391143Y181753D01*
X390182Y182151D01*
X389150Y182287D01*
X388118Y182151D01*
X387157Y181753D01*
X386331Y181119D01*
X385697Y180293D01*
X385299Y179332D01*
X385163Y178300D01*
X385299Y177268D01*
X385697Y176307D01*
X386331Y175481D01*
X387157Y174847D01*
X387825Y174571D01*
X387725Y174071D01*
X380575D01*
X380475Y174571D01*
X381143Y174847D01*
X381969Y175481D01*
X382603Y176307D01*
X383001Y177268D01*
X383137Y178300D01*
X383001Y179332D01*
X382603Y180293D01*
X381969Y181119D01*
X381143Y181753D01*
X380182Y182151D01*
X379150Y182287D01*
X378118Y182151D01*
X377157Y181753D01*
X376331Y181119D01*
X375697Y180293D01*
X375299Y179332D01*
X375163Y178300D01*
X375299Y177268D01*
X375697Y176307D01*
X376331Y175481D01*
X377157Y174847D01*
X377825Y174571D01*
X377725Y174071D01*
X370575D01*
X370475Y174571D01*
X371143Y174847D01*
X371969Y175481D01*
X372603Y176307D01*
X373001Y177268D01*
X373137Y178300D01*
X373001Y179332D01*
X372603Y180293D01*
X371969Y181119D01*
X371143Y181753D01*
X370182Y182151D01*
X369150Y182287D01*
X368118Y182151D01*
X367157Y181753D01*
X366331Y181119D01*
X365697Y180293D01*
X365299Y179332D01*
X365163Y178300D01*
X365299Y177268D01*
X365697Y176307D01*
X366331Y175481D01*
X367157Y174847D01*
X367825Y174571D01*
X367725Y174071D01*
X346071D01*
Y233700D01*
Y242000D01*
X361763D01*
Y248000D01*
X402929Y248000D01*
D02*
G37*
G36*
X343929D02*
Y233700D01*
X343929D01*
Y174071D01*
X331575D01*
X331475Y174571D01*
X332143Y174847D01*
X332969Y175481D01*
X333603Y176307D01*
X334001Y177268D01*
X334137Y178300D01*
X334001Y179332D01*
X333603Y180293D01*
X332969Y181119D01*
X332143Y181753D01*
X331182Y182151D01*
X330150Y182287D01*
X329118Y182151D01*
X328157Y181753D01*
X327331Y181119D01*
X326697Y180293D01*
X326299Y179332D01*
X326163Y178300D01*
X326299Y177268D01*
X326697Y176307D01*
X327331Y175481D01*
X328157Y174847D01*
X328825Y174571D01*
X328725Y174071D01*
X321575D01*
X321475Y174571D01*
X322143Y174847D01*
X322969Y175481D01*
X323603Y176307D01*
X324001Y177268D01*
X324137Y178300D01*
X324001Y179332D01*
X323603Y180293D01*
X322969Y181119D01*
X322143Y181753D01*
X321182Y182151D01*
X320150Y182287D01*
X319118Y182151D01*
X318157Y181753D01*
X317331Y181119D01*
X316697Y180293D01*
X316299Y179332D01*
X316163Y178300D01*
X316299Y177268D01*
X316697Y176307D01*
X317331Y175481D01*
X318157Y174847D01*
X318825Y174571D01*
X318725Y174071D01*
X311575D01*
X311475Y174571D01*
X312143Y174847D01*
X312969Y175481D01*
X313603Y176307D01*
X314001Y177268D01*
X314137Y178300D01*
X314001Y179332D01*
X313603Y180293D01*
X312969Y181119D01*
X312143Y181753D01*
X311182Y182151D01*
X310150Y182287D01*
X309118Y182151D01*
X308157Y181753D01*
X307331Y181119D01*
X306697Y180293D01*
X306299Y179332D01*
X306163Y178300D01*
X306299Y177268D01*
X306697Y176307D01*
X307331Y175481D01*
X308157Y174847D01*
X308825Y174571D01*
X308725Y174071D01*
X287071D01*
Y233700D01*
Y242000D01*
X302763D01*
Y248000D01*
X343929Y248000D01*
D02*
G37*
G36*
X284929D02*
Y233700D01*
X284929D01*
Y174071D01*
X272575D01*
X272475Y174571D01*
X273143Y174847D01*
X273969Y175481D01*
X274603Y176307D01*
X275001Y177268D01*
X275137Y178300D01*
X275001Y179332D01*
X274603Y180293D01*
X273969Y181119D01*
X273143Y181753D01*
X272182Y182151D01*
X271150Y182287D01*
X270118Y182151D01*
X269157Y181753D01*
X268331Y181119D01*
X267697Y180293D01*
X267299Y179332D01*
X267163Y178300D01*
X267299Y177268D01*
X267697Y176307D01*
X268331Y175481D01*
X269157Y174847D01*
X269825Y174571D01*
X269725Y174071D01*
X262575D01*
X262475Y174571D01*
X263143Y174847D01*
X263969Y175481D01*
X264603Y176307D01*
X265001Y177268D01*
X265137Y178300D01*
X265001Y179332D01*
X264603Y180293D01*
X263969Y181119D01*
X263143Y181753D01*
X262182Y182151D01*
X261150Y182287D01*
X260118Y182151D01*
X259157Y181753D01*
X258331Y181119D01*
X257697Y180293D01*
X257299Y179332D01*
X257163Y178300D01*
X257299Y177268D01*
X257697Y176307D01*
X258331Y175481D01*
X259157Y174847D01*
X259825Y174571D01*
X259725Y174071D01*
X252575D01*
X252475Y174571D01*
X253143Y174847D01*
X253969Y175481D01*
X254603Y176307D01*
X255001Y177268D01*
X255137Y178300D01*
X255001Y179332D01*
X254603Y180293D01*
X253969Y181119D01*
X253143Y181753D01*
X252182Y182151D01*
X251150Y182287D01*
X250118Y182151D01*
X249157Y181753D01*
X248331Y181119D01*
X247697Y180293D01*
X247299Y179332D01*
X247163Y178300D01*
X247299Y177268D01*
X247697Y176307D01*
X248331Y175481D01*
X249157Y174847D01*
X249825Y174571D01*
X249725Y174071D01*
X228071D01*
Y233700D01*
Y242000D01*
X243763D01*
Y248000D01*
X284929Y248000D01*
D02*
G37*
G36*
X225929D02*
Y233700D01*
X225929D01*
Y174071D01*
X213575D01*
X213475Y174571D01*
X214143Y174847D01*
X214969Y175481D01*
X215603Y176307D01*
X216001Y177268D01*
X216137Y178300D01*
X216001Y179332D01*
X215603Y180293D01*
X214969Y181119D01*
X214143Y181753D01*
X213182Y182151D01*
X212150Y182287D01*
X211118Y182151D01*
X210157Y181753D01*
X209331Y181119D01*
X208697Y180293D01*
X208299Y179332D01*
X208163Y178300D01*
X208299Y177268D01*
X208697Y176307D01*
X209331Y175481D01*
X210157Y174847D01*
X210825Y174571D01*
X210725Y174071D01*
X203575D01*
X203475Y174571D01*
X204143Y174847D01*
X204969Y175481D01*
X205603Y176307D01*
X206001Y177268D01*
X206137Y178300D01*
X206001Y179332D01*
X205603Y180293D01*
X204969Y181119D01*
X204143Y181753D01*
X203182Y182151D01*
X202150Y182287D01*
X201118Y182151D01*
X200157Y181753D01*
X199331Y181119D01*
X198697Y180293D01*
X198299Y179332D01*
X198163Y178300D01*
X198299Y177268D01*
X198697Y176307D01*
X199331Y175481D01*
X200157Y174847D01*
X200825Y174571D01*
X200725Y174071D01*
X193575D01*
X193475Y174571D01*
X194143Y174847D01*
X194969Y175481D01*
X195603Y176307D01*
X196001Y177268D01*
X196137Y178300D01*
X196001Y179332D01*
X195603Y180293D01*
X194969Y181119D01*
X194143Y181753D01*
X193182Y182151D01*
X192150Y182287D01*
X191118Y182151D01*
X190157Y181753D01*
X189331Y181119D01*
X188697Y180293D01*
X188299Y179332D01*
X188163Y178300D01*
X188299Y177268D01*
X188697Y176307D01*
X189331Y175481D01*
X190157Y174847D01*
X190825Y174571D01*
X190725Y174071D01*
X169071D01*
Y233700D01*
Y242000D01*
X184763D01*
Y248000D01*
X225929Y248000D01*
D02*
G37*
%LPC*%
G36*
X393103Y359816D02*
X385197D01*
Y351911D01*
X393103D01*
Y359816D01*
D02*
G37*
G36*
X379150Y359850D02*
X378118Y359715D01*
X377157Y359316D01*
X376331Y358683D01*
X375697Y357857D01*
X375299Y356895D01*
X375163Y355863D01*
X375299Y354832D01*
X375697Y353870D01*
X376331Y353044D01*
X377157Y352411D01*
X378118Y352012D01*
X379150Y351877D01*
X380182Y352012D01*
X381143Y352411D01*
X381969Y353044D01*
X382603Y353870D01*
X383001Y354832D01*
X383137Y355863D01*
X383001Y356895D01*
X382603Y357857D01*
X381969Y358683D01*
X381143Y359316D01*
X380182Y359715D01*
X379150Y359850D01*
D02*
G37*
G36*
X369150D02*
X368118Y359715D01*
X367157Y359316D01*
X366331Y358683D01*
X365697Y357857D01*
X365299Y356895D01*
X365163Y355863D01*
X365299Y354832D01*
X365697Y353870D01*
X366331Y353044D01*
X367157Y352411D01*
X368118Y352012D01*
X369150Y351877D01*
X370182Y352012D01*
X371143Y352411D01*
X371969Y353044D01*
X372603Y353870D01*
X373001Y354832D01*
X373137Y355863D01*
X373001Y356895D01*
X372603Y357857D01*
X371969Y358683D01*
X371143Y359316D01*
X370182Y359715D01*
X369150Y359850D01*
D02*
G37*
G36*
X359150D02*
X358118Y359715D01*
X357157Y359316D01*
X356331Y358683D01*
X355697Y357857D01*
X355299Y356895D01*
X355163Y355863D01*
X355299Y354832D01*
X355697Y353870D01*
X356331Y353044D01*
X357157Y352411D01*
X358118Y352012D01*
X359150Y351877D01*
X360182Y352012D01*
X361143Y352411D01*
X361969Y353044D01*
X362603Y353870D01*
X363001Y354832D01*
X363137Y355863D01*
X363001Y356895D01*
X362603Y357857D01*
X361969Y358683D01*
X361143Y359316D01*
X360182Y359715D01*
X359150Y359850D01*
D02*
G37*
G36*
X334103Y359816D02*
X326197D01*
Y351911D01*
X334103D01*
Y359816D01*
D02*
G37*
G36*
X320150Y359850D02*
X319118Y359715D01*
X318157Y359316D01*
X317331Y358683D01*
X316697Y357857D01*
X316299Y356895D01*
X316163Y355863D01*
X316299Y354832D01*
X316697Y353870D01*
X317331Y353044D01*
X318157Y352411D01*
X319118Y352012D01*
X320150Y351877D01*
X321182Y352012D01*
X322143Y352411D01*
X322969Y353044D01*
X323603Y353870D01*
X324001Y354832D01*
X324137Y355863D01*
X324001Y356895D01*
X323603Y357857D01*
X322969Y358683D01*
X322143Y359316D01*
X321182Y359715D01*
X320150Y359850D01*
D02*
G37*
G36*
X310150D02*
X309118Y359715D01*
X308157Y359316D01*
X307331Y358683D01*
X306697Y357857D01*
X306299Y356895D01*
X306163Y355863D01*
X306299Y354832D01*
X306697Y353870D01*
X307331Y353044D01*
X308157Y352411D01*
X309118Y352012D01*
X310150Y351877D01*
X311182Y352012D01*
X312143Y352411D01*
X312969Y353044D01*
X313603Y353870D01*
X314001Y354832D01*
X314137Y355863D01*
X314001Y356895D01*
X313603Y357857D01*
X312969Y358683D01*
X312143Y359316D01*
X311182Y359715D01*
X310150Y359850D01*
D02*
G37*
G36*
X300150D02*
X299118Y359715D01*
X298157Y359316D01*
X297331Y358683D01*
X296697Y357857D01*
X296299Y356895D01*
X296163Y355863D01*
X296299Y354832D01*
X296697Y353870D01*
X297331Y353044D01*
X298157Y352411D01*
X299118Y352012D01*
X300150Y351877D01*
X301182Y352012D01*
X302143Y352411D01*
X302969Y353044D01*
X303603Y353870D01*
X304001Y354832D01*
X304137Y355863D01*
X304001Y356895D01*
X303603Y357857D01*
X302969Y358683D01*
X302143Y359316D01*
X301182Y359715D01*
X300150Y359850D01*
D02*
G37*
G36*
X275103Y359816D02*
X267197D01*
Y351911D01*
X275103D01*
Y359816D01*
D02*
G37*
G36*
X261150Y359850D02*
X260118Y359715D01*
X259157Y359316D01*
X258331Y358683D01*
X257697Y357857D01*
X257299Y356895D01*
X257163Y355863D01*
X257299Y354832D01*
X257697Y353870D01*
X258331Y353044D01*
X259157Y352411D01*
X260118Y352012D01*
X261150Y351877D01*
X262182Y352012D01*
X263143Y352411D01*
X263969Y353044D01*
X264603Y353870D01*
X265001Y354832D01*
X265137Y355863D01*
X265001Y356895D01*
X264603Y357857D01*
X263969Y358683D01*
X263143Y359316D01*
X262182Y359715D01*
X261150Y359850D01*
D02*
G37*
G36*
X251150D02*
X250118Y359715D01*
X249157Y359316D01*
X248331Y358683D01*
X247697Y357857D01*
X247299Y356895D01*
X247163Y355863D01*
X247299Y354832D01*
X247697Y353870D01*
X248331Y353044D01*
X249157Y352411D01*
X250118Y352012D01*
X251150Y351877D01*
X252182Y352012D01*
X253143Y352411D01*
X253969Y353044D01*
X254603Y353870D01*
X255001Y354832D01*
X255137Y355863D01*
X255001Y356895D01*
X254603Y357857D01*
X253969Y358683D01*
X253143Y359316D01*
X252182Y359715D01*
X251150Y359850D01*
D02*
G37*
G36*
X241150D02*
X240118Y359715D01*
X239157Y359316D01*
X238331Y358683D01*
X237697Y357857D01*
X237299Y356895D01*
X237163Y355863D01*
X237299Y354832D01*
X237697Y353870D01*
X238331Y353044D01*
X239157Y352411D01*
X240118Y352012D01*
X241150Y351877D01*
X242182Y352012D01*
X243143Y352411D01*
X243969Y353044D01*
X244603Y353870D01*
X245001Y354832D01*
X245137Y355863D01*
X245001Y356895D01*
X244603Y357857D01*
X243969Y358683D01*
X243143Y359316D01*
X242182Y359715D01*
X241150Y359850D01*
D02*
G37*
G36*
X216103Y359816D02*
X208197D01*
Y351911D01*
X216103D01*
Y359816D01*
D02*
G37*
G36*
X202150Y359850D02*
X201118Y359715D01*
X200157Y359316D01*
X199331Y358683D01*
X198697Y357857D01*
X198299Y356895D01*
X198163Y355863D01*
X198299Y354832D01*
X198697Y353870D01*
X199331Y353044D01*
X200157Y352411D01*
X201118Y352012D01*
X202150Y351877D01*
X203182Y352012D01*
X204143Y352411D01*
X204969Y353044D01*
X205603Y353870D01*
X206001Y354832D01*
X206137Y355863D01*
X206001Y356895D01*
X205603Y357857D01*
X204969Y358683D01*
X204143Y359316D01*
X203182Y359715D01*
X202150Y359850D01*
D02*
G37*
G36*
X192150D02*
X191118Y359715D01*
X190157Y359316D01*
X189331Y358683D01*
X188697Y357857D01*
X188299Y356895D01*
X188163Y355863D01*
X188299Y354832D01*
X188697Y353870D01*
X189331Y353044D01*
X190157Y352411D01*
X191118Y352012D01*
X192150Y351877D01*
X193182Y352012D01*
X194143Y352411D01*
X194969Y353044D01*
X195603Y353870D01*
X196001Y354832D01*
X196137Y355863D01*
X196001Y356895D01*
X195603Y357857D01*
X194969Y358683D01*
X194143Y359316D01*
X193182Y359715D01*
X192150Y359850D01*
D02*
G37*
G36*
X182150D02*
X181118Y359715D01*
X180157Y359316D01*
X179331Y358683D01*
X178697Y357857D01*
X178299Y356895D01*
X178163Y355863D01*
X178299Y354832D01*
X178697Y353870D01*
X179331Y353044D01*
X180157Y352411D01*
X181118Y352012D01*
X182150Y351877D01*
X183182Y352012D01*
X184143Y352411D01*
X184969Y353044D01*
X185603Y353870D01*
X186001Y354832D01*
X186137Y355863D01*
X186001Y356895D01*
X185603Y357857D01*
X184969Y358683D01*
X184143Y359316D01*
X183182Y359715D01*
X182150Y359850D01*
D02*
G37*
G36*
X393103Y276034D02*
X385197D01*
Y268129D01*
X393103D01*
Y276034D01*
D02*
G37*
G36*
X379150Y276069D02*
X378118Y275933D01*
X377157Y275535D01*
X376331Y274901D01*
X375697Y274075D01*
X375299Y273114D01*
X375163Y272082D01*
X375299Y271050D01*
X375697Y270088D01*
X376331Y269263D01*
X377157Y268629D01*
X378118Y268231D01*
X379150Y268095D01*
X380182Y268231D01*
X381143Y268629D01*
X381969Y269263D01*
X382603Y270088D01*
X383001Y271050D01*
X383137Y272082D01*
X383001Y273114D01*
X382603Y274075D01*
X381969Y274901D01*
X381143Y275535D01*
X380182Y275933D01*
X379150Y276069D01*
D02*
G37*
G36*
X369150D02*
X368118Y275933D01*
X367157Y275535D01*
X366331Y274901D01*
X365697Y274075D01*
X365299Y273114D01*
X365163Y272082D01*
X365299Y271050D01*
X365697Y270088D01*
X366331Y269263D01*
X367157Y268629D01*
X368118Y268231D01*
X369150Y268095D01*
X370182Y268231D01*
X371143Y268629D01*
X371969Y269263D01*
X372603Y270088D01*
X373001Y271050D01*
X373137Y272082D01*
X373001Y273114D01*
X372603Y274075D01*
X371969Y274901D01*
X371143Y275535D01*
X370182Y275933D01*
X369150Y276069D01*
D02*
G37*
G36*
X359150D02*
X358118Y275933D01*
X357157Y275535D01*
X356331Y274901D01*
X355697Y274075D01*
X355299Y273114D01*
X355163Y272082D01*
X355299Y271050D01*
X355697Y270088D01*
X356331Y269263D01*
X357157Y268629D01*
X358118Y268231D01*
X359150Y268095D01*
X360182Y268231D01*
X361143Y268629D01*
X361969Y269263D01*
X362603Y270088D01*
X363001Y271050D01*
X363137Y272082D01*
X363001Y273114D01*
X362603Y274075D01*
X361969Y274901D01*
X361143Y275535D01*
X360182Y275933D01*
X359150Y276069D01*
D02*
G37*
G36*
X334103Y276034D02*
X326197D01*
Y268129D01*
X334103D01*
Y276034D01*
D02*
G37*
G36*
X320150Y276069D02*
X319118Y275933D01*
X318157Y275535D01*
X317331Y274901D01*
X316697Y274075D01*
X316299Y273114D01*
X316163Y272082D01*
X316299Y271050D01*
X316697Y270088D01*
X317331Y269263D01*
X318157Y268629D01*
X319118Y268231D01*
X320150Y268095D01*
X321182Y268231D01*
X322143Y268629D01*
X322969Y269263D01*
X323603Y270088D01*
X324001Y271050D01*
X324137Y272082D01*
X324001Y273114D01*
X323603Y274075D01*
X322969Y274901D01*
X322143Y275535D01*
X321182Y275933D01*
X320150Y276069D01*
D02*
G37*
G36*
X310150D02*
X309118Y275933D01*
X308157Y275535D01*
X307331Y274901D01*
X306697Y274075D01*
X306299Y273114D01*
X306163Y272082D01*
X306299Y271050D01*
X306697Y270088D01*
X307331Y269263D01*
X308157Y268629D01*
X309118Y268231D01*
X310150Y268095D01*
X311182Y268231D01*
X312143Y268629D01*
X312969Y269263D01*
X313603Y270088D01*
X314001Y271050D01*
X314137Y272082D01*
X314001Y273114D01*
X313603Y274075D01*
X312969Y274901D01*
X312143Y275535D01*
X311182Y275933D01*
X310150Y276069D01*
D02*
G37*
G36*
X300150D02*
X299118Y275933D01*
X298157Y275535D01*
X297331Y274901D01*
X296697Y274075D01*
X296299Y273114D01*
X296163Y272082D01*
X296299Y271050D01*
X296697Y270088D01*
X297331Y269263D01*
X298157Y268629D01*
X299118Y268231D01*
X300150Y268095D01*
X301182Y268231D01*
X302143Y268629D01*
X302969Y269263D01*
X303603Y270088D01*
X304001Y271050D01*
X304137Y272082D01*
X304001Y273114D01*
X303603Y274075D01*
X302969Y274901D01*
X302143Y275535D01*
X301182Y275933D01*
X300150Y276069D01*
D02*
G37*
G36*
X275103Y276034D02*
X267197D01*
Y268129D01*
X275103D01*
Y276034D01*
D02*
G37*
G36*
X261150Y276069D02*
X260118Y275933D01*
X259157Y275535D01*
X258331Y274901D01*
X257697Y274075D01*
X257299Y273114D01*
X257163Y272082D01*
X257299Y271050D01*
X257697Y270088D01*
X258331Y269263D01*
X259157Y268629D01*
X260118Y268231D01*
X261150Y268095D01*
X262182Y268231D01*
X263143Y268629D01*
X263969Y269263D01*
X264603Y270088D01*
X265001Y271050D01*
X265137Y272082D01*
X265001Y273114D01*
X264603Y274075D01*
X263969Y274901D01*
X263143Y275535D01*
X262182Y275933D01*
X261150Y276069D01*
D02*
G37*
G36*
X251150D02*
X250118Y275933D01*
X249157Y275535D01*
X248331Y274901D01*
X247697Y274075D01*
X247299Y273114D01*
X247163Y272082D01*
X247299Y271050D01*
X247697Y270088D01*
X248331Y269263D01*
X249157Y268629D01*
X250118Y268231D01*
X251150Y268095D01*
X252182Y268231D01*
X253143Y268629D01*
X253969Y269263D01*
X254603Y270088D01*
X255001Y271050D01*
X255137Y272082D01*
X255001Y273114D01*
X254603Y274075D01*
X253969Y274901D01*
X253143Y275535D01*
X252182Y275933D01*
X251150Y276069D01*
D02*
G37*
G36*
X241150D02*
X240118Y275933D01*
X239157Y275535D01*
X238331Y274901D01*
X237697Y274075D01*
X237299Y273114D01*
X237163Y272082D01*
X237299Y271050D01*
X237697Y270088D01*
X238331Y269263D01*
X239157Y268629D01*
X240118Y268231D01*
X241150Y268095D01*
X242182Y268231D01*
X243143Y268629D01*
X243969Y269263D01*
X244603Y270088D01*
X245001Y271050D01*
X245137Y272082D01*
X245001Y273114D01*
X244603Y274075D01*
X243969Y274901D01*
X243143Y275535D01*
X242182Y275933D01*
X241150Y276069D01*
D02*
G37*
G36*
X216103Y276034D02*
X208197D01*
Y268129D01*
X216103D01*
Y276034D01*
D02*
G37*
G36*
X202150Y276069D02*
X201118Y275933D01*
X200157Y275535D01*
X199331Y274901D01*
X198697Y274075D01*
X198299Y273114D01*
X198163Y272082D01*
X198299Y271050D01*
X198697Y270088D01*
X199331Y269263D01*
X200157Y268629D01*
X201118Y268231D01*
X202150Y268095D01*
X203182Y268231D01*
X204143Y268629D01*
X204969Y269263D01*
X205603Y270088D01*
X206001Y271050D01*
X206137Y272082D01*
X206001Y273114D01*
X205603Y274075D01*
X204969Y274901D01*
X204143Y275535D01*
X203182Y275933D01*
X202150Y276069D01*
D02*
G37*
G36*
X192150D02*
X191118Y275933D01*
X190157Y275535D01*
X189331Y274901D01*
X188697Y274075D01*
X188299Y273114D01*
X188163Y272082D01*
X188299Y271050D01*
X188697Y270088D01*
X189331Y269263D01*
X190157Y268629D01*
X191118Y268231D01*
X192150Y268095D01*
X193182Y268231D01*
X194143Y268629D01*
X194969Y269263D01*
X195603Y270088D01*
X196001Y271050D01*
X196137Y272082D01*
X196001Y273114D01*
X195603Y274075D01*
X194969Y274901D01*
X194143Y275535D01*
X193182Y275933D01*
X192150Y276069D01*
D02*
G37*
G36*
X182150D02*
X181118Y275933D01*
X180157Y275535D01*
X179331Y274901D01*
X178697Y274075D01*
X178299Y273114D01*
X178163Y272082D01*
X178299Y271050D01*
X178697Y270088D01*
X179331Y269263D01*
X180157Y268629D01*
X181118Y268231D01*
X182150Y268095D01*
X183182Y268231D01*
X184143Y268629D01*
X184969Y269263D01*
X185603Y270088D01*
X186001Y271050D01*
X186137Y272082D01*
X186001Y273114D01*
X185603Y274075D01*
X184969Y274901D01*
X184143Y275535D01*
X183182Y275933D01*
X182150Y276069D01*
D02*
G37*
G36*
X393103Y192253D02*
X385197D01*
Y184347D01*
X393103D01*
Y192253D01*
D02*
G37*
G36*
X379150Y192287D02*
X378118Y192151D01*
X377157Y191753D01*
X376331Y191119D01*
X375697Y190293D01*
X375299Y189332D01*
X375163Y188300D01*
X375299Y187268D01*
X375697Y186307D01*
X376331Y185481D01*
X377157Y184847D01*
X378118Y184449D01*
X379150Y184313D01*
X380182Y184449D01*
X381143Y184847D01*
X381969Y185481D01*
X382603Y186307D01*
X383001Y187268D01*
X383137Y188300D01*
X383001Y189332D01*
X382603Y190293D01*
X381969Y191119D01*
X381143Y191753D01*
X380182Y192151D01*
X379150Y192287D01*
D02*
G37*
G36*
X369150D02*
X368118Y192151D01*
X367157Y191753D01*
X366331Y191119D01*
X365697Y190293D01*
X365299Y189332D01*
X365163Y188300D01*
X365299Y187268D01*
X365697Y186307D01*
X366331Y185481D01*
X367157Y184847D01*
X368118Y184449D01*
X369150Y184313D01*
X370182Y184449D01*
X371143Y184847D01*
X371969Y185481D01*
X372603Y186307D01*
X373001Y187268D01*
X373137Y188300D01*
X373001Y189332D01*
X372603Y190293D01*
X371969Y191119D01*
X371143Y191753D01*
X370182Y192151D01*
X369150Y192287D01*
D02*
G37*
G36*
X359150D02*
X358118Y192151D01*
X357157Y191753D01*
X356331Y191119D01*
X355697Y190293D01*
X355299Y189332D01*
X355163Y188300D01*
X355299Y187268D01*
X355697Y186307D01*
X356331Y185481D01*
X357157Y184847D01*
X358118Y184449D01*
X359150Y184313D01*
X360182Y184449D01*
X361143Y184847D01*
X361969Y185481D01*
X362603Y186307D01*
X363001Y187268D01*
X363137Y188300D01*
X363001Y189332D01*
X362603Y190293D01*
X361969Y191119D01*
X361143Y191753D01*
X360182Y192151D01*
X359150Y192287D01*
D02*
G37*
G36*
X334103Y192253D02*
X326197D01*
Y184347D01*
X334103D01*
Y192253D01*
D02*
G37*
G36*
X320150Y192287D02*
X319118Y192151D01*
X318157Y191753D01*
X317331Y191119D01*
X316697Y190293D01*
X316299Y189332D01*
X316163Y188300D01*
X316299Y187268D01*
X316697Y186307D01*
X317331Y185481D01*
X318157Y184847D01*
X319118Y184449D01*
X320150Y184313D01*
X321182Y184449D01*
X322143Y184847D01*
X322969Y185481D01*
X323603Y186307D01*
X324001Y187268D01*
X324137Y188300D01*
X324001Y189332D01*
X323603Y190293D01*
X322969Y191119D01*
X322143Y191753D01*
X321182Y192151D01*
X320150Y192287D01*
D02*
G37*
G36*
X310150D02*
X309118Y192151D01*
X308157Y191753D01*
X307331Y191119D01*
X306697Y190293D01*
X306299Y189332D01*
X306163Y188300D01*
X306299Y187268D01*
X306697Y186307D01*
X307331Y185481D01*
X308157Y184847D01*
X309118Y184449D01*
X310150Y184313D01*
X311182Y184449D01*
X312143Y184847D01*
X312969Y185481D01*
X313603Y186307D01*
X314001Y187268D01*
X314137Y188300D01*
X314001Y189332D01*
X313603Y190293D01*
X312969Y191119D01*
X312143Y191753D01*
X311182Y192151D01*
X310150Y192287D01*
D02*
G37*
G36*
X300150D02*
X299118Y192151D01*
X298157Y191753D01*
X297331Y191119D01*
X296697Y190293D01*
X296299Y189332D01*
X296163Y188300D01*
X296299Y187268D01*
X296697Y186307D01*
X297331Y185481D01*
X298157Y184847D01*
X299118Y184449D01*
X300150Y184313D01*
X301182Y184449D01*
X302143Y184847D01*
X302969Y185481D01*
X303603Y186307D01*
X304001Y187268D01*
X304137Y188300D01*
X304001Y189332D01*
X303603Y190293D01*
X302969Y191119D01*
X302143Y191753D01*
X301182Y192151D01*
X300150Y192287D01*
D02*
G37*
G36*
X275103Y192253D02*
X267197D01*
Y184347D01*
X275103D01*
Y192253D01*
D02*
G37*
G36*
X261150Y192287D02*
X260118Y192151D01*
X259157Y191753D01*
X258331Y191119D01*
X257697Y190293D01*
X257299Y189332D01*
X257163Y188300D01*
X257299Y187268D01*
X257697Y186307D01*
X258331Y185481D01*
X259157Y184847D01*
X260118Y184449D01*
X261150Y184313D01*
X262182Y184449D01*
X263143Y184847D01*
X263969Y185481D01*
X264603Y186307D01*
X265001Y187268D01*
X265137Y188300D01*
X265001Y189332D01*
X264603Y190293D01*
X263969Y191119D01*
X263143Y191753D01*
X262182Y192151D01*
X261150Y192287D01*
D02*
G37*
G36*
X251150D02*
X250118Y192151D01*
X249157Y191753D01*
X248331Y191119D01*
X247697Y190293D01*
X247299Y189332D01*
X247163Y188300D01*
X247299Y187268D01*
X247697Y186307D01*
X248331Y185481D01*
X249157Y184847D01*
X250118Y184449D01*
X251150Y184313D01*
X252182Y184449D01*
X253143Y184847D01*
X253969Y185481D01*
X254603Y186307D01*
X255001Y187268D01*
X255137Y188300D01*
X255001Y189332D01*
X254603Y190293D01*
X253969Y191119D01*
X253143Y191753D01*
X252182Y192151D01*
X251150Y192287D01*
D02*
G37*
G36*
X241150D02*
X240118Y192151D01*
X239157Y191753D01*
X238331Y191119D01*
X237697Y190293D01*
X237299Y189332D01*
X237163Y188300D01*
X237299Y187268D01*
X237697Y186307D01*
X238331Y185481D01*
X239157Y184847D01*
X240118Y184449D01*
X241150Y184313D01*
X242182Y184449D01*
X243143Y184847D01*
X243969Y185481D01*
X244603Y186307D01*
X245001Y187268D01*
X245137Y188300D01*
X245001Y189332D01*
X244603Y190293D01*
X243969Y191119D01*
X243143Y191753D01*
X242182Y192151D01*
X241150Y192287D01*
D02*
G37*
G36*
X216103Y192253D02*
X208197D01*
Y184347D01*
X216103D01*
Y192253D01*
D02*
G37*
G36*
X202150Y192287D02*
X201118Y192151D01*
X200157Y191753D01*
X199331Y191119D01*
X198697Y190293D01*
X198299Y189332D01*
X198163Y188300D01*
X198299Y187268D01*
X198697Y186307D01*
X199331Y185481D01*
X200157Y184847D01*
X201118Y184449D01*
X202150Y184313D01*
X203182Y184449D01*
X204143Y184847D01*
X204969Y185481D01*
X205603Y186307D01*
X206001Y187268D01*
X206137Y188300D01*
X206001Y189332D01*
X205603Y190293D01*
X204969Y191119D01*
X204143Y191753D01*
X203182Y192151D01*
X202150Y192287D01*
D02*
G37*
G36*
X192150D02*
X191118Y192151D01*
X190157Y191753D01*
X189331Y191119D01*
X188697Y190293D01*
X188299Y189332D01*
X188163Y188300D01*
X188299Y187268D01*
X188697Y186307D01*
X189331Y185481D01*
X190157Y184847D01*
X191118Y184449D01*
X192150Y184313D01*
X193182Y184449D01*
X194143Y184847D01*
X194969Y185481D01*
X195603Y186307D01*
X196001Y187268D01*
X196137Y188300D01*
X196001Y189332D01*
X195603Y190293D01*
X194969Y191119D01*
X194143Y191753D01*
X193182Y192151D01*
X192150Y192287D01*
D02*
G37*
G36*
X182150D02*
X181118Y192151D01*
X180157Y191753D01*
X179331Y191119D01*
X178697Y190293D01*
X178299Y189332D01*
X178163Y188300D01*
X178299Y187268D01*
X178697Y186307D01*
X179331Y185481D01*
X180157Y184847D01*
X181118Y184449D01*
X182150Y184313D01*
X183182Y184449D01*
X184143Y184847D01*
X184969Y185481D01*
X185603Y186307D01*
X186001Y187268D01*
X186137Y188300D01*
X186001Y189332D01*
X185603Y190293D01*
X184969Y191119D01*
X184143Y191753D01*
X183182Y192151D01*
X182150Y192287D01*
D02*
G37*
%LPD*%
D34*
Y178300D02*
D03*
Y188300D02*
D03*
X192150Y178300D02*
D03*
Y188300D02*
D03*
X202150Y178300D02*
D03*
Y188300D02*
D03*
X212150Y178300D02*
D03*
X241150D02*
D03*
Y188300D02*
D03*
X251150Y178300D02*
D03*
Y188300D02*
D03*
X261150Y178300D02*
D03*
Y188300D02*
D03*
X271150Y178300D02*
D03*
X300150D02*
D03*
Y188300D02*
D03*
X310150Y178300D02*
D03*
Y188300D02*
D03*
X320150Y178300D02*
D03*
Y188300D02*
D03*
X330150Y178300D02*
D03*
X359150D02*
D03*
Y188300D02*
D03*
X369150Y178300D02*
D03*
Y188300D02*
D03*
X379150Y178300D02*
D03*
Y188300D02*
D03*
X389150Y178300D02*
D03*
X182150Y262082D02*
D03*
Y272082D02*
D03*
X192150Y262082D02*
D03*
Y272082D02*
D03*
X202150Y262082D02*
D03*
Y272082D02*
D03*
X212150Y262082D02*
D03*
X241150D02*
D03*
Y272082D02*
D03*
X251150Y262082D02*
D03*
Y272082D02*
D03*
X261150Y262082D02*
D03*
Y272082D02*
D03*
X271150Y262082D02*
D03*
X300150D02*
D03*
Y272082D02*
D03*
X310150Y262082D02*
D03*
Y272082D02*
D03*
X320150Y262082D02*
D03*
Y272082D02*
D03*
X330150Y262082D02*
D03*
X359150D02*
D03*
Y272082D02*
D03*
X369150Y262082D02*
D03*
Y272082D02*
D03*
X379150Y262082D02*
D03*
Y272082D02*
D03*
X389150Y262082D02*
D03*
X182150Y345864D02*
D03*
Y355863D02*
D03*
X192150Y345864D02*
D03*
Y355863D02*
D03*
X202150Y345864D02*
D03*
Y355863D02*
D03*
X212150Y345864D02*
D03*
X241150D02*
D03*
Y355863D02*
D03*
X251150Y345864D02*
D03*
Y355863D02*
D03*
X261150Y345864D02*
D03*
Y355863D02*
D03*
X271150Y345864D02*
D03*
X300150D02*
D03*
Y355863D02*
D03*
X310150Y345864D02*
D03*
Y355863D02*
D03*
X320150Y345864D02*
D03*
Y355863D02*
D03*
X330150Y345864D02*
D03*
X359150D02*
D03*
Y355863D02*
D03*
X369150Y345864D02*
D03*
Y355863D02*
D03*
X379150Y345864D02*
D03*
Y355863D02*
D03*
X389150Y345864D02*
D03*
D35*
X212150Y188300D02*
D03*
X271150D02*
D03*
X330150D02*
D03*
X389150D02*
D03*
X212150Y272082D02*
D03*
X271150D02*
D03*
X330150D02*
D03*
X389150D02*
D03*
X212150Y355863D02*
D03*
X271150D02*
D03*
X330150D02*
D03*
X389150D02*
D03*
D36*
X186750Y204300D02*
D03*
X188550Y202600D02*
D03*
Y205950D02*
D03*
X184900D02*
D03*
X185000Y202600D02*
D03*
X225113Y240850D02*
D03*
X222113D02*
D03*
X219113D02*
D03*
X216113D02*
D03*
X213113D02*
D03*
X174813Y237850D02*
D03*
X207563Y246000D02*
D03*
X174813Y240850D02*
D03*
X186113Y237850D02*
D03*
Y240850D02*
D03*
X189113D02*
D03*
X192113D02*
D03*
X195113D02*
D03*
X198113D02*
D03*
X201113D02*
D03*
X204113D02*
D03*
X207113D02*
D03*
X210113D02*
D03*
X245750Y204300D02*
D03*
X247550Y202600D02*
D03*
Y205950D02*
D03*
X243900D02*
D03*
X244000Y202600D02*
D03*
X284113Y240850D02*
D03*
X281113D02*
D03*
X278113D02*
D03*
X275113D02*
D03*
X272113D02*
D03*
X233813Y237850D02*
D03*
X266563Y246000D02*
D03*
X233813Y240850D02*
D03*
X245113Y237850D02*
D03*
Y240850D02*
D03*
X248113D02*
D03*
X251113D02*
D03*
X254113D02*
D03*
X257113D02*
D03*
X260113D02*
D03*
X263113D02*
D03*
X266113D02*
D03*
X269113D02*
D03*
X304750Y204300D02*
D03*
X306550Y202600D02*
D03*
Y205950D02*
D03*
X302900D02*
D03*
X303000Y202600D02*
D03*
X343113Y240850D02*
D03*
X340113D02*
D03*
X337113D02*
D03*
X334113D02*
D03*
X331113D02*
D03*
X292813Y237850D02*
D03*
X325563Y246000D02*
D03*
X292813Y240850D02*
D03*
X304113Y237850D02*
D03*
Y240850D02*
D03*
X307113D02*
D03*
X310113D02*
D03*
X313113D02*
D03*
X316113D02*
D03*
X319113D02*
D03*
X322113D02*
D03*
X325113D02*
D03*
X328113D02*
D03*
X363750Y204300D02*
D03*
X365550Y202600D02*
D03*
Y205950D02*
D03*
X361900D02*
D03*
X362000Y202600D02*
D03*
X402113Y240850D02*
D03*
X399113D02*
D03*
X396113D02*
D03*
X393113D02*
D03*
X390113D02*
D03*
X351813Y237850D02*
D03*
X384563Y246000D02*
D03*
X351813Y240850D02*
D03*
X363113Y237850D02*
D03*
Y240850D02*
D03*
X366113D02*
D03*
X369113D02*
D03*
X372113D02*
D03*
X375113D02*
D03*
X378113D02*
D03*
X381113D02*
D03*
X384113D02*
D03*
X387113D02*
D03*
X186750Y288082D02*
D03*
X188550Y286382D02*
D03*
Y289732D02*
D03*
X184900D02*
D03*
X185000Y286382D02*
D03*
X225113Y324632D02*
D03*
X222113D02*
D03*
X219113D02*
D03*
X216113D02*
D03*
X213113D02*
D03*
X174813Y321632D02*
D03*
X207563Y329782D02*
D03*
X174813Y324632D02*
D03*
X186113Y321632D02*
D03*
Y324632D02*
D03*
X189113D02*
D03*
X192113D02*
D03*
X195113D02*
D03*
X198113D02*
D03*
X201113D02*
D03*
X204113D02*
D03*
X207113D02*
D03*
X210113D02*
D03*
X245750Y288082D02*
D03*
X247550Y286382D02*
D03*
Y289732D02*
D03*
X243900D02*
D03*
X244000Y286382D02*
D03*
X284113Y324632D02*
D03*
X281113D02*
D03*
X278113D02*
D03*
X275113D02*
D03*
X272113D02*
D03*
X233813Y321632D02*
D03*
X266563Y329782D02*
D03*
X233813Y324632D02*
D03*
X245113Y321632D02*
D03*
Y324632D02*
D03*
X248113D02*
D03*
X251113D02*
D03*
X254113D02*
D03*
X257113D02*
D03*
X260113D02*
D03*
X263113D02*
D03*
X266113D02*
D03*
X269113D02*
D03*
X304750Y288082D02*
D03*
X306550Y286382D02*
D03*
Y289732D02*
D03*
X302900D02*
D03*
X303000Y286382D02*
D03*
X343113Y324632D02*
D03*
X340113D02*
D03*
X337113D02*
D03*
X334113D02*
D03*
X331113D02*
D03*
X292813Y321632D02*
D03*
X325563Y329782D02*
D03*
X292813Y324632D02*
D03*
X304113Y321632D02*
D03*
Y324632D02*
D03*
X307113D02*
D03*
X310113D02*
D03*
X313113D02*
D03*
X316113D02*
D03*
X319113D02*
D03*
X322113D02*
D03*
X325113D02*
D03*
X328113D02*
D03*
X363750Y288082D02*
D03*
X365550Y286382D02*
D03*
Y289732D02*
D03*
X361900D02*
D03*
X362000Y286382D02*
D03*
X402113Y324632D02*
D03*
X399113D02*
D03*
X396113D02*
D03*
X393113D02*
D03*
X390113D02*
D03*
X351813Y321632D02*
D03*
X384563Y329782D02*
D03*
X351813Y324632D02*
D03*
X363113Y321632D02*
D03*
Y324632D02*
D03*
X366113D02*
D03*
X369113D02*
D03*
X372113D02*
D03*
X375113D02*
D03*
X378113D02*
D03*
X381113D02*
D03*
X384113D02*
D03*
X387113D02*
D03*
X186750Y371864D02*
D03*
X188550Y370163D02*
D03*
Y373514D02*
D03*
X184900D02*
D03*
X185000Y370163D02*
D03*
X225113Y408414D02*
D03*
X222113D02*
D03*
X219113D02*
D03*
X216113D02*
D03*
X213113D02*
D03*
X174813Y405413D02*
D03*
X207563Y413563D02*
D03*
X174813Y408414D02*
D03*
X186113Y405413D02*
D03*
Y408414D02*
D03*
X189113D02*
D03*
X192113D02*
D03*
X195113D02*
D03*
X198113D02*
D03*
X201113D02*
D03*
X204113D02*
D03*
X207113D02*
D03*
X210113D02*
D03*
X245750Y371864D02*
D03*
X247550Y370163D02*
D03*
Y373514D02*
D03*
X243900D02*
D03*
X244000Y370163D02*
D03*
X284113Y408414D02*
D03*
X281113D02*
D03*
X278113D02*
D03*
X275113D02*
D03*
X272113D02*
D03*
X233813Y405413D02*
D03*
X266563Y413563D02*
D03*
X233813Y408414D02*
D03*
X245113Y405413D02*
D03*
Y408414D02*
D03*
X248113D02*
D03*
X251113D02*
D03*
X254113D02*
D03*
X257113D02*
D03*
X260113D02*
D03*
X263113D02*
D03*
X266113D02*
D03*
X269113D02*
D03*
X304750Y371864D02*
D03*
X306550Y370163D02*
D03*
Y373514D02*
D03*
X302900D02*
D03*
X303000Y370163D02*
D03*
X343113Y408414D02*
D03*
X340113D02*
D03*
X337113D02*
D03*
X334113D02*
D03*
X331113D02*
D03*
X292813Y405413D02*
D03*
X325563Y413563D02*
D03*
X292813Y408414D02*
D03*
X304113Y405413D02*
D03*
Y408414D02*
D03*
X307113D02*
D03*
X310113D02*
D03*
X313113D02*
D03*
X316113D02*
D03*
X319113D02*
D03*
X322113D02*
D03*
X325113D02*
D03*
X328113D02*
D03*
X363750Y371864D02*
D03*
X365550Y370163D02*
D03*
Y373514D02*
D03*
X361900D02*
D03*
X362000Y370163D02*
D03*
X402113Y408414D02*
D03*
X399113D02*
D03*
X396113D02*
D03*
X393113D02*
D03*
X390113D02*
D03*
X351813Y405413D02*
D03*
X384563Y413563D02*
D03*
X351813Y408414D02*
D03*
X363113Y405413D02*
D03*
Y408414D02*
D03*
X366113D02*
D03*
X369113D02*
D03*
X372113D02*
D03*
X375113D02*
D03*
X378113D02*
D03*
X381113D02*
D03*
X384113D02*
D03*
X387113D02*
D03*
M02*
