G04*
G04 #@! TF.GenerationSoftware,Altium Limited,Altium Designer,18.1.7 (191)*
G04*
G04 Layer_Color=8388736*
%FSLAX25Y25*%
%MOIN*%
G70*
G01*
G75*
%ADD29R,0.02000X0.17000*%
%ADD30R,0.06500X0.02000*%
%ADD31R,0.27300X0.02000*%
%ADD33R,0.16500X0.02000*%
%ADD40R,0.02000X0.28000*%
%ADD41R,0.02762X0.02959*%
%ADD42R,0.06400X0.06400*%
%ADD43O,0.03550X0.01502*%
%ADD44O,0.01502X0.03550*%
%ADD45R,0.02959X0.02762*%
%ADD46R,0.06312X0.05328*%
%ADD47C,0.06706*%
%ADD48R,0.06706X0.06706*%
%ADD49C,0.02769*%
D29*
X189313Y261500D02*
D03*
X198313D02*
D03*
X207313D02*
D03*
X202813D02*
D03*
X193813D02*
D03*
X184813D02*
D03*
X248313D02*
D03*
X257313D02*
D03*
X266313D02*
D03*
X261813D02*
D03*
X252813D02*
D03*
X243813D02*
D03*
X307313D02*
D03*
X316313D02*
D03*
X325313D02*
D03*
X320813D02*
D03*
X311813D02*
D03*
X302813D02*
D03*
X366313D02*
D03*
X375313D02*
D03*
X384313D02*
D03*
X379813D02*
D03*
X370813D02*
D03*
X361813D02*
D03*
X189313Y345282D02*
D03*
X198313D02*
D03*
X207313D02*
D03*
X202813D02*
D03*
X193813D02*
D03*
X184813D02*
D03*
X248313D02*
D03*
X257313D02*
D03*
X266313D02*
D03*
X261813D02*
D03*
X252813D02*
D03*
X243813D02*
D03*
X307313D02*
D03*
X316313D02*
D03*
X325313D02*
D03*
X320813D02*
D03*
X311813D02*
D03*
X302813D02*
D03*
X366313D02*
D03*
X375313D02*
D03*
X384313D02*
D03*
X379813D02*
D03*
X370813D02*
D03*
X361813D02*
D03*
X189313Y429064D02*
D03*
X198313D02*
D03*
X207313D02*
D03*
X202813D02*
D03*
X193813D02*
D03*
X184813D02*
D03*
X248313D02*
D03*
X257313D02*
D03*
X266313D02*
D03*
X261813D02*
D03*
X252813D02*
D03*
X243813D02*
D03*
X307313D02*
D03*
X316313D02*
D03*
X325313D02*
D03*
X320813D02*
D03*
X311813D02*
D03*
X302813D02*
D03*
X366313D02*
D03*
X375313D02*
D03*
X384313D02*
D03*
X379813D02*
D03*
X370813D02*
D03*
X361813D02*
D03*
D30*
X205063Y254000D02*
D03*
X196063D02*
D03*
X187063D02*
D03*
X191563Y269000D02*
D03*
X182563D02*
D03*
X200563D02*
D03*
X264063Y254000D02*
D03*
X255063D02*
D03*
X246063D02*
D03*
X250563Y269000D02*
D03*
X241563D02*
D03*
X259563D02*
D03*
X323063Y254000D02*
D03*
X314063D02*
D03*
X305063D02*
D03*
X309563Y269000D02*
D03*
X300563D02*
D03*
X318563D02*
D03*
X382063Y254000D02*
D03*
X373063D02*
D03*
X364063D02*
D03*
X368563Y269000D02*
D03*
X359563D02*
D03*
X377563D02*
D03*
X205063Y337782D02*
D03*
X196063D02*
D03*
X187063D02*
D03*
X191563Y352782D02*
D03*
X182563D02*
D03*
X200563D02*
D03*
X264063Y337782D02*
D03*
X255063D02*
D03*
X246063D02*
D03*
X250563Y352782D02*
D03*
X241563D02*
D03*
X259563D02*
D03*
X323063Y337782D02*
D03*
X314063D02*
D03*
X305063D02*
D03*
X309563Y352782D02*
D03*
X300563D02*
D03*
X318563D02*
D03*
X382063Y337782D02*
D03*
X373063D02*
D03*
X364063D02*
D03*
X368563Y352782D02*
D03*
X359563D02*
D03*
X377563D02*
D03*
X205063Y421563D02*
D03*
X196063D02*
D03*
X187063D02*
D03*
X191563Y436563D02*
D03*
X182563D02*
D03*
X200563D02*
D03*
X264063Y421563D02*
D03*
X255063D02*
D03*
X246063D02*
D03*
X250563Y436563D02*
D03*
X241563D02*
D03*
X259563D02*
D03*
X323063Y421563D02*
D03*
X314063D02*
D03*
X305063D02*
D03*
X309563Y436563D02*
D03*
X300563D02*
D03*
X318563D02*
D03*
X382063Y421563D02*
D03*
X373063D02*
D03*
X364063D02*
D03*
X368563Y436563D02*
D03*
X359563D02*
D03*
X377563D02*
D03*
D31*
X194913Y246000D02*
D03*
X253913D02*
D03*
X312913D02*
D03*
X371913D02*
D03*
X194913Y329782D02*
D03*
X253913D02*
D03*
X312913D02*
D03*
X371913D02*
D03*
X194913Y413563D02*
D03*
X253913D02*
D03*
X312913D02*
D03*
X371913D02*
D03*
D33*
X214563Y269000D02*
D03*
X273563D02*
D03*
X332563D02*
D03*
X391563D02*
D03*
X214563Y352782D02*
D03*
X273563D02*
D03*
X332563D02*
D03*
X391563D02*
D03*
X214563Y436563D02*
D03*
X273563D02*
D03*
X332563D02*
D03*
X391563D02*
D03*
D40*
X180313Y256000D02*
D03*
X239313D02*
D03*
X298313D02*
D03*
X357313D02*
D03*
X180313Y339782D02*
D03*
X239313D02*
D03*
X298313D02*
D03*
X357313D02*
D03*
X180313Y423563D02*
D03*
X239313D02*
D03*
X298313D02*
D03*
X357313D02*
D03*
D41*
X180827Y222500D02*
D03*
X184173D02*
D03*
X171327Y208260D02*
D03*
X174673D02*
D03*
X171327Y202354D02*
D03*
X174673D02*
D03*
X185327Y217000D02*
D03*
X188673D02*
D03*
X174500Y231500D02*
D03*
X171153D02*
D03*
X174673Y196646D02*
D03*
X171327D02*
D03*
X174673Y191000D02*
D03*
X171327D02*
D03*
X192847Y222500D02*
D03*
X189500D02*
D03*
X213173Y217500D02*
D03*
X209827D02*
D03*
X209827Y197000D02*
D03*
X213173D02*
D03*
X239827Y222500D02*
D03*
X243173D02*
D03*
X230327Y208260D02*
D03*
X233673D02*
D03*
X230327Y202354D02*
D03*
X233673D02*
D03*
X244327Y217000D02*
D03*
X247673D02*
D03*
X233500Y231500D02*
D03*
X230153D02*
D03*
X233673Y196646D02*
D03*
X230327D02*
D03*
X233673Y191000D02*
D03*
X230327D02*
D03*
X251847Y222500D02*
D03*
X248500D02*
D03*
X272173Y217500D02*
D03*
X268827D02*
D03*
X268827Y197000D02*
D03*
X272173D02*
D03*
X298827Y222500D02*
D03*
X302173D02*
D03*
X289327Y208260D02*
D03*
X292673D02*
D03*
X289327Y202354D02*
D03*
X292673D02*
D03*
X303327Y217000D02*
D03*
X306673D02*
D03*
X292500Y231500D02*
D03*
X289154D02*
D03*
X292673Y196646D02*
D03*
X289327D02*
D03*
X292673Y191000D02*
D03*
X289327D02*
D03*
X310846Y222500D02*
D03*
X307500D02*
D03*
X331173Y217500D02*
D03*
X327827D02*
D03*
X327827Y197000D02*
D03*
X331173D02*
D03*
X357827Y222500D02*
D03*
X361173D02*
D03*
X348327Y208260D02*
D03*
X351673D02*
D03*
X348327Y202354D02*
D03*
X351673D02*
D03*
X362327Y217000D02*
D03*
X365673D02*
D03*
X351500Y231500D02*
D03*
X348153D02*
D03*
X351673Y196646D02*
D03*
X348327D02*
D03*
X351673Y191000D02*
D03*
X348327D02*
D03*
X369847Y222500D02*
D03*
X366500D02*
D03*
X390173Y217500D02*
D03*
X386827D02*
D03*
X386827Y197000D02*
D03*
X390173D02*
D03*
X180827Y306282D02*
D03*
X184173D02*
D03*
X171327Y292042D02*
D03*
X174673D02*
D03*
X171327Y286136D02*
D03*
X174673D02*
D03*
X185327Y300782D02*
D03*
X188673D02*
D03*
X174500Y315282D02*
D03*
X171153D02*
D03*
X174673Y280427D02*
D03*
X171327D02*
D03*
X174673Y274782D02*
D03*
X171327D02*
D03*
X192847Y306282D02*
D03*
X189500D02*
D03*
X213173Y301282D02*
D03*
X209827D02*
D03*
X209827Y280782D02*
D03*
X213173D02*
D03*
X239827Y306282D02*
D03*
X243173D02*
D03*
X230327Y292042D02*
D03*
X233673D02*
D03*
X230327Y286136D02*
D03*
X233673D02*
D03*
X244327Y300782D02*
D03*
X247673D02*
D03*
X233500Y315282D02*
D03*
X230153D02*
D03*
X233673Y280427D02*
D03*
X230327D02*
D03*
X233673Y274782D02*
D03*
X230327D02*
D03*
X251847Y306282D02*
D03*
X248500D02*
D03*
X272173Y301282D02*
D03*
X268827D02*
D03*
X268827Y280782D02*
D03*
X272173D02*
D03*
X298827Y306282D02*
D03*
X302173D02*
D03*
X289327Y292042D02*
D03*
X292673D02*
D03*
X289327Y286136D02*
D03*
X292673D02*
D03*
X303327Y300782D02*
D03*
X306673D02*
D03*
X292500Y315282D02*
D03*
X289154D02*
D03*
X292673Y280427D02*
D03*
X289327D02*
D03*
X292673Y274782D02*
D03*
X289327D02*
D03*
X310846Y306282D02*
D03*
X307500D02*
D03*
X331173Y301282D02*
D03*
X327827D02*
D03*
X327827Y280782D02*
D03*
X331173D02*
D03*
X357827Y306282D02*
D03*
X361173D02*
D03*
X348327Y292042D02*
D03*
X351673D02*
D03*
X348327Y286136D02*
D03*
X351673D02*
D03*
X362327Y300782D02*
D03*
X365673D02*
D03*
X351500Y315282D02*
D03*
X348153D02*
D03*
X351673Y280427D02*
D03*
X348327D02*
D03*
X351673Y274782D02*
D03*
X348327D02*
D03*
X369847Y306282D02*
D03*
X366500D02*
D03*
X390173Y301282D02*
D03*
X386827D02*
D03*
X386827Y280782D02*
D03*
X390173D02*
D03*
X180827Y390064D02*
D03*
X184173D02*
D03*
X171327Y375823D02*
D03*
X174673D02*
D03*
X171327Y369918D02*
D03*
X174673D02*
D03*
X185327Y384563D02*
D03*
X188673D02*
D03*
X174500Y399063D02*
D03*
X171153D02*
D03*
X174673Y364209D02*
D03*
X171327D02*
D03*
X174673Y358563D02*
D03*
X171327D02*
D03*
X192847Y390064D02*
D03*
X189500D02*
D03*
X213173Y385064D02*
D03*
X209827D02*
D03*
X209827Y364563D02*
D03*
X213173D02*
D03*
X239827Y390064D02*
D03*
X243173D02*
D03*
X230327Y375823D02*
D03*
X233673D02*
D03*
X230327Y369918D02*
D03*
X233673D02*
D03*
X244327Y384563D02*
D03*
X247673D02*
D03*
X233500Y399063D02*
D03*
X230153D02*
D03*
X233673Y364209D02*
D03*
X230327D02*
D03*
X233673Y358563D02*
D03*
X230327D02*
D03*
X251847Y390064D02*
D03*
X248500D02*
D03*
X272173Y385064D02*
D03*
X268827D02*
D03*
X268827Y364563D02*
D03*
X272173D02*
D03*
X298827Y390064D02*
D03*
X302173D02*
D03*
X289327Y375823D02*
D03*
X292673D02*
D03*
X289327Y369918D02*
D03*
X292673D02*
D03*
X303327Y384563D02*
D03*
X306673D02*
D03*
X292500Y399063D02*
D03*
X289154D02*
D03*
X292673Y364209D02*
D03*
X289327D02*
D03*
X292673Y358563D02*
D03*
X289327D02*
D03*
X310846Y390064D02*
D03*
X307500D02*
D03*
X331173Y385064D02*
D03*
X327827D02*
D03*
X327827Y364563D02*
D03*
X331173D02*
D03*
X357827Y390064D02*
D03*
X361173D02*
D03*
X348327Y375823D02*
D03*
X351673D02*
D03*
X348327Y369918D02*
D03*
X351673D02*
D03*
X362327Y384563D02*
D03*
X365673D02*
D03*
X351500Y399063D02*
D03*
X348153D02*
D03*
X351673Y364209D02*
D03*
X348327D02*
D03*
X351673Y358563D02*
D03*
X348327D02*
D03*
X369847Y390064D02*
D03*
X366500D02*
D03*
X390173Y385064D02*
D03*
X386827D02*
D03*
X386827Y364563D02*
D03*
X390173D02*
D03*
D42*
X186750Y204300D02*
D03*
X245750D02*
D03*
X304750D02*
D03*
X363750D02*
D03*
X186750Y288082D02*
D03*
X245750D02*
D03*
X304750D02*
D03*
X363750D02*
D03*
X186750Y371864D02*
D03*
X245750D02*
D03*
X304750D02*
D03*
X363750D02*
D03*
D43*
X179073Y200363D02*
D03*
Y202331D02*
D03*
Y204300D02*
D03*
Y206269D02*
D03*
Y208237D02*
D03*
X194427D02*
D03*
Y206269D02*
D03*
Y204300D02*
D03*
Y202331D02*
D03*
Y200363D02*
D03*
X238073D02*
D03*
Y202331D02*
D03*
Y204300D02*
D03*
Y206269D02*
D03*
Y208237D02*
D03*
X253427D02*
D03*
Y206269D02*
D03*
Y204300D02*
D03*
Y202331D02*
D03*
Y200363D02*
D03*
X297073D02*
D03*
Y202331D02*
D03*
Y204300D02*
D03*
Y206269D02*
D03*
Y208237D02*
D03*
X312427D02*
D03*
Y206269D02*
D03*
Y204300D02*
D03*
Y202331D02*
D03*
Y200363D02*
D03*
X356073D02*
D03*
Y202331D02*
D03*
Y204300D02*
D03*
Y206269D02*
D03*
Y208237D02*
D03*
X371427D02*
D03*
Y206269D02*
D03*
Y204300D02*
D03*
Y202331D02*
D03*
Y200363D02*
D03*
X179073Y284145D02*
D03*
Y286113D02*
D03*
Y288082D02*
D03*
Y290050D02*
D03*
Y292019D02*
D03*
X194427D02*
D03*
Y290050D02*
D03*
Y288082D02*
D03*
Y286113D02*
D03*
Y284145D02*
D03*
X238073D02*
D03*
Y286113D02*
D03*
Y288082D02*
D03*
Y290050D02*
D03*
Y292019D02*
D03*
X253427D02*
D03*
Y290050D02*
D03*
Y288082D02*
D03*
Y286113D02*
D03*
Y284145D02*
D03*
X297073D02*
D03*
Y286113D02*
D03*
Y288082D02*
D03*
Y290050D02*
D03*
Y292019D02*
D03*
X312427D02*
D03*
Y290050D02*
D03*
Y288082D02*
D03*
Y286113D02*
D03*
Y284145D02*
D03*
X356073D02*
D03*
Y286113D02*
D03*
Y288082D02*
D03*
Y290050D02*
D03*
Y292019D02*
D03*
X371427D02*
D03*
Y290050D02*
D03*
Y288082D02*
D03*
Y286113D02*
D03*
Y284145D02*
D03*
X179073Y367927D02*
D03*
Y369895D02*
D03*
Y371864D02*
D03*
Y373832D02*
D03*
Y375800D02*
D03*
X194427D02*
D03*
Y373832D02*
D03*
Y371864D02*
D03*
Y369895D02*
D03*
Y367927D02*
D03*
X238073D02*
D03*
Y369895D02*
D03*
Y371864D02*
D03*
Y373832D02*
D03*
Y375800D02*
D03*
X253427D02*
D03*
Y373832D02*
D03*
Y371864D02*
D03*
Y369895D02*
D03*
Y367927D02*
D03*
X297073D02*
D03*
Y369895D02*
D03*
Y371864D02*
D03*
Y373832D02*
D03*
Y375800D02*
D03*
X312427D02*
D03*
Y373832D02*
D03*
Y371864D02*
D03*
Y369895D02*
D03*
Y367927D02*
D03*
X356073D02*
D03*
Y369895D02*
D03*
Y371864D02*
D03*
Y373832D02*
D03*
Y375800D02*
D03*
X371427D02*
D03*
Y373832D02*
D03*
Y371864D02*
D03*
Y369895D02*
D03*
Y367927D02*
D03*
D44*
X182813Y211977D02*
D03*
X184782D02*
D03*
X186750D02*
D03*
X188718D02*
D03*
X190687D02*
D03*
Y196623D02*
D03*
X188718D02*
D03*
X186750D02*
D03*
X184782D02*
D03*
X182813D02*
D03*
X241813Y211977D02*
D03*
X243781D02*
D03*
X245750D02*
D03*
X247719D02*
D03*
X249687D02*
D03*
Y196623D02*
D03*
X247719D02*
D03*
X245750D02*
D03*
X243781D02*
D03*
X241813D02*
D03*
X300813Y211977D02*
D03*
X302782D02*
D03*
X304750D02*
D03*
X306718D02*
D03*
X308687D02*
D03*
Y196623D02*
D03*
X306718D02*
D03*
X304750D02*
D03*
X302782D02*
D03*
X300813D02*
D03*
X359813Y211977D02*
D03*
X361782D02*
D03*
X363750D02*
D03*
X365719D02*
D03*
X367687D02*
D03*
Y196623D02*
D03*
X365719D02*
D03*
X363750D02*
D03*
X361782D02*
D03*
X359813D02*
D03*
X182813Y295759D02*
D03*
X184782D02*
D03*
X186750D02*
D03*
X188718D02*
D03*
X190687D02*
D03*
Y280405D02*
D03*
X188718D02*
D03*
X186750D02*
D03*
X184782D02*
D03*
X182813D02*
D03*
X241813Y295759D02*
D03*
X243781D02*
D03*
X245750D02*
D03*
X247719D02*
D03*
X249687D02*
D03*
Y280405D02*
D03*
X247719D02*
D03*
X245750D02*
D03*
X243781D02*
D03*
X241813D02*
D03*
X300813Y295759D02*
D03*
X302782D02*
D03*
X304750D02*
D03*
X306718D02*
D03*
X308687D02*
D03*
Y280405D02*
D03*
X306718D02*
D03*
X304750D02*
D03*
X302782D02*
D03*
X300813D02*
D03*
X359813Y295759D02*
D03*
X361782D02*
D03*
X363750D02*
D03*
X365719D02*
D03*
X367687D02*
D03*
Y280405D02*
D03*
X365719D02*
D03*
X363750D02*
D03*
X361782D02*
D03*
X359813D02*
D03*
X182813Y379541D02*
D03*
X184782D02*
D03*
X186750D02*
D03*
X188718D02*
D03*
X190687D02*
D03*
Y364186D02*
D03*
X188718D02*
D03*
X186750D02*
D03*
X184782D02*
D03*
X182813D02*
D03*
X241813Y379541D02*
D03*
X243781D02*
D03*
X245750D02*
D03*
X247719D02*
D03*
X249687D02*
D03*
Y364186D02*
D03*
X247719D02*
D03*
X245750D02*
D03*
X243781D02*
D03*
X241813D02*
D03*
X300813Y379541D02*
D03*
X302782D02*
D03*
X304750D02*
D03*
X306718D02*
D03*
X308687D02*
D03*
Y364186D02*
D03*
X306718D02*
D03*
X304750D02*
D03*
X302782D02*
D03*
X300813D02*
D03*
X359813Y379541D02*
D03*
X361782D02*
D03*
X363750D02*
D03*
X365719D02*
D03*
X367687D02*
D03*
Y364186D02*
D03*
X365719D02*
D03*
X363750D02*
D03*
X361782D02*
D03*
X359813D02*
D03*
D45*
X180250Y231500D02*
D03*
Y228153D02*
D03*
X200000Y209173D02*
D03*
Y205827D02*
D03*
X186219Y228327D02*
D03*
Y231673D02*
D03*
X192000Y228327D02*
D03*
Y231673D02*
D03*
X239250Y231500D02*
D03*
Y228153D02*
D03*
X259000Y209173D02*
D03*
Y205827D02*
D03*
X245218Y228327D02*
D03*
Y231673D02*
D03*
X251000Y228327D02*
D03*
Y231673D02*
D03*
X298250Y231500D02*
D03*
Y228153D02*
D03*
X318000Y209173D02*
D03*
Y205827D02*
D03*
X304219Y228327D02*
D03*
Y231673D02*
D03*
X310000Y228327D02*
D03*
Y231673D02*
D03*
X357250Y231500D02*
D03*
Y228153D02*
D03*
X377000Y209173D02*
D03*
Y205827D02*
D03*
X363218Y228327D02*
D03*
Y231673D02*
D03*
X369000Y228327D02*
D03*
Y231673D02*
D03*
X180250Y315282D02*
D03*
Y311935D02*
D03*
X200000Y292955D02*
D03*
Y289609D02*
D03*
X186219Y312108D02*
D03*
Y315455D02*
D03*
X192000Y312108D02*
D03*
Y315455D02*
D03*
X239250Y315282D02*
D03*
Y311935D02*
D03*
X259000Y292955D02*
D03*
Y289609D02*
D03*
X245218Y312108D02*
D03*
Y315455D02*
D03*
X251000Y312108D02*
D03*
Y315455D02*
D03*
X298250Y315282D02*
D03*
Y311935D02*
D03*
X318000Y292955D02*
D03*
Y289609D02*
D03*
X304219Y312108D02*
D03*
Y315455D02*
D03*
X310000Y312108D02*
D03*
Y315455D02*
D03*
X357250Y315282D02*
D03*
Y311935D02*
D03*
X377000Y292955D02*
D03*
Y289609D02*
D03*
X363218Y312108D02*
D03*
Y315455D02*
D03*
X369000Y312108D02*
D03*
Y315455D02*
D03*
X180250Y399063D02*
D03*
Y395717D02*
D03*
X200000Y376737D02*
D03*
Y373390D02*
D03*
X186219Y395890D02*
D03*
Y399237D02*
D03*
X192000Y395890D02*
D03*
Y399237D02*
D03*
X239250Y399063D02*
D03*
Y395717D02*
D03*
X259000Y376737D02*
D03*
Y373390D02*
D03*
X245218Y395890D02*
D03*
Y399237D02*
D03*
X251000Y395890D02*
D03*
Y399237D02*
D03*
X298250Y399063D02*
D03*
Y395717D02*
D03*
X318000Y376737D02*
D03*
Y373390D02*
D03*
X304219Y395890D02*
D03*
Y399237D02*
D03*
X310000Y395890D02*
D03*
Y399237D02*
D03*
X357250Y399063D02*
D03*
Y395717D02*
D03*
X377000Y376737D02*
D03*
Y373390D02*
D03*
X363218Y395890D02*
D03*
Y399237D02*
D03*
X369000Y395890D02*
D03*
Y399237D02*
D03*
D46*
X215988Y204201D02*
D03*
X207327Y210500D02*
D03*
Y204201D02*
D03*
X215988Y210500D02*
D03*
X274988Y204201D02*
D03*
X266327Y210500D02*
D03*
Y204201D02*
D03*
X274988Y210500D02*
D03*
X333988Y204201D02*
D03*
X325327Y210500D02*
D03*
Y204201D02*
D03*
X333988Y210500D02*
D03*
X392988Y204201D02*
D03*
X384327Y210500D02*
D03*
Y204201D02*
D03*
X392988Y210500D02*
D03*
X215988Y287983D02*
D03*
X207327Y294282D02*
D03*
Y287983D02*
D03*
X215988Y294282D02*
D03*
X274988Y287983D02*
D03*
X266327Y294282D02*
D03*
Y287983D02*
D03*
X274988Y294282D02*
D03*
X333988Y287983D02*
D03*
X325327Y294282D02*
D03*
Y287983D02*
D03*
X333988Y294282D02*
D03*
X392988Y287983D02*
D03*
X384327Y294282D02*
D03*
Y287983D02*
D03*
X392988Y294282D02*
D03*
X215988Y371764D02*
D03*
X207327Y378064D02*
D03*
Y371764D02*
D03*
X215988Y378064D02*
D03*
X274988Y371764D02*
D03*
X266327Y378064D02*
D03*
Y371764D02*
D03*
X274988Y378064D02*
D03*
X333988Y371764D02*
D03*
X325327Y378064D02*
D03*
Y371764D02*
D03*
X333988Y378064D02*
D03*
X392988Y371764D02*
D03*
X384327Y378064D02*
D03*
Y371764D02*
D03*
X392988Y378064D02*
D03*
D47*
X182150Y178300D02*
D03*
Y188300D02*
D03*
X192150Y178300D02*
D03*
Y188300D02*
D03*
X202150Y178300D02*
D03*
Y188300D02*
D03*
X212150Y178300D02*
D03*
X241150D02*
D03*
Y188300D02*
D03*
X251150Y178300D02*
D03*
Y188300D02*
D03*
X261150Y178300D02*
D03*
Y188300D02*
D03*
X271150Y178300D02*
D03*
X300150D02*
D03*
Y188300D02*
D03*
X310150Y178300D02*
D03*
Y188300D02*
D03*
X320150Y178300D02*
D03*
Y188300D02*
D03*
X330150Y178300D02*
D03*
X359150D02*
D03*
Y188300D02*
D03*
X369150Y178300D02*
D03*
Y188300D02*
D03*
X379150Y178300D02*
D03*
Y188300D02*
D03*
X389150Y178300D02*
D03*
X182150Y262082D02*
D03*
Y272082D02*
D03*
X192150Y262082D02*
D03*
Y272082D02*
D03*
X202150Y262082D02*
D03*
Y272082D02*
D03*
X212150Y262082D02*
D03*
X241150D02*
D03*
Y272082D02*
D03*
X251150Y262082D02*
D03*
Y272082D02*
D03*
X261150Y262082D02*
D03*
Y272082D02*
D03*
X271150Y262082D02*
D03*
X300150D02*
D03*
Y272082D02*
D03*
X310150Y262082D02*
D03*
Y272082D02*
D03*
X320150Y262082D02*
D03*
Y272082D02*
D03*
X330150Y262082D02*
D03*
X359150D02*
D03*
Y272082D02*
D03*
X369150Y262082D02*
D03*
Y272082D02*
D03*
X379150Y262082D02*
D03*
Y272082D02*
D03*
X389150Y262082D02*
D03*
X182150Y345864D02*
D03*
Y355863D02*
D03*
X192150Y345864D02*
D03*
Y355863D02*
D03*
X202150Y345864D02*
D03*
Y355863D02*
D03*
X212150Y345864D02*
D03*
X241150D02*
D03*
Y355863D02*
D03*
X251150Y345864D02*
D03*
Y355863D02*
D03*
X261150Y345864D02*
D03*
Y355863D02*
D03*
X271150Y345864D02*
D03*
X300150D02*
D03*
Y355863D02*
D03*
X310150Y345864D02*
D03*
Y355863D02*
D03*
X320150Y345864D02*
D03*
Y355863D02*
D03*
X330150Y345864D02*
D03*
X359150D02*
D03*
Y355863D02*
D03*
X369150Y345864D02*
D03*
Y355863D02*
D03*
X379150Y345864D02*
D03*
Y355863D02*
D03*
X389150Y345864D02*
D03*
D48*
X212150Y188300D02*
D03*
X271150D02*
D03*
X330150D02*
D03*
X389150D02*
D03*
X212150Y272082D02*
D03*
X271150D02*
D03*
X330150D02*
D03*
X389150D02*
D03*
X212150Y355863D02*
D03*
X271150D02*
D03*
X330150D02*
D03*
X389150D02*
D03*
D49*
X186750Y204300D02*
D03*
X188550Y202600D02*
D03*
Y205950D02*
D03*
X184900D02*
D03*
X185000Y202600D02*
D03*
X225113Y240850D02*
D03*
X222113D02*
D03*
X219113D02*
D03*
X216113D02*
D03*
X213113D02*
D03*
X174813Y237850D02*
D03*
X207563Y246000D02*
D03*
X174813Y240850D02*
D03*
X186113Y237850D02*
D03*
Y240850D02*
D03*
X189113D02*
D03*
X192113D02*
D03*
X195113D02*
D03*
X198113D02*
D03*
X201113D02*
D03*
X204113D02*
D03*
X207113D02*
D03*
X210113D02*
D03*
X245750Y204300D02*
D03*
X247550Y202600D02*
D03*
Y205950D02*
D03*
X243900D02*
D03*
X244000Y202600D02*
D03*
X284113Y240850D02*
D03*
X281113D02*
D03*
X278113D02*
D03*
X275113D02*
D03*
X272113D02*
D03*
X233813Y237850D02*
D03*
X266563Y246000D02*
D03*
X233813Y240850D02*
D03*
X245113Y237850D02*
D03*
Y240850D02*
D03*
X248113D02*
D03*
X251113D02*
D03*
X254113D02*
D03*
X257113D02*
D03*
X260113D02*
D03*
X263113D02*
D03*
X266113D02*
D03*
X269113D02*
D03*
X304750Y204300D02*
D03*
X306550Y202600D02*
D03*
Y205950D02*
D03*
X302900D02*
D03*
X303000Y202600D02*
D03*
X343113Y240850D02*
D03*
X340113D02*
D03*
X337113D02*
D03*
X334113D02*
D03*
X331113D02*
D03*
X292813Y237850D02*
D03*
X325563Y246000D02*
D03*
X292813Y240850D02*
D03*
X304113Y237850D02*
D03*
Y240850D02*
D03*
X307113D02*
D03*
X310113D02*
D03*
X313113D02*
D03*
X316113D02*
D03*
X319113D02*
D03*
X322113D02*
D03*
X325113D02*
D03*
X328113D02*
D03*
X363750Y204300D02*
D03*
X365550Y202600D02*
D03*
Y205950D02*
D03*
X361900D02*
D03*
X362000Y202600D02*
D03*
X402113Y240850D02*
D03*
X399113D02*
D03*
X396113D02*
D03*
X393113D02*
D03*
X390113D02*
D03*
X351813Y237850D02*
D03*
X384563Y246000D02*
D03*
X351813Y240850D02*
D03*
X363113Y237850D02*
D03*
Y240850D02*
D03*
X366113D02*
D03*
X369113D02*
D03*
X372113D02*
D03*
X375113D02*
D03*
X378113D02*
D03*
X381113D02*
D03*
X384113D02*
D03*
X387113D02*
D03*
X186750Y288082D02*
D03*
X188550Y286382D02*
D03*
Y289732D02*
D03*
X184900D02*
D03*
X185000Y286382D02*
D03*
X225113Y324632D02*
D03*
X222113D02*
D03*
X219113D02*
D03*
X216113D02*
D03*
X213113D02*
D03*
X174813Y321632D02*
D03*
X207563Y329782D02*
D03*
X174813Y324632D02*
D03*
X186113Y321632D02*
D03*
Y324632D02*
D03*
X189113D02*
D03*
X192113D02*
D03*
X195113D02*
D03*
X198113D02*
D03*
X201113D02*
D03*
X204113D02*
D03*
X207113D02*
D03*
X210113D02*
D03*
X245750Y288082D02*
D03*
X247550Y286382D02*
D03*
Y289732D02*
D03*
X243900D02*
D03*
X244000Y286382D02*
D03*
X284113Y324632D02*
D03*
X281113D02*
D03*
X278113D02*
D03*
X275113D02*
D03*
X272113D02*
D03*
X233813Y321632D02*
D03*
X266563Y329782D02*
D03*
X233813Y324632D02*
D03*
X245113Y321632D02*
D03*
Y324632D02*
D03*
X248113D02*
D03*
X251113D02*
D03*
X254113D02*
D03*
X257113D02*
D03*
X260113D02*
D03*
X263113D02*
D03*
X266113D02*
D03*
X269113D02*
D03*
X304750Y288082D02*
D03*
X306550Y286382D02*
D03*
Y289732D02*
D03*
X302900D02*
D03*
X303000Y286382D02*
D03*
X343113Y324632D02*
D03*
X340113D02*
D03*
X337113D02*
D03*
X334113D02*
D03*
X331113D02*
D03*
X292813Y321632D02*
D03*
X325563Y329782D02*
D03*
X292813Y324632D02*
D03*
X304113Y321632D02*
D03*
Y324632D02*
D03*
X307113D02*
D03*
X310113D02*
D03*
X313113D02*
D03*
X316113D02*
D03*
X319113D02*
D03*
X322113D02*
D03*
X325113D02*
D03*
X328113D02*
D03*
X363750Y288082D02*
D03*
X365550Y286382D02*
D03*
Y289732D02*
D03*
X361900D02*
D03*
X362000Y286382D02*
D03*
X402113Y324632D02*
D03*
X399113D02*
D03*
X396113D02*
D03*
X393113D02*
D03*
X390113D02*
D03*
X351813Y321632D02*
D03*
X384563Y329782D02*
D03*
X351813Y324632D02*
D03*
X363113Y321632D02*
D03*
Y324632D02*
D03*
X366113D02*
D03*
X369113D02*
D03*
X372113D02*
D03*
X375113D02*
D03*
X378113D02*
D03*
X381113D02*
D03*
X384113D02*
D03*
X387113D02*
D03*
X186750Y371864D02*
D03*
X188550Y370163D02*
D03*
Y373514D02*
D03*
X184900D02*
D03*
X185000Y370163D02*
D03*
X225113Y408414D02*
D03*
X222113D02*
D03*
X219113D02*
D03*
X216113D02*
D03*
X213113D02*
D03*
X174813Y405413D02*
D03*
X207563Y413563D02*
D03*
X174813Y408414D02*
D03*
X186113Y405413D02*
D03*
Y408414D02*
D03*
X189113D02*
D03*
X192113D02*
D03*
X195113D02*
D03*
X198113D02*
D03*
X201113D02*
D03*
X204113D02*
D03*
X207113D02*
D03*
X210113D02*
D03*
X245750Y371864D02*
D03*
X247550Y370163D02*
D03*
Y373514D02*
D03*
X243900D02*
D03*
X244000Y370163D02*
D03*
X284113Y408414D02*
D03*
X281113D02*
D03*
X278113D02*
D03*
X275113D02*
D03*
X272113D02*
D03*
X233813Y405413D02*
D03*
X266563Y413563D02*
D03*
X233813Y408414D02*
D03*
X245113Y405413D02*
D03*
Y408414D02*
D03*
X248113D02*
D03*
X251113D02*
D03*
X254113D02*
D03*
X257113D02*
D03*
X260113D02*
D03*
X263113D02*
D03*
X266113D02*
D03*
X269113D02*
D03*
X304750Y371864D02*
D03*
X306550Y370163D02*
D03*
Y373514D02*
D03*
X302900D02*
D03*
X303000Y370163D02*
D03*
X343113Y408414D02*
D03*
X340113D02*
D03*
X337113D02*
D03*
X334113D02*
D03*
X331113D02*
D03*
X292813Y405413D02*
D03*
X325563Y413563D02*
D03*
X292813Y408414D02*
D03*
X304113Y405413D02*
D03*
Y408414D02*
D03*
X307113D02*
D03*
X310113D02*
D03*
X313113D02*
D03*
X316113D02*
D03*
X319113D02*
D03*
X322113D02*
D03*
X325113D02*
D03*
X328113D02*
D03*
X363750Y371864D02*
D03*
X365550Y370163D02*
D03*
Y373514D02*
D03*
X361900D02*
D03*
X362000Y370163D02*
D03*
X402113Y408414D02*
D03*
X399113D02*
D03*
X396113D02*
D03*
X393113D02*
D03*
X390113D02*
D03*
X351813Y405413D02*
D03*
X384563Y413563D02*
D03*
X351813Y408414D02*
D03*
X363113Y405413D02*
D03*
Y408414D02*
D03*
X366113D02*
D03*
X369113D02*
D03*
X372113D02*
D03*
X375113D02*
D03*
X378113D02*
D03*
X381113D02*
D03*
X384113D02*
D03*
X387113D02*
D03*
M02*
