G04*
G04 #@! TF.GenerationSoftware,Altium Limited,Altium Designer,18.1.7 (191)*
G04*
G04 Layer_Color=16711935*
%FSLAX25Y25*%
%MOIN*%
G70*
G01*
G75*
%ADD50C,0.00100*%
D50*
X168000Y173000D02*
Y271500D01*
X227000Y173000D02*
Y271500D01*
X168000Y173000D02*
X227000D01*
X168000Y271500D02*
X227000D01*
Y173000D02*
Y271500D01*
X286000Y173000D02*
Y271500D01*
X227000Y173000D02*
X286000D01*
X227000Y271500D02*
X286000D01*
Y173000D02*
Y271500D01*
X345000Y173000D02*
Y271500D01*
X286000Y173000D02*
X345000D01*
X286000Y271500D02*
X345000D01*
Y173000D02*
Y271500D01*
X404000Y173000D02*
Y271500D01*
X345000Y173000D02*
X404000D01*
X345000Y271500D02*
X404000D01*
X168000Y256782D02*
Y355282D01*
X227000Y256782D02*
Y355282D01*
X168000Y256782D02*
X227000D01*
X168000Y355282D02*
X227000D01*
Y256782D02*
Y355282D01*
X286000Y256782D02*
Y355282D01*
X227000Y256782D02*
X286000D01*
X227000Y355282D02*
X286000D01*
Y256782D02*
Y355282D01*
X345000Y256782D02*
Y355282D01*
X286000Y256782D02*
X345000D01*
X286000Y355282D02*
X345000D01*
Y256782D02*
Y355282D01*
X404000Y256782D02*
Y355282D01*
X345000Y256782D02*
X404000D01*
X345000Y355282D02*
X404000D01*
X168000Y340564D02*
Y439064D01*
X227000Y340564D02*
Y439064D01*
X168000Y340564D02*
X227000D01*
X168000Y439064D02*
X227000D01*
Y340564D02*
Y439064D01*
X286000Y340564D02*
Y439064D01*
X227000Y340564D02*
X286000D01*
X227000Y439064D02*
X286000D01*
Y340564D02*
Y439064D01*
X345000Y340564D02*
Y439064D01*
X286000Y340564D02*
X345000D01*
X286000Y439064D02*
X345000D01*
Y340564D02*
Y439064D01*
X404000Y340564D02*
Y439064D01*
X345000Y340564D02*
X404000D01*
X345000Y439064D02*
X404000D01*
M02*
