G04*
G04 #@! TF.GenerationSoftware,Altium Limited,Altium Designer,18.1.7 (191)*
G04*
G04 Layer_Color=65535*
%FSLAX25Y25*%
%MOIN*%
G70*
G01*
G75*
%ADD37C,0.00787*%
%ADD38C,0.01181*%
%ADD39C,0.00800*%
D37*
X169161Y200957D02*
X170028Y200091D01*
Y204618D02*
X169161Y203752D01*
X175972Y200091D02*
X176839Y200957D01*
Y203752D02*
X175972Y204618D01*
X178852Y233665D02*
X177986Y232799D01*
X182514D02*
X181648Y233665D01*
X177986Y226854D02*
X178852Y225988D01*
X181648D02*
X182514Y226854D01*
X176665Y232898D02*
X175799Y233764D01*
Y229236D02*
X176665Y230102D01*
X169854Y233764D02*
X168988Y232898D01*
Y230102D02*
X169854Y229236D01*
X176839Y198043D02*
X175972Y198909D01*
Y194382D02*
X176839Y195248D01*
X170028Y198909D02*
X169161Y198043D01*
Y195248D02*
X170028Y194382D01*
X176839Y192398D02*
X175972Y193264D01*
Y188736D02*
X176839Y189602D01*
X170028Y193264D02*
X169161Y192398D01*
Y189602D02*
X170028Y188736D01*
X187616Y226161D02*
X188482Y227028D01*
X183955D02*
X184821Y226161D01*
X188482Y232972D02*
X187616Y233839D01*
X184821D02*
X183955Y232972D01*
X193398Y226161D02*
X194264Y227028D01*
X189736D02*
X190602Y226161D01*
X194264Y232972D02*
X193398Y233839D01*
X190602D02*
X189736Y232972D01*
X215339Y218898D02*
X214472Y219764D01*
Y215236D02*
X215339Y216102D01*
X208528Y219764D02*
X207661Y218898D01*
Y216102D02*
X208528Y215236D01*
X207661Y195602D02*
X208528Y194736D01*
Y199264D02*
X207661Y198398D01*
X214472Y194736D02*
X215339Y195602D01*
Y198398D02*
X214472Y199264D01*
X186339Y220236D02*
Y224764D01*
X178661D02*
X186339D01*
X178661Y220236D02*
Y224764D01*
Y220236D02*
X186339D01*
X177150Y193300D02*
X217150D01*
X177150Y173300D02*
X217150D01*
Y193300D01*
X177150Y173300D02*
Y193300D01*
X176839Y205996D02*
Y210524D01*
X169161Y205996D02*
Y210524D01*
X174181Y205996D02*
X176839D01*
X169161D02*
X171819D01*
X174181Y210524D02*
X176839D01*
X169161D02*
X171819D01*
X169161Y200957D02*
Y203752D01*
X170047Y200091D02*
X171819D01*
X170047Y204618D02*
X171819D01*
X174181Y200091D02*
X175953D01*
X174181Y204618D02*
X175953D01*
X176839Y200957D02*
Y203752D01*
X195215Y195835D02*
Y198296D01*
X192754Y195835D02*
X195215D01*
Y210304D02*
Y212765D01*
X192754D02*
X195215D01*
X178285D02*
X180746D01*
X178285Y210304D02*
Y212765D01*
Y195835D02*
Y198296D01*
Y195835D02*
X180746D01*
X178852Y233665D02*
X181648D01*
X177986Y231008D02*
Y232780D01*
X182514Y231008D02*
Y232780D01*
X177986Y226874D02*
Y228646D01*
X182514Y226874D02*
Y228646D01*
X178852Y225988D02*
X181648D01*
X190839Y214736D02*
Y219264D01*
X183161D02*
X190839D01*
X183161Y214736D02*
Y219264D01*
Y214736D02*
X190839D01*
X176665Y230102D02*
Y232898D01*
X174008Y233764D02*
X175779D01*
X174008Y229236D02*
X175779D01*
X169874Y233764D02*
X171646D01*
X169874Y229236D02*
X171646D01*
X168988Y230102D02*
Y232898D01*
X176839Y195248D02*
Y198043D01*
X174181Y198909D02*
X175953D01*
X174181Y194382D02*
X175953D01*
X170047Y198909D02*
X171819D01*
X170047Y194382D02*
X171819D01*
X169161Y195248D02*
Y198043D01*
X176839Y189602D02*
Y192398D01*
X174181Y193264D02*
X175953D01*
X174181Y188736D02*
X175953D01*
X170047Y193264D02*
X171819D01*
X170047Y188736D02*
X171819D01*
X169161Y189602D02*
Y192398D01*
X187335Y220236D02*
Y224764D01*
Y220236D02*
X195012D01*
Y224764D01*
X187335D02*
X195012D01*
X197736Y203661D02*
X202264D01*
X197736Y211339D02*
X202264D01*
X197736Y203661D02*
Y206319D01*
Y208681D02*
Y211339D01*
X202264Y203661D02*
Y206319D01*
Y208681D02*
Y211339D01*
X184821Y226161D02*
X187616D01*
X188482Y227047D02*
Y228819D01*
X183955Y227047D02*
Y228819D01*
X188482Y231181D02*
Y232953D01*
X183955Y231181D02*
Y232953D01*
X184821Y233839D02*
X187616D01*
X190602Y226161D02*
X193398D01*
X194264Y227047D02*
Y228819D01*
X189736Y227047D02*
Y228819D01*
X194264Y231181D02*
Y232953D01*
X189736Y231181D02*
Y232953D01*
X190602Y233839D02*
X193398D01*
X215339Y216102D02*
Y218898D01*
X212681Y219764D02*
X214453D01*
X212681Y215236D02*
X214453D01*
X208547Y219764D02*
X210319D01*
X208547Y215236D02*
X210319D01*
X207661Y216102D02*
Y218898D01*
X207661Y195602D02*
Y198398D01*
X208547Y194736D02*
X210319D01*
X208547Y199264D02*
X210319D01*
X212681Y194736D02*
X214453D01*
X212681Y199264D02*
X214453D01*
X215339Y195602D02*
Y198398D01*
X228161Y200957D02*
X229028Y200091D01*
Y204618D02*
X228161Y203752D01*
X234972Y200091D02*
X235839Y200957D01*
Y203752D02*
X234972Y204618D01*
X237852Y233665D02*
X236986Y232799D01*
X241514D02*
X240648Y233665D01*
X236986Y226854D02*
X237852Y225988D01*
X240648D02*
X241514Y226854D01*
X235665Y232898D02*
X234799Y233764D01*
Y229236D02*
X235665Y230102D01*
X228854Y233764D02*
X227988Y232898D01*
Y230102D02*
X228854Y229236D01*
X235839Y198043D02*
X234972Y198909D01*
Y194382D02*
X235839Y195248D01*
X229028Y198909D02*
X228161Y198043D01*
Y195248D02*
X229028Y194382D01*
X235839Y192398D02*
X234972Y193264D01*
Y188736D02*
X235839Y189602D01*
X229028Y193264D02*
X228161Y192398D01*
Y189602D02*
X229028Y188736D01*
X246616Y226161D02*
X247482Y227028D01*
X242955D02*
X243821Y226161D01*
X247482Y232972D02*
X246616Y233839D01*
X243821D02*
X242955Y232972D01*
X252398Y226161D02*
X253264Y227028D01*
X248736D02*
X249602Y226161D01*
X253264Y232972D02*
X252398Y233839D01*
X249602D02*
X248736Y232972D01*
X274339Y218898D02*
X273472Y219764D01*
Y215236D02*
X274339Y216102D01*
X267528Y219764D02*
X266661Y218898D01*
Y216102D02*
X267528Y215236D01*
X266661Y195602D02*
X267528Y194736D01*
Y199264D02*
X266661Y198398D01*
X273472Y194736D02*
X274339Y195602D01*
Y198398D02*
X273472Y199264D01*
X245339Y220236D02*
Y224764D01*
X237661D02*
X245339D01*
X237661Y220236D02*
Y224764D01*
Y220236D02*
X245339D01*
X236150Y193300D02*
X276150D01*
X236150Y173300D02*
X276150D01*
Y193300D01*
X236150Y173300D02*
Y193300D01*
X235839Y205996D02*
Y210524D01*
X228161Y205996D02*
Y210524D01*
X233181Y205996D02*
X235839D01*
X228161D02*
X230819D01*
X233181Y210524D02*
X235839D01*
X228161D02*
X230819D01*
X228161Y200957D02*
Y203752D01*
X229047Y200091D02*
X230819D01*
X229047Y204618D02*
X230819D01*
X233181Y200091D02*
X234953D01*
X233181Y204618D02*
X234953D01*
X235839Y200957D02*
Y203752D01*
X254215Y195835D02*
Y198296D01*
X251754Y195835D02*
X254215D01*
Y210304D02*
Y212765D01*
X251754D02*
X254215D01*
X237285D02*
X239746D01*
X237285Y210304D02*
Y212765D01*
Y195835D02*
Y198296D01*
Y195835D02*
X239746D01*
X237852Y233665D02*
X240648D01*
X236986Y231008D02*
Y232780D01*
X241514Y231008D02*
Y232780D01*
X236986Y226874D02*
Y228646D01*
X241514Y226874D02*
Y228646D01*
X237852Y225988D02*
X240648D01*
X249839Y214736D02*
Y219264D01*
X242161D02*
X249839D01*
X242161Y214736D02*
Y219264D01*
Y214736D02*
X249839D01*
X235665Y230102D02*
Y232898D01*
X233008Y233764D02*
X234780D01*
X233008Y229236D02*
X234780D01*
X228874Y233764D02*
X230646D01*
X228874Y229236D02*
X230646D01*
X227988Y230102D02*
Y232898D01*
X235839Y195248D02*
Y198043D01*
X233181Y198909D02*
X234953D01*
X233181Y194382D02*
X234953D01*
X229047Y198909D02*
X230819D01*
X229047Y194382D02*
X230819D01*
X228161Y195248D02*
Y198043D01*
X235839Y189602D02*
Y192398D01*
X233181Y193264D02*
X234953D01*
X233181Y188736D02*
X234953D01*
X229047Y193264D02*
X230819D01*
X229047Y188736D02*
X230819D01*
X228161Y189602D02*
Y192398D01*
X246335Y220236D02*
Y224764D01*
Y220236D02*
X254012D01*
Y224764D01*
X246335D02*
X254012D01*
X256736Y203661D02*
X261264D01*
X256736Y211339D02*
X261264D01*
X256736Y203661D02*
Y206319D01*
Y208681D02*
Y211339D01*
X261264Y203661D02*
Y206319D01*
Y208681D02*
Y211339D01*
X243821Y226161D02*
X246616D01*
X247482Y227047D02*
Y228819D01*
X242955Y227047D02*
Y228819D01*
X247482Y231181D02*
Y232953D01*
X242955Y231181D02*
Y232953D01*
X243821Y233839D02*
X246616D01*
X249602Y226161D02*
X252398D01*
X253264Y227047D02*
Y228819D01*
X248736Y227047D02*
Y228819D01*
X253264Y231181D02*
Y232953D01*
X248736Y231181D02*
Y232953D01*
X249602Y233839D02*
X252398D01*
X274339Y216102D02*
Y218898D01*
X271681Y219764D02*
X273453D01*
X271681Y215236D02*
X273453D01*
X267547Y219764D02*
X269319D01*
X267547Y215236D02*
X269319D01*
X266661Y216102D02*
Y218898D01*
X266661Y195602D02*
Y198398D01*
X267547Y194736D02*
X269319D01*
X267547Y199264D02*
X269319D01*
X271681Y194736D02*
X273453D01*
X271681Y199264D02*
X273453D01*
X274339Y195602D02*
Y198398D01*
X287161Y200957D02*
X288028Y200091D01*
Y204618D02*
X287161Y203752D01*
X293972Y200091D02*
X294839Y200957D01*
Y203752D02*
X293972Y204618D01*
X296852Y233665D02*
X295986Y232799D01*
X300514D02*
X299648Y233665D01*
X295986Y226854D02*
X296852Y225988D01*
X299648D02*
X300514Y226854D01*
X294665Y232898D02*
X293799Y233764D01*
Y229236D02*
X294665Y230102D01*
X287854Y233764D02*
X286988Y232898D01*
Y230102D02*
X287854Y229236D01*
X294839Y198043D02*
X293972Y198909D01*
Y194382D02*
X294839Y195248D01*
X288028Y198909D02*
X287161Y198043D01*
Y195248D02*
X288028Y194382D01*
X294839Y192398D02*
X293972Y193264D01*
Y188736D02*
X294839Y189602D01*
X288028Y193264D02*
X287161Y192398D01*
Y189602D02*
X288028Y188736D01*
X305616Y226161D02*
X306482Y227028D01*
X301955D02*
X302821Y226161D01*
X306482Y232972D02*
X305616Y233839D01*
X302821D02*
X301955Y232972D01*
X311398Y226161D02*
X312264Y227028D01*
X307736D02*
X308602Y226161D01*
X312264Y232972D02*
X311398Y233839D01*
X308602D02*
X307736Y232972D01*
X333339Y218898D02*
X332472Y219764D01*
Y215236D02*
X333339Y216102D01*
X326528Y219764D02*
X325661Y218898D01*
Y216102D02*
X326528Y215236D01*
X325661Y195602D02*
X326528Y194736D01*
Y199264D02*
X325661Y198398D01*
X332472Y194736D02*
X333339Y195602D01*
Y198398D02*
X332472Y199264D01*
X304339Y220236D02*
Y224764D01*
X296661D02*
X304339D01*
X296661Y220236D02*
Y224764D01*
Y220236D02*
X304339D01*
X295150Y193300D02*
X335150D01*
X295150Y173300D02*
X335150D01*
Y193300D01*
X295150Y173300D02*
Y193300D01*
X294839Y205996D02*
Y210524D01*
X287161Y205996D02*
Y210524D01*
X292181Y205996D02*
X294839D01*
X287161D02*
X289819D01*
X292181Y210524D02*
X294839D01*
X287161D02*
X289819D01*
X287161Y200957D02*
Y203752D01*
X288047Y200091D02*
X289819D01*
X288047Y204618D02*
X289819D01*
X292181Y200091D02*
X293953D01*
X292181Y204618D02*
X293953D01*
X294839Y200957D02*
Y203752D01*
X313215Y195835D02*
Y198296D01*
X310754Y195835D02*
X313215D01*
Y210304D02*
Y212765D01*
X310754D02*
X313215D01*
X296285D02*
X298746D01*
X296285Y210304D02*
Y212765D01*
Y195835D02*
Y198296D01*
Y195835D02*
X298746D01*
X296852Y233665D02*
X299648D01*
X295986Y231008D02*
Y232780D01*
X300514Y231008D02*
Y232780D01*
X295986Y226874D02*
Y228646D01*
X300514Y226874D02*
Y228646D01*
X296852Y225988D02*
X299648D01*
X308839Y214736D02*
Y219264D01*
X301161D02*
X308839D01*
X301161Y214736D02*
Y219264D01*
Y214736D02*
X308839D01*
X294665Y230102D02*
Y232898D01*
X292008Y233764D02*
X293779D01*
X292008Y229236D02*
X293779D01*
X287874Y233764D02*
X289646D01*
X287874Y229236D02*
X289646D01*
X286988Y230102D02*
Y232898D01*
X294839Y195248D02*
Y198043D01*
X292181Y198909D02*
X293953D01*
X292181Y194382D02*
X293953D01*
X288047Y198909D02*
X289819D01*
X288047Y194382D02*
X289819D01*
X287161Y195248D02*
Y198043D01*
X294839Y189602D02*
Y192398D01*
X292181Y193264D02*
X293953D01*
X292181Y188736D02*
X293953D01*
X288047Y193264D02*
X289819D01*
X288047Y188736D02*
X289819D01*
X287161Y189602D02*
Y192398D01*
X305335Y220236D02*
Y224764D01*
Y220236D02*
X313012D01*
Y224764D01*
X305335D02*
X313012D01*
X315736Y203661D02*
X320264D01*
X315736Y211339D02*
X320264D01*
X315736Y203661D02*
Y206319D01*
Y208681D02*
Y211339D01*
X320264Y203661D02*
Y206319D01*
Y208681D02*
Y211339D01*
X302821Y226161D02*
X305616D01*
X306482Y227047D02*
Y228819D01*
X301955Y227047D02*
Y228819D01*
X306482Y231181D02*
Y232953D01*
X301955Y231181D02*
Y232953D01*
X302821Y233839D02*
X305616D01*
X308602Y226161D02*
X311398D01*
X312264Y227047D02*
Y228819D01*
X307736Y227047D02*
Y228819D01*
X312264Y231181D02*
Y232953D01*
X307736Y231181D02*
Y232953D01*
X308602Y233839D02*
X311398D01*
X333339Y216102D02*
Y218898D01*
X330681Y219764D02*
X332453D01*
X330681Y215236D02*
X332453D01*
X326547Y219764D02*
X328319D01*
X326547Y215236D02*
X328319D01*
X325661Y216102D02*
Y218898D01*
X325661Y195602D02*
Y198398D01*
X326547Y194736D02*
X328319D01*
X326547Y199264D02*
X328319D01*
X330681Y194736D02*
X332453D01*
X330681Y199264D02*
X332453D01*
X333339Y195602D02*
Y198398D01*
X346161Y200957D02*
X347028Y200091D01*
Y204618D02*
X346161Y203752D01*
X352972Y200091D02*
X353839Y200957D01*
Y203752D02*
X352972Y204618D01*
X355852Y233665D02*
X354986Y232799D01*
X359514D02*
X358648Y233665D01*
X354986Y226854D02*
X355852Y225988D01*
X358648D02*
X359514Y226854D01*
X353665Y232898D02*
X352799Y233764D01*
Y229236D02*
X353665Y230102D01*
X346854Y233764D02*
X345988Y232898D01*
Y230102D02*
X346854Y229236D01*
X353839Y198043D02*
X352972Y198909D01*
Y194382D02*
X353839Y195248D01*
X347028Y198909D02*
X346161Y198043D01*
Y195248D02*
X347028Y194382D01*
X353839Y192398D02*
X352972Y193264D01*
Y188736D02*
X353839Y189602D01*
X347028Y193264D02*
X346161Y192398D01*
Y189602D02*
X347028Y188736D01*
X364616Y226161D02*
X365482Y227028D01*
X360955D02*
X361821Y226161D01*
X365482Y232972D02*
X364616Y233839D01*
X361821D02*
X360955Y232972D01*
X370398Y226161D02*
X371264Y227028D01*
X366736D02*
X367602Y226161D01*
X371264Y232972D02*
X370398Y233839D01*
X367602D02*
X366736Y232972D01*
X392339Y218898D02*
X391472Y219764D01*
Y215236D02*
X392339Y216102D01*
X385528Y219764D02*
X384661Y218898D01*
Y216102D02*
X385528Y215236D01*
X384661Y195602D02*
X385528Y194736D01*
Y199264D02*
X384661Y198398D01*
X391472Y194736D02*
X392339Y195602D01*
Y198398D02*
X391472Y199264D01*
X363339Y220236D02*
Y224764D01*
X355661D02*
X363339D01*
X355661Y220236D02*
Y224764D01*
Y220236D02*
X363339D01*
X354150Y193300D02*
X394150D01*
X354150Y173300D02*
X394150D01*
Y193300D01*
X354150Y173300D02*
Y193300D01*
X353839Y205996D02*
Y210524D01*
X346161Y205996D02*
Y210524D01*
X351181Y205996D02*
X353839D01*
X346161D02*
X348819D01*
X351181Y210524D02*
X353839D01*
X346161D02*
X348819D01*
X346161Y200957D02*
Y203752D01*
X347047Y200091D02*
X348819D01*
X347047Y204618D02*
X348819D01*
X351181Y200091D02*
X352953D01*
X351181Y204618D02*
X352953D01*
X353839Y200957D02*
Y203752D01*
X372215Y195835D02*
Y198296D01*
X369754Y195835D02*
X372215D01*
Y210304D02*
Y212765D01*
X369754D02*
X372215D01*
X355285D02*
X357746D01*
X355285Y210304D02*
Y212765D01*
Y195835D02*
Y198296D01*
Y195835D02*
X357746D01*
X355852Y233665D02*
X358648D01*
X354986Y231008D02*
Y232780D01*
X359514Y231008D02*
Y232780D01*
X354986Y226874D02*
Y228646D01*
X359514Y226874D02*
Y228646D01*
X355852Y225988D02*
X358648D01*
X367839Y214736D02*
Y219264D01*
X360161D02*
X367839D01*
X360161Y214736D02*
Y219264D01*
Y214736D02*
X367839D01*
X353665Y230102D02*
Y232898D01*
X351008Y233764D02*
X352780D01*
X351008Y229236D02*
X352780D01*
X346874Y233764D02*
X348646D01*
X346874Y229236D02*
X348646D01*
X345988Y230102D02*
Y232898D01*
X353839Y195248D02*
Y198043D01*
X351181Y198909D02*
X352953D01*
X351181Y194382D02*
X352953D01*
X347047Y198909D02*
X348819D01*
X347047Y194382D02*
X348819D01*
X346161Y195248D02*
Y198043D01*
X353839Y189602D02*
Y192398D01*
X351181Y193264D02*
X352953D01*
X351181Y188736D02*
X352953D01*
X347047Y193264D02*
X348819D01*
X347047Y188736D02*
X348819D01*
X346161Y189602D02*
Y192398D01*
X364335Y220236D02*
Y224764D01*
Y220236D02*
X372012D01*
Y224764D01*
X364335D02*
X372012D01*
X374736Y203661D02*
X379264D01*
X374736Y211339D02*
X379264D01*
X374736Y203661D02*
Y206319D01*
Y208681D02*
Y211339D01*
X379264Y203661D02*
Y206319D01*
Y208681D02*
Y211339D01*
X361821Y226161D02*
X364616D01*
X365482Y227047D02*
Y228819D01*
X360955Y227047D02*
Y228819D01*
X365482Y231181D02*
Y232953D01*
X360955Y231181D02*
Y232953D01*
X361821Y233839D02*
X364616D01*
X367602Y226161D02*
X370398D01*
X371264Y227047D02*
Y228819D01*
X366736Y227047D02*
Y228819D01*
X371264Y231181D02*
Y232953D01*
X366736Y231181D02*
Y232953D01*
X367602Y233839D02*
X370398D01*
X392339Y216102D02*
Y218898D01*
X389681Y219764D02*
X391453D01*
X389681Y215236D02*
X391453D01*
X385547Y219764D02*
X387319D01*
X385547Y215236D02*
X387319D01*
X384661Y216102D02*
Y218898D01*
X384661Y195602D02*
Y198398D01*
X385547Y194736D02*
X387319D01*
X385547Y199264D02*
X387319D01*
X389681Y194736D02*
X391453D01*
X389681Y199264D02*
X391453D01*
X392339Y195602D02*
Y198398D01*
X169161Y284738D02*
X170028Y283872D01*
Y288400D02*
X169161Y287534D01*
X175972Y283872D02*
X176839Y284738D01*
Y287534D02*
X175972Y288400D01*
X178852Y317447D02*
X177986Y316581D01*
X182514D02*
X181648Y317447D01*
X177986Y310636D02*
X178852Y309770D01*
X181648D02*
X182514Y310636D01*
X176665Y316679D02*
X175799Y317546D01*
Y313018D02*
X176665Y313884D01*
X169854Y317546D02*
X168988Y316679D01*
Y313884D02*
X169854Y313018D01*
X176839Y281825D02*
X175972Y282691D01*
Y278164D02*
X176839Y279030D01*
X170028Y282691D02*
X169161Y281825D01*
Y279030D02*
X170028Y278164D01*
X176839Y276179D02*
X175972Y277045D01*
Y272518D02*
X176839Y273384D01*
X170028Y277045D02*
X169161Y276179D01*
Y273384D02*
X170028Y272518D01*
X187616Y309943D02*
X188482Y310809D01*
X183955D02*
X184821Y309943D01*
X188482Y316754D02*
X187616Y317620D01*
X184821D02*
X183955Y316754D01*
X193398Y309943D02*
X194264Y310809D01*
X189736D02*
X190602Y309943D01*
X194264Y316754D02*
X193398Y317620D01*
X190602D02*
X189736Y316754D01*
X215339Y302679D02*
X214472Y303545D01*
Y299018D02*
X215339Y299884D01*
X208528Y303545D02*
X207661Y302679D01*
Y299884D02*
X208528Y299018D01*
X207661Y279384D02*
X208528Y278518D01*
Y283046D02*
X207661Y282179D01*
X214472Y278518D02*
X215339Y279384D01*
Y282179D02*
X214472Y283046D01*
X186339Y304018D02*
Y308545D01*
X178661D02*
X186339D01*
X178661Y304018D02*
Y308545D01*
Y304018D02*
X186339D01*
X177150Y277082D02*
X217150D01*
X177150Y257082D02*
X217150D01*
Y277082D01*
X177150Y257082D02*
Y277082D01*
X176839Y289778D02*
Y294305D01*
X169161Y289778D02*
Y294305D01*
X174181Y289778D02*
X176839D01*
X169161D02*
X171819D01*
X174181Y294305D02*
X176839D01*
X169161D02*
X171819D01*
X169161Y284738D02*
Y287534D01*
X170047Y283872D02*
X171819D01*
X170047Y288400D02*
X171819D01*
X174181Y283872D02*
X175953D01*
X174181Y288400D02*
X175953D01*
X176839Y284738D02*
Y287534D01*
X195215Y279617D02*
Y282078D01*
X192754Y279617D02*
X195215D01*
Y294086D02*
Y296546D01*
X192754D02*
X195215D01*
X178285D02*
X180746D01*
X178285Y294086D02*
Y296546D01*
Y279617D02*
Y282078D01*
Y279617D02*
X180746D01*
X178852Y317447D02*
X181648D01*
X177986Y314790D02*
Y316561D01*
X182514Y314790D02*
Y316561D01*
X177986Y310656D02*
Y312427D01*
X182514Y310656D02*
Y312427D01*
X178852Y309770D02*
X181648D01*
X190839Y298518D02*
Y303046D01*
X183161D02*
X190839D01*
X183161Y298518D02*
Y303046D01*
Y298518D02*
X190839D01*
X176665Y313884D02*
Y316679D01*
X174008Y317546D02*
X175779D01*
X174008Y313018D02*
X175779D01*
X169874Y317546D02*
X171646D01*
X169874Y313018D02*
X171646D01*
X168988Y313884D02*
Y316679D01*
X176839Y279030D02*
Y281825D01*
X174181Y282691D02*
X175953D01*
X174181Y278164D02*
X175953D01*
X170047Y282691D02*
X171819D01*
X170047Y278164D02*
X171819D01*
X169161Y279030D02*
Y281825D01*
X176839Y273384D02*
Y276179D01*
X174181Y277045D02*
X175953D01*
X174181Y272518D02*
X175953D01*
X170047Y277045D02*
X171819D01*
X170047Y272518D02*
X171819D01*
X169161Y273384D02*
Y276179D01*
X187335Y304018D02*
Y308545D01*
Y304018D02*
X195012D01*
Y308545D01*
X187335D02*
X195012D01*
X197736Y287443D02*
X202264D01*
X197736Y295120D02*
X202264D01*
X197736Y287443D02*
Y290101D01*
Y292463D02*
Y295120D01*
X202264Y287443D02*
Y290101D01*
Y292463D02*
Y295120D01*
X184821Y309943D02*
X187616D01*
X188482Y310829D02*
Y312601D01*
X183955Y310829D02*
Y312601D01*
X188482Y314963D02*
Y316735D01*
X183955Y314963D02*
Y316735D01*
X184821Y317620D02*
X187616D01*
X190602Y309943D02*
X193398D01*
X194264Y310829D02*
Y312601D01*
X189736Y310829D02*
Y312601D01*
X194264Y314963D02*
Y316735D01*
X189736Y314963D02*
Y316735D01*
X190602Y317620D02*
X193398D01*
X215339Y299884D02*
Y302679D01*
X212681Y303545D02*
X214453D01*
X212681Y299018D02*
X214453D01*
X208547Y303545D02*
X210319D01*
X208547Y299018D02*
X210319D01*
X207661Y299884D02*
Y302679D01*
X207661Y279384D02*
Y282179D01*
X208547Y278518D02*
X210319D01*
X208547Y283046D02*
X210319D01*
X212681Y278518D02*
X214453D01*
X212681Y283046D02*
X214453D01*
X215339Y279384D02*
Y282179D01*
X228161Y284738D02*
X229028Y283872D01*
Y288400D02*
X228161Y287534D01*
X234972Y283872D02*
X235839Y284738D01*
Y287534D02*
X234972Y288400D01*
X237852Y317447D02*
X236986Y316581D01*
X241514D02*
X240648Y317447D01*
X236986Y310636D02*
X237852Y309770D01*
X240648D02*
X241514Y310636D01*
X235665Y316679D02*
X234799Y317546D01*
Y313018D02*
X235665Y313884D01*
X228854Y317546D02*
X227988Y316679D01*
Y313884D02*
X228854Y313018D01*
X235839Y281825D02*
X234972Y282691D01*
Y278164D02*
X235839Y279030D01*
X229028Y282691D02*
X228161Y281825D01*
Y279030D02*
X229028Y278164D01*
X235839Y276179D02*
X234972Y277045D01*
Y272518D02*
X235839Y273384D01*
X229028Y277045D02*
X228161Y276179D01*
Y273384D02*
X229028Y272518D01*
X246616Y309943D02*
X247482Y310809D01*
X242955D02*
X243821Y309943D01*
X247482Y316754D02*
X246616Y317620D01*
X243821D02*
X242955Y316754D01*
X252398Y309943D02*
X253264Y310809D01*
X248736D02*
X249602Y309943D01*
X253264Y316754D02*
X252398Y317620D01*
X249602D02*
X248736Y316754D01*
X274339Y302679D02*
X273472Y303545D01*
Y299018D02*
X274339Y299884D01*
X267528Y303545D02*
X266661Y302679D01*
Y299884D02*
X267528Y299018D01*
X266661Y279384D02*
X267528Y278518D01*
Y283046D02*
X266661Y282179D01*
X273472Y278518D02*
X274339Y279384D01*
Y282179D02*
X273472Y283046D01*
X245339Y304018D02*
Y308545D01*
X237661D02*
X245339D01*
X237661Y304018D02*
Y308545D01*
Y304018D02*
X245339D01*
X236150Y277082D02*
X276150D01*
X236150Y257082D02*
X276150D01*
Y277082D01*
X236150Y257082D02*
Y277082D01*
X235839Y289778D02*
Y294305D01*
X228161Y289778D02*
Y294305D01*
X233181Y289778D02*
X235839D01*
X228161D02*
X230819D01*
X233181Y294305D02*
X235839D01*
X228161D02*
X230819D01*
X228161Y284738D02*
Y287534D01*
X229047Y283872D02*
X230819D01*
X229047Y288400D02*
X230819D01*
X233181Y283872D02*
X234953D01*
X233181Y288400D02*
X234953D01*
X235839Y284738D02*
Y287534D01*
X254215Y279617D02*
Y282078D01*
X251754Y279617D02*
X254215D01*
Y294086D02*
Y296546D01*
X251754D02*
X254215D01*
X237285D02*
X239746D01*
X237285Y294086D02*
Y296546D01*
Y279617D02*
Y282078D01*
Y279617D02*
X239746D01*
X237852Y317447D02*
X240648D01*
X236986Y314790D02*
Y316561D01*
X241514Y314790D02*
Y316561D01*
X236986Y310656D02*
Y312427D01*
X241514Y310656D02*
Y312427D01*
X237852Y309770D02*
X240648D01*
X249839Y298518D02*
Y303046D01*
X242161D02*
X249839D01*
X242161Y298518D02*
Y303046D01*
Y298518D02*
X249839D01*
X235665Y313884D02*
Y316679D01*
X233008Y317546D02*
X234780D01*
X233008Y313018D02*
X234780D01*
X228874Y317546D02*
X230646D01*
X228874Y313018D02*
X230646D01*
X227988Y313884D02*
Y316679D01*
X235839Y279030D02*
Y281825D01*
X233181Y282691D02*
X234953D01*
X233181Y278164D02*
X234953D01*
X229047Y282691D02*
X230819D01*
X229047Y278164D02*
X230819D01*
X228161Y279030D02*
Y281825D01*
X235839Y273384D02*
Y276179D01*
X233181Y277045D02*
X234953D01*
X233181Y272518D02*
X234953D01*
X229047Y277045D02*
X230819D01*
X229047Y272518D02*
X230819D01*
X228161Y273384D02*
Y276179D01*
X246335Y304018D02*
Y308545D01*
Y304018D02*
X254012D01*
Y308545D01*
X246335D02*
X254012D01*
X256736Y287443D02*
X261264D01*
X256736Y295120D02*
X261264D01*
X256736Y287443D02*
Y290101D01*
Y292463D02*
Y295120D01*
X261264Y287443D02*
Y290101D01*
Y292463D02*
Y295120D01*
X243821Y309943D02*
X246616D01*
X247482Y310829D02*
Y312601D01*
X242955Y310829D02*
Y312601D01*
X247482Y314963D02*
Y316735D01*
X242955Y314963D02*
Y316735D01*
X243821Y317620D02*
X246616D01*
X249602Y309943D02*
X252398D01*
X253264Y310829D02*
Y312601D01*
X248736Y310829D02*
Y312601D01*
X253264Y314963D02*
Y316735D01*
X248736Y314963D02*
Y316735D01*
X249602Y317620D02*
X252398D01*
X274339Y299884D02*
Y302679D01*
X271681Y303545D02*
X273453D01*
X271681Y299018D02*
X273453D01*
X267547Y303545D02*
X269319D01*
X267547Y299018D02*
X269319D01*
X266661Y299884D02*
Y302679D01*
X266661Y279384D02*
Y282179D01*
X267547Y278518D02*
X269319D01*
X267547Y283046D02*
X269319D01*
X271681Y278518D02*
X273453D01*
X271681Y283046D02*
X273453D01*
X274339Y279384D02*
Y282179D01*
X287161Y284738D02*
X288028Y283872D01*
Y288400D02*
X287161Y287534D01*
X293972Y283872D02*
X294839Y284738D01*
Y287534D02*
X293972Y288400D01*
X296852Y317447D02*
X295986Y316581D01*
X300514D02*
X299648Y317447D01*
X295986Y310636D02*
X296852Y309770D01*
X299648D02*
X300514Y310636D01*
X294665Y316679D02*
X293799Y317546D01*
Y313018D02*
X294665Y313884D01*
X287854Y317546D02*
X286988Y316679D01*
Y313884D02*
X287854Y313018D01*
X294839Y281825D02*
X293972Y282691D01*
Y278164D02*
X294839Y279030D01*
X288028Y282691D02*
X287161Y281825D01*
Y279030D02*
X288028Y278164D01*
X294839Y276179D02*
X293972Y277045D01*
Y272518D02*
X294839Y273384D01*
X288028Y277045D02*
X287161Y276179D01*
Y273384D02*
X288028Y272518D01*
X305616Y309943D02*
X306482Y310809D01*
X301955D02*
X302821Y309943D01*
X306482Y316754D02*
X305616Y317620D01*
X302821D02*
X301955Y316754D01*
X311398Y309943D02*
X312264Y310809D01*
X307736D02*
X308602Y309943D01*
X312264Y316754D02*
X311398Y317620D01*
X308602D02*
X307736Y316754D01*
X333339Y302679D02*
X332472Y303545D01*
Y299018D02*
X333339Y299884D01*
X326528Y303545D02*
X325661Y302679D01*
Y299884D02*
X326528Y299018D01*
X325661Y279384D02*
X326528Y278518D01*
Y283046D02*
X325661Y282179D01*
X332472Y278518D02*
X333339Y279384D01*
Y282179D02*
X332472Y283046D01*
X304339Y304018D02*
Y308545D01*
X296661D02*
X304339D01*
X296661Y304018D02*
Y308545D01*
Y304018D02*
X304339D01*
X295150Y277082D02*
X335150D01*
X295150Y257082D02*
X335150D01*
Y277082D01*
X295150Y257082D02*
Y277082D01*
X294839Y289778D02*
Y294305D01*
X287161Y289778D02*
Y294305D01*
X292181Y289778D02*
X294839D01*
X287161D02*
X289819D01*
X292181Y294305D02*
X294839D01*
X287161D02*
X289819D01*
X287161Y284738D02*
Y287534D01*
X288047Y283872D02*
X289819D01*
X288047Y288400D02*
X289819D01*
X292181Y283872D02*
X293953D01*
X292181Y288400D02*
X293953D01*
X294839Y284738D02*
Y287534D01*
X313215Y279617D02*
Y282078D01*
X310754Y279617D02*
X313215D01*
Y294086D02*
Y296546D01*
X310754D02*
X313215D01*
X296285D02*
X298746D01*
X296285Y294086D02*
Y296546D01*
Y279617D02*
Y282078D01*
Y279617D02*
X298746D01*
X296852Y317447D02*
X299648D01*
X295986Y314790D02*
Y316561D01*
X300514Y314790D02*
Y316561D01*
X295986Y310656D02*
Y312427D01*
X300514Y310656D02*
Y312427D01*
X296852Y309770D02*
X299648D01*
X308839Y298518D02*
Y303046D01*
X301161D02*
X308839D01*
X301161Y298518D02*
Y303046D01*
Y298518D02*
X308839D01*
X294665Y313884D02*
Y316679D01*
X292008Y317546D02*
X293779D01*
X292008Y313018D02*
X293779D01*
X287874Y317546D02*
X289646D01*
X287874Y313018D02*
X289646D01*
X286988Y313884D02*
Y316679D01*
X294839Y279030D02*
Y281825D01*
X292181Y282691D02*
X293953D01*
X292181Y278164D02*
X293953D01*
X288047Y282691D02*
X289819D01*
X288047Y278164D02*
X289819D01*
X287161Y279030D02*
Y281825D01*
X294839Y273384D02*
Y276179D01*
X292181Y277045D02*
X293953D01*
X292181Y272518D02*
X293953D01*
X288047Y277045D02*
X289819D01*
X288047Y272518D02*
X289819D01*
X287161Y273384D02*
Y276179D01*
X305335Y304018D02*
Y308545D01*
Y304018D02*
X313012D01*
Y308545D01*
X305335D02*
X313012D01*
X315736Y287443D02*
X320264D01*
X315736Y295120D02*
X320264D01*
X315736Y287443D02*
Y290101D01*
Y292463D02*
Y295120D01*
X320264Y287443D02*
Y290101D01*
Y292463D02*
Y295120D01*
X302821Y309943D02*
X305616D01*
X306482Y310829D02*
Y312601D01*
X301955Y310829D02*
Y312601D01*
X306482Y314963D02*
Y316735D01*
X301955Y314963D02*
Y316735D01*
X302821Y317620D02*
X305616D01*
X308602Y309943D02*
X311398D01*
X312264Y310829D02*
Y312601D01*
X307736Y310829D02*
Y312601D01*
X312264Y314963D02*
Y316735D01*
X307736Y314963D02*
Y316735D01*
X308602Y317620D02*
X311398D01*
X333339Y299884D02*
Y302679D01*
X330681Y303545D02*
X332453D01*
X330681Y299018D02*
X332453D01*
X326547Y303545D02*
X328319D01*
X326547Y299018D02*
X328319D01*
X325661Y299884D02*
Y302679D01*
X325661Y279384D02*
Y282179D01*
X326547Y278518D02*
X328319D01*
X326547Y283046D02*
X328319D01*
X330681Y278518D02*
X332453D01*
X330681Y283046D02*
X332453D01*
X333339Y279384D02*
Y282179D01*
X346161Y284738D02*
X347028Y283872D01*
Y288400D02*
X346161Y287534D01*
X352972Y283872D02*
X353839Y284738D01*
Y287534D02*
X352972Y288400D01*
X355852Y317447D02*
X354986Y316581D01*
X359514D02*
X358648Y317447D01*
X354986Y310636D02*
X355852Y309770D01*
X358648D02*
X359514Y310636D01*
X353665Y316679D02*
X352799Y317546D01*
Y313018D02*
X353665Y313884D01*
X346854Y317546D02*
X345988Y316679D01*
Y313884D02*
X346854Y313018D01*
X353839Y281825D02*
X352972Y282691D01*
Y278164D02*
X353839Y279030D01*
X347028Y282691D02*
X346161Y281825D01*
Y279030D02*
X347028Y278164D01*
X353839Y276179D02*
X352972Y277045D01*
Y272518D02*
X353839Y273384D01*
X347028Y277045D02*
X346161Y276179D01*
Y273384D02*
X347028Y272518D01*
X364616Y309943D02*
X365482Y310809D01*
X360955D02*
X361821Y309943D01*
X365482Y316754D02*
X364616Y317620D01*
X361821D02*
X360955Y316754D01*
X370398Y309943D02*
X371264Y310809D01*
X366736D02*
X367602Y309943D01*
X371264Y316754D02*
X370398Y317620D01*
X367602D02*
X366736Y316754D01*
X392339Y302679D02*
X391472Y303545D01*
Y299018D02*
X392339Y299884D01*
X385528Y303545D02*
X384661Y302679D01*
Y299884D02*
X385528Y299018D01*
X384661Y279384D02*
X385528Y278518D01*
Y283046D02*
X384661Y282179D01*
X391472Y278518D02*
X392339Y279384D01*
Y282179D02*
X391472Y283046D01*
X363339Y304018D02*
Y308545D01*
X355661D02*
X363339D01*
X355661Y304018D02*
Y308545D01*
Y304018D02*
X363339D01*
X354150Y277082D02*
X394150D01*
X354150Y257082D02*
X394150D01*
Y277082D01*
X354150Y257082D02*
Y277082D01*
X353839Y289778D02*
Y294305D01*
X346161Y289778D02*
Y294305D01*
X351181Y289778D02*
X353839D01*
X346161D02*
X348819D01*
X351181Y294305D02*
X353839D01*
X346161D02*
X348819D01*
X346161Y284738D02*
Y287534D01*
X347047Y283872D02*
X348819D01*
X347047Y288400D02*
X348819D01*
X351181Y283872D02*
X352953D01*
X351181Y288400D02*
X352953D01*
X353839Y284738D02*
Y287534D01*
X372215Y279617D02*
Y282078D01*
X369754Y279617D02*
X372215D01*
Y294086D02*
Y296546D01*
X369754D02*
X372215D01*
X355285D02*
X357746D01*
X355285Y294086D02*
Y296546D01*
Y279617D02*
Y282078D01*
Y279617D02*
X357746D01*
X355852Y317447D02*
X358648D01*
X354986Y314790D02*
Y316561D01*
X359514Y314790D02*
Y316561D01*
X354986Y310656D02*
Y312427D01*
X359514Y310656D02*
Y312427D01*
X355852Y309770D02*
X358648D01*
X367839Y298518D02*
Y303046D01*
X360161D02*
X367839D01*
X360161Y298518D02*
Y303046D01*
Y298518D02*
X367839D01*
X353665Y313884D02*
Y316679D01*
X351008Y317546D02*
X352780D01*
X351008Y313018D02*
X352780D01*
X346874Y317546D02*
X348646D01*
X346874Y313018D02*
X348646D01*
X345988Y313884D02*
Y316679D01*
X353839Y279030D02*
Y281825D01*
X351181Y282691D02*
X352953D01*
X351181Y278164D02*
X352953D01*
X347047Y282691D02*
X348819D01*
X347047Y278164D02*
X348819D01*
X346161Y279030D02*
Y281825D01*
X353839Y273384D02*
Y276179D01*
X351181Y277045D02*
X352953D01*
X351181Y272518D02*
X352953D01*
X347047Y277045D02*
X348819D01*
X347047Y272518D02*
X348819D01*
X346161Y273384D02*
Y276179D01*
X364335Y304018D02*
Y308545D01*
Y304018D02*
X372012D01*
Y308545D01*
X364335D02*
X372012D01*
X374736Y287443D02*
X379264D01*
X374736Y295120D02*
X379264D01*
X374736Y287443D02*
Y290101D01*
Y292463D02*
Y295120D01*
X379264Y287443D02*
Y290101D01*
Y292463D02*
Y295120D01*
X361821Y309943D02*
X364616D01*
X365482Y310829D02*
Y312601D01*
X360955Y310829D02*
Y312601D01*
X365482Y314963D02*
Y316735D01*
X360955Y314963D02*
Y316735D01*
X361821Y317620D02*
X364616D01*
X367602Y309943D02*
X370398D01*
X371264Y310829D02*
Y312601D01*
X366736Y310829D02*
Y312601D01*
X371264Y314963D02*
Y316735D01*
X366736Y314963D02*
Y316735D01*
X367602Y317620D02*
X370398D01*
X392339Y299884D02*
Y302679D01*
X389681Y303545D02*
X391453D01*
X389681Y299018D02*
X391453D01*
X385547Y303545D02*
X387319D01*
X385547Y299018D02*
X387319D01*
X384661Y299884D02*
Y302679D01*
X384661Y279384D02*
Y282179D01*
X385547Y278518D02*
X387319D01*
X385547Y283046D02*
X387319D01*
X389681Y278518D02*
X391453D01*
X389681Y283046D02*
X391453D01*
X392339Y279384D02*
Y282179D01*
X169161Y368520D02*
X170028Y367654D01*
Y372182D02*
X169161Y371316D01*
X175972Y367654D02*
X176839Y368520D01*
Y371316D02*
X175972Y372182D01*
X178852Y401229D02*
X177986Y400363D01*
X182514D02*
X181648Y401229D01*
X177986Y394418D02*
X178852Y393552D01*
X181648D02*
X182514Y394418D01*
X176665Y400461D02*
X175799Y401327D01*
Y396800D02*
X176665Y397666D01*
X169854Y401327D02*
X168988Y400461D01*
Y397666D02*
X169854Y396800D01*
X176839Y365607D02*
X175972Y366473D01*
Y361945D02*
X176839Y362811D01*
X170028Y366473D02*
X169161Y365607D01*
Y362812D02*
X170028Y361945D01*
X176839Y359961D02*
X175972Y360827D01*
Y356300D02*
X176839Y357166D01*
X170028Y360827D02*
X169161Y359961D01*
Y357166D02*
X170028Y356300D01*
X187616Y393725D02*
X188482Y394591D01*
X183955D02*
X184821Y393725D01*
X188482Y400536D02*
X187616Y401402D01*
X184821D02*
X183955Y400536D01*
X193398Y393725D02*
X194264Y394591D01*
X189736D02*
X190602Y393725D01*
X194264Y400536D02*
X193398Y401402D01*
X190602D02*
X189736Y400536D01*
X215339Y386461D02*
X214472Y387327D01*
Y382800D02*
X215339Y383666D01*
X208528Y387327D02*
X207661Y386461D01*
Y383666D02*
X208528Y382800D01*
X207661Y363166D02*
X208528Y362300D01*
Y366827D02*
X207661Y365961D01*
X214472Y362300D02*
X215339Y363166D01*
Y365961D02*
X214472Y366827D01*
X186339Y387800D02*
Y392327D01*
X178661D02*
X186339D01*
X178661Y387800D02*
Y392327D01*
Y387800D02*
X186339D01*
X177150Y360863D02*
X217150D01*
X177150Y340863D02*
X217150D01*
Y360863D01*
X177150Y340863D02*
Y360863D01*
X176839Y373560D02*
Y378087D01*
X169161Y373560D02*
Y378087D01*
X174181Y373560D02*
X176839D01*
X169161D02*
X171819D01*
X174181Y378087D02*
X176839D01*
X169161D02*
X171819D01*
X169161Y368520D02*
Y371316D01*
X170047Y367654D02*
X171819D01*
X170047Y372182D02*
X171819D01*
X174181Y367654D02*
X175953D01*
X174181Y372182D02*
X175953D01*
X176839Y368520D02*
Y371316D01*
X195215Y363399D02*
Y365860D01*
X192754Y363399D02*
X195215D01*
Y377868D02*
Y380328D01*
X192754D02*
X195215D01*
X178285D02*
X180746D01*
X178285Y377868D02*
Y380328D01*
Y363399D02*
Y365860D01*
Y363399D02*
X180746D01*
X178852Y401229D02*
X181648D01*
X177986Y398571D02*
Y400343D01*
X182514Y398571D02*
Y400343D01*
X177986Y394438D02*
Y396209D01*
X182514Y394438D02*
Y396209D01*
X178852Y393552D02*
X181648D01*
X190839Y382300D02*
Y386827D01*
X183161D02*
X190839D01*
X183161Y382300D02*
Y386827D01*
Y382300D02*
X190839D01*
X176665Y397666D02*
Y400461D01*
X174008Y401327D02*
X175779D01*
X174008Y396800D02*
X175779D01*
X169874Y401327D02*
X171646D01*
X169874Y396800D02*
X171646D01*
X168988Y397666D02*
Y400461D01*
X176839Y362811D02*
Y365607D01*
X174181Y366473D02*
X175953D01*
X174181Y361945D02*
X175953D01*
X170047Y366473D02*
X171819D01*
X170047Y361945D02*
X171819D01*
X169161Y362812D02*
Y365607D01*
X176839Y357166D02*
Y359961D01*
X174181Y360827D02*
X175953D01*
X174181Y356300D02*
X175953D01*
X170047Y360827D02*
X171819D01*
X170047Y356300D02*
X171819D01*
X169161Y357166D02*
Y359961D01*
X187335Y387800D02*
Y392327D01*
Y387800D02*
X195012D01*
Y392327D01*
X187335D02*
X195012D01*
X197736Y371225D02*
X202264D01*
X197736Y378902D02*
X202264D01*
X197736Y371225D02*
Y373882D01*
Y376245D02*
Y378902D01*
X202264Y371225D02*
Y373882D01*
Y376245D02*
Y378902D01*
X184821Y393725D02*
X187616D01*
X188482Y394611D02*
Y396382D01*
X183955Y394611D02*
Y396382D01*
X188482Y398745D02*
Y400516D01*
X183955Y398745D02*
Y400516D01*
X184821Y401402D02*
X187616D01*
X190602Y393725D02*
X193398D01*
X194264Y394611D02*
Y396382D01*
X189736Y394611D02*
Y396382D01*
X194264Y398745D02*
Y400516D01*
X189736Y398745D02*
Y400516D01*
X190602Y401402D02*
X193398D01*
X215339Y383666D02*
Y386461D01*
X212681Y387327D02*
X214453D01*
X212681Y382800D02*
X214453D01*
X208547Y387327D02*
X210319D01*
X208547Y382800D02*
X210319D01*
X207661Y383666D02*
Y386461D01*
X207661Y363166D02*
Y365961D01*
X208547Y362300D02*
X210319D01*
X208547Y366827D02*
X210319D01*
X212681Y362300D02*
X214453D01*
X212681Y366827D02*
X214453D01*
X215339Y363166D02*
Y365961D01*
X228161Y368520D02*
X229028Y367654D01*
Y372182D02*
X228161Y371316D01*
X234972Y367654D02*
X235839Y368520D01*
Y371316D02*
X234972Y372182D01*
X237852Y401229D02*
X236986Y400363D01*
X241514D02*
X240648Y401229D01*
X236986Y394418D02*
X237852Y393552D01*
X240648D02*
X241514Y394418D01*
X235665Y400461D02*
X234799Y401327D01*
Y396800D02*
X235665Y397666D01*
X228854Y401327D02*
X227988Y400461D01*
Y397666D02*
X228854Y396800D01*
X235839Y365607D02*
X234972Y366473D01*
Y361945D02*
X235839Y362811D01*
X229028Y366473D02*
X228161Y365607D01*
Y362812D02*
X229028Y361945D01*
X235839Y359961D02*
X234972Y360827D01*
Y356300D02*
X235839Y357166D01*
X229028Y360827D02*
X228161Y359961D01*
Y357166D02*
X229028Y356300D01*
X246616Y393725D02*
X247482Y394591D01*
X242955D02*
X243821Y393725D01*
X247482Y400536D02*
X246616Y401402D01*
X243821D02*
X242955Y400536D01*
X252398Y393725D02*
X253264Y394591D01*
X248736D02*
X249602Y393725D01*
X253264Y400536D02*
X252398Y401402D01*
X249602D02*
X248736Y400536D01*
X274339Y386461D02*
X273472Y387327D01*
Y382800D02*
X274339Y383666D01*
X267528Y387327D02*
X266661Y386461D01*
Y383666D02*
X267528Y382800D01*
X266661Y363166D02*
X267528Y362300D01*
Y366827D02*
X266661Y365961D01*
X273472Y362300D02*
X274339Y363166D01*
Y365961D02*
X273472Y366827D01*
X245339Y387800D02*
Y392327D01*
X237661D02*
X245339D01*
X237661Y387800D02*
Y392327D01*
Y387800D02*
X245339D01*
X236150Y360863D02*
X276150D01*
X236150Y340863D02*
X276150D01*
Y360863D01*
X236150Y340863D02*
Y360863D01*
X235839Y373560D02*
Y378087D01*
X228161Y373560D02*
Y378087D01*
X233181Y373560D02*
X235839D01*
X228161D02*
X230819D01*
X233181Y378087D02*
X235839D01*
X228161D02*
X230819D01*
X228161Y368520D02*
Y371316D01*
X229047Y367654D02*
X230819D01*
X229047Y372182D02*
X230819D01*
X233181Y367654D02*
X234953D01*
X233181Y372182D02*
X234953D01*
X235839Y368520D02*
Y371316D01*
X254215Y363399D02*
Y365860D01*
X251754Y363399D02*
X254215D01*
Y377868D02*
Y380328D01*
X251754D02*
X254215D01*
X237285D02*
X239746D01*
X237285Y377868D02*
Y380328D01*
Y363399D02*
Y365860D01*
Y363399D02*
X239746D01*
X237852Y401229D02*
X240648D01*
X236986Y398571D02*
Y400343D01*
X241514Y398571D02*
Y400343D01*
X236986Y394438D02*
Y396209D01*
X241514Y394438D02*
Y396209D01*
X237852Y393552D02*
X240648D01*
X249839Y382300D02*
Y386827D01*
X242161D02*
X249839D01*
X242161Y382300D02*
Y386827D01*
Y382300D02*
X249839D01*
X235665Y397666D02*
Y400461D01*
X233008Y401327D02*
X234780D01*
X233008Y396800D02*
X234780D01*
X228874Y401327D02*
X230646D01*
X228874Y396800D02*
X230646D01*
X227988Y397666D02*
Y400461D01*
X235839Y362811D02*
Y365607D01*
X233181Y366473D02*
X234953D01*
X233181Y361945D02*
X234953D01*
X229047Y366473D02*
X230819D01*
X229047Y361945D02*
X230819D01*
X228161Y362812D02*
Y365607D01*
X235839Y357166D02*
Y359961D01*
X233181Y360827D02*
X234953D01*
X233181Y356300D02*
X234953D01*
X229047Y360827D02*
X230819D01*
X229047Y356300D02*
X230819D01*
X228161Y357166D02*
Y359961D01*
X246335Y387800D02*
Y392327D01*
Y387800D02*
X254012D01*
Y392327D01*
X246335D02*
X254012D01*
X256736Y371225D02*
X261264D01*
X256736Y378902D02*
X261264D01*
X256736Y371225D02*
Y373882D01*
Y376245D02*
Y378902D01*
X261264Y371225D02*
Y373882D01*
Y376245D02*
Y378902D01*
X243821Y393725D02*
X246616D01*
X247482Y394611D02*
Y396382D01*
X242955Y394611D02*
Y396382D01*
X247482Y398745D02*
Y400516D01*
X242955Y398745D02*
Y400516D01*
X243821Y401402D02*
X246616D01*
X249602Y393725D02*
X252398D01*
X253264Y394611D02*
Y396382D01*
X248736Y394611D02*
Y396382D01*
X253264Y398745D02*
Y400516D01*
X248736Y398745D02*
Y400516D01*
X249602Y401402D02*
X252398D01*
X274339Y383666D02*
Y386461D01*
X271681Y387327D02*
X273453D01*
X271681Y382800D02*
X273453D01*
X267547Y387327D02*
X269319D01*
X267547Y382800D02*
X269319D01*
X266661Y383666D02*
Y386461D01*
X266661Y363166D02*
Y365961D01*
X267547Y362300D02*
X269319D01*
X267547Y366827D02*
X269319D01*
X271681Y362300D02*
X273453D01*
X271681Y366827D02*
X273453D01*
X274339Y363166D02*
Y365961D01*
X287161Y368520D02*
X288028Y367654D01*
Y372182D02*
X287161Y371316D01*
X293972Y367654D02*
X294839Y368520D01*
Y371316D02*
X293972Y372182D01*
X296852Y401229D02*
X295986Y400363D01*
X300514D02*
X299648Y401229D01*
X295986Y394418D02*
X296852Y393552D01*
X299648D02*
X300514Y394418D01*
X294665Y400461D02*
X293799Y401327D01*
Y396800D02*
X294665Y397666D01*
X287854Y401327D02*
X286988Y400461D01*
Y397666D02*
X287854Y396800D01*
X294839Y365607D02*
X293972Y366473D01*
Y361945D02*
X294839Y362811D01*
X288028Y366473D02*
X287161Y365607D01*
Y362812D02*
X288028Y361945D01*
X294839Y359961D02*
X293972Y360827D01*
Y356300D02*
X294839Y357166D01*
X288028Y360827D02*
X287161Y359961D01*
Y357166D02*
X288028Y356300D01*
X305616Y393725D02*
X306482Y394591D01*
X301955D02*
X302821Y393725D01*
X306482Y400536D02*
X305616Y401402D01*
X302821D02*
X301955Y400536D01*
X311398Y393725D02*
X312264Y394591D01*
X307736D02*
X308602Y393725D01*
X312264Y400536D02*
X311398Y401402D01*
X308602D02*
X307736Y400536D01*
X333339Y386461D02*
X332472Y387327D01*
Y382800D02*
X333339Y383666D01*
X326528Y387327D02*
X325661Y386461D01*
Y383666D02*
X326528Y382800D01*
X325661Y363166D02*
X326528Y362300D01*
Y366827D02*
X325661Y365961D01*
X332472Y362300D02*
X333339Y363166D01*
Y365961D02*
X332472Y366827D01*
X304339Y387800D02*
Y392327D01*
X296661D02*
X304339D01*
X296661Y387800D02*
Y392327D01*
Y387800D02*
X304339D01*
X295150Y360863D02*
X335150D01*
X295150Y340863D02*
X335150D01*
Y360863D01*
X295150Y340863D02*
Y360863D01*
X294839Y373560D02*
Y378087D01*
X287161Y373560D02*
Y378087D01*
X292181Y373560D02*
X294839D01*
X287161D02*
X289819D01*
X292181Y378087D02*
X294839D01*
X287161D02*
X289819D01*
X287161Y368520D02*
Y371316D01*
X288047Y367654D02*
X289819D01*
X288047Y372182D02*
X289819D01*
X292181Y367654D02*
X293953D01*
X292181Y372182D02*
X293953D01*
X294839Y368520D02*
Y371316D01*
X313215Y363399D02*
Y365860D01*
X310754Y363399D02*
X313215D01*
Y377868D02*
Y380328D01*
X310754D02*
X313215D01*
X296285D02*
X298746D01*
X296285Y377868D02*
Y380328D01*
Y363399D02*
Y365860D01*
Y363399D02*
X298746D01*
X296852Y401229D02*
X299648D01*
X295986Y398571D02*
Y400343D01*
X300514Y398571D02*
Y400343D01*
X295986Y394438D02*
Y396209D01*
X300514Y394438D02*
Y396209D01*
X296852Y393552D02*
X299648D01*
X308839Y382300D02*
Y386827D01*
X301161D02*
X308839D01*
X301161Y382300D02*
Y386827D01*
Y382300D02*
X308839D01*
X294665Y397666D02*
Y400461D01*
X292008Y401327D02*
X293779D01*
X292008Y396800D02*
X293779D01*
X287874Y401327D02*
X289646D01*
X287874Y396800D02*
X289646D01*
X286988Y397666D02*
Y400461D01*
X294839Y362811D02*
Y365607D01*
X292181Y366473D02*
X293953D01*
X292181Y361945D02*
X293953D01*
X288047Y366473D02*
X289819D01*
X288047Y361945D02*
X289819D01*
X287161Y362812D02*
Y365607D01*
X294839Y357166D02*
Y359961D01*
X292181Y360827D02*
X293953D01*
X292181Y356300D02*
X293953D01*
X288047Y360827D02*
X289819D01*
X288047Y356300D02*
X289819D01*
X287161Y357166D02*
Y359961D01*
X305335Y387800D02*
Y392327D01*
Y387800D02*
X313012D01*
Y392327D01*
X305335D02*
X313012D01*
X315736Y371225D02*
X320264D01*
X315736Y378902D02*
X320264D01*
X315736Y371225D02*
Y373882D01*
Y376245D02*
Y378902D01*
X320264Y371225D02*
Y373882D01*
Y376245D02*
Y378902D01*
X302821Y393725D02*
X305616D01*
X306482Y394611D02*
Y396382D01*
X301955Y394611D02*
Y396382D01*
X306482Y398745D02*
Y400516D01*
X301955Y398745D02*
Y400516D01*
X302821Y401402D02*
X305616D01*
X308602Y393725D02*
X311398D01*
X312264Y394611D02*
Y396382D01*
X307736Y394611D02*
Y396382D01*
X312264Y398745D02*
Y400516D01*
X307736Y398745D02*
Y400516D01*
X308602Y401402D02*
X311398D01*
X333339Y383666D02*
Y386461D01*
X330681Y387327D02*
X332453D01*
X330681Y382800D02*
X332453D01*
X326547Y387327D02*
X328319D01*
X326547Y382800D02*
X328319D01*
X325661Y383666D02*
Y386461D01*
X325661Y363166D02*
Y365961D01*
X326547Y362300D02*
X328319D01*
X326547Y366827D02*
X328319D01*
X330681Y362300D02*
X332453D01*
X330681Y366827D02*
X332453D01*
X333339Y363166D02*
Y365961D01*
X346161Y368520D02*
X347028Y367654D01*
Y372182D02*
X346161Y371316D01*
X352972Y367654D02*
X353839Y368520D01*
Y371316D02*
X352972Y372182D01*
X355852Y401229D02*
X354986Y400363D01*
X359514D02*
X358648Y401229D01*
X354986Y394418D02*
X355852Y393552D01*
X358648D02*
X359514Y394418D01*
X353665Y400461D02*
X352799Y401327D01*
Y396800D02*
X353665Y397666D01*
X346854Y401327D02*
X345988Y400461D01*
Y397666D02*
X346854Y396800D01*
X353839Y365607D02*
X352972Y366473D01*
Y361945D02*
X353839Y362811D01*
X347028Y366473D02*
X346161Y365607D01*
Y362812D02*
X347028Y361945D01*
X353839Y359961D02*
X352972Y360827D01*
Y356300D02*
X353839Y357166D01*
X347028Y360827D02*
X346161Y359961D01*
Y357166D02*
X347028Y356300D01*
X364616Y393725D02*
X365482Y394591D01*
X360955D02*
X361821Y393725D01*
X365482Y400536D02*
X364616Y401402D01*
X361821D02*
X360955Y400536D01*
X370398Y393725D02*
X371264Y394591D01*
X366736D02*
X367602Y393725D01*
X371264Y400536D02*
X370398Y401402D01*
X367602D02*
X366736Y400536D01*
X392339Y386461D02*
X391472Y387327D01*
Y382800D02*
X392339Y383666D01*
X385528Y387327D02*
X384661Y386461D01*
Y383666D02*
X385528Y382800D01*
X384661Y363166D02*
X385528Y362300D01*
Y366827D02*
X384661Y365961D01*
X391472Y362300D02*
X392339Y363166D01*
Y365961D02*
X391472Y366827D01*
X363339Y387800D02*
Y392327D01*
X355661D02*
X363339D01*
X355661Y387800D02*
Y392327D01*
Y387800D02*
X363339D01*
X354150Y360863D02*
X394150D01*
X354150Y340863D02*
X394150D01*
Y360863D01*
X354150Y340863D02*
Y360863D01*
X353839Y373560D02*
Y378087D01*
X346161Y373560D02*
Y378087D01*
X351181Y373560D02*
X353839D01*
X346161D02*
X348819D01*
X351181Y378087D02*
X353839D01*
X346161D02*
X348819D01*
X346161Y368520D02*
Y371316D01*
X347047Y367654D02*
X348819D01*
X347047Y372182D02*
X348819D01*
X351181Y367654D02*
X352953D01*
X351181Y372182D02*
X352953D01*
X353839Y368520D02*
Y371316D01*
X372215Y363399D02*
Y365860D01*
X369754Y363399D02*
X372215D01*
Y377868D02*
Y380328D01*
X369754D02*
X372215D01*
X355285D02*
X357746D01*
X355285Y377868D02*
Y380328D01*
Y363399D02*
Y365860D01*
Y363399D02*
X357746D01*
X355852Y401229D02*
X358648D01*
X354986Y398571D02*
Y400343D01*
X359514Y398571D02*
Y400343D01*
X354986Y394438D02*
Y396209D01*
X359514Y394438D02*
Y396209D01*
X355852Y393552D02*
X358648D01*
X367839Y382300D02*
Y386827D01*
X360161D02*
X367839D01*
X360161Y382300D02*
Y386827D01*
Y382300D02*
X367839D01*
X353665Y397666D02*
Y400461D01*
X351008Y401327D02*
X352780D01*
X351008Y396800D02*
X352780D01*
X346874Y401327D02*
X348646D01*
X346874Y396800D02*
X348646D01*
X345988Y397666D02*
Y400461D01*
X353839Y362811D02*
Y365607D01*
X351181Y366473D02*
X352953D01*
X351181Y361945D02*
X352953D01*
X347047Y366473D02*
X348819D01*
X347047Y361945D02*
X348819D01*
X346161Y362812D02*
Y365607D01*
X353839Y357166D02*
Y359961D01*
X351181Y360827D02*
X352953D01*
X351181Y356300D02*
X352953D01*
X347047Y360827D02*
X348819D01*
X347047Y356300D02*
X348819D01*
X346161Y357166D02*
Y359961D01*
X364335Y387800D02*
Y392327D01*
Y387800D02*
X372012D01*
Y392327D01*
X364335D02*
X372012D01*
X374736Y371225D02*
X379264D01*
X374736Y378902D02*
X379264D01*
X374736Y371225D02*
Y373882D01*
Y376245D02*
Y378902D01*
X379264Y371225D02*
Y373882D01*
Y376245D02*
Y378902D01*
X361821Y393725D02*
X364616D01*
X365482Y394611D02*
Y396382D01*
X360955Y394611D02*
Y396382D01*
X365482Y398745D02*
Y400516D01*
X360955Y398745D02*
Y400516D01*
X361821Y401402D02*
X364616D01*
X367602Y393725D02*
X370398D01*
X371264Y394611D02*
Y396382D01*
X366736Y394611D02*
Y396382D01*
X371264Y398745D02*
Y400516D01*
X366736Y398745D02*
Y400516D01*
X367602Y401402D02*
X370398D01*
X392339Y383666D02*
Y386461D01*
X389681Y387327D02*
X391453D01*
X389681Y382800D02*
X391453D01*
X385547Y387327D02*
X387319D01*
X385547Y382800D02*
X387319D01*
X384661Y383666D02*
Y386461D01*
X384661Y363166D02*
Y365961D01*
X385547Y362300D02*
X387319D01*
X385547Y366827D02*
X387319D01*
X389681Y362300D02*
X391453D01*
X389681Y366827D02*
X391453D01*
X392339Y363166D02*
Y365961D01*
D38*
X179663Y193769D02*
X179073Y194359D01*
X178482Y193769D01*
X179073Y193178D01*
X179663Y193769D01*
X204768Y198689D02*
X204177Y199279D01*
X203587Y198689D01*
X204177Y198098D01*
X204768Y198689D01*
X238663Y193769D02*
X238073Y194359D01*
X237482Y193769D01*
X238073Y193178D01*
X238663Y193769D01*
X263768Y198689D02*
X263177Y199279D01*
X262587Y198689D01*
X263177Y198098D01*
X263768Y198689D01*
X297663Y193769D02*
X297073Y194359D01*
X296482Y193769D01*
X297073Y193178D01*
X297663Y193769D01*
X322768Y198689D02*
X322177Y199279D01*
X321587Y198689D01*
X322177Y198098D01*
X322768Y198689D01*
X356663Y193769D02*
X356073Y194359D01*
X355482Y193769D01*
X356073Y193178D01*
X356663Y193769D01*
X381768Y198689D02*
X381177Y199279D01*
X380587Y198689D01*
X381177Y198098D01*
X381768Y198689D01*
X179663Y277550D02*
X179073Y278141D01*
X178482Y277550D01*
X179073Y276960D01*
X179663Y277550D01*
X204768Y282471D02*
X204177Y283061D01*
X203587Y282471D01*
X204177Y281880D01*
X204768Y282471D01*
X238663Y277550D02*
X238073Y278141D01*
X237482Y277550D01*
X238073Y276960D01*
X238663Y277550D01*
X263768Y282471D02*
X263177Y283061D01*
X262587Y282471D01*
X263177Y281880D01*
X263768Y282471D01*
X297663Y277550D02*
X297073Y278141D01*
X296482Y277550D01*
X297073Y276960D01*
X297663Y277550D01*
X322768Y282471D02*
X322177Y283061D01*
X321587Y282471D01*
X322177Y281880D01*
X322768Y282471D01*
X356663Y277550D02*
X356073Y278141D01*
X355482Y277550D01*
X356073Y276960D01*
X356663Y277550D01*
X381768Y282471D02*
X381177Y283061D01*
X380587Y282471D01*
X381177Y281880D01*
X381768Y282471D01*
X179663Y361332D02*
X179073Y361923D01*
X178482Y361332D01*
X179073Y360741D01*
X179663Y361332D01*
X204768Y366252D02*
X204177Y366843D01*
X203587Y366252D01*
X204177Y365662D01*
X204768Y366252D01*
X238663Y361332D02*
X238073Y361923D01*
X237482Y361332D01*
X238073Y360741D01*
X238663Y361332D01*
X263768Y366252D02*
X263177Y366843D01*
X262587Y366252D01*
X263177Y365662D01*
X263768Y366252D01*
X297663Y361332D02*
X297073Y361923D01*
X296482Y361332D01*
X297073Y360741D01*
X297663Y361332D01*
X322768Y366252D02*
X322177Y366843D01*
X321587Y366252D01*
X322177Y365662D01*
X322768Y366252D01*
X356663Y361332D02*
X356073Y361923D01*
X355482Y361332D01*
X356073Y360741D01*
X356663Y361332D01*
X381768Y366252D02*
X381177Y366843D01*
X380587Y366252D01*
X381177Y365662D01*
X381768Y366252D01*
D39*
X203390Y200658D02*
X219925D01*
X203390D02*
Y214043D01*
X219925Y200658D02*
Y214043D01*
X203390D02*
X219925D01*
X262390Y200658D02*
X278925D01*
X262390D02*
Y214043D01*
X278925Y200658D02*
Y214043D01*
X262390D02*
X278925D01*
X321390Y200658D02*
X337925D01*
X321390D02*
Y214043D01*
X337925Y200658D02*
Y214043D01*
X321390D02*
X337925D01*
X380390Y200658D02*
X396925D01*
X380390D02*
Y214043D01*
X396925Y200658D02*
Y214043D01*
X380390D02*
X396925D01*
X203390Y284439D02*
X219925D01*
X203390D02*
Y297825D01*
X219925Y284439D02*
Y297825D01*
X203390D02*
X219925D01*
X262390Y284439D02*
X278925D01*
X262390D02*
Y297825D01*
X278925Y284439D02*
Y297825D01*
X262390D02*
X278925D01*
X321390Y284439D02*
X337925D01*
X321390D02*
Y297825D01*
X337925Y284439D02*
Y297825D01*
X321390D02*
X337925D01*
X380390Y284439D02*
X396925D01*
X380390D02*
Y297825D01*
X396925Y284439D02*
Y297825D01*
X380390D02*
X396925D01*
X203390Y368221D02*
X219925D01*
X203390D02*
Y381607D01*
X219925Y368221D02*
Y381607D01*
X203390D02*
X219925D01*
X262390Y368221D02*
X278925D01*
X262390D02*
Y381607D01*
X278925Y368221D02*
Y381607D01*
X262390D02*
X278925D01*
X321390Y368221D02*
X337925D01*
X321390D02*
Y381607D01*
X337925Y368221D02*
Y381607D01*
X321390D02*
X337925D01*
X380390Y368221D02*
X396925D01*
X380390D02*
Y381607D01*
X396925Y368221D02*
Y381607D01*
X380390D02*
X396925D01*
M02*
