G04*
G04 #@! TF.GenerationSoftware,Altium Limited,Altium Designer,18.1.7 (191)*
G04*
G04 Layer_Color=255*
%FSLAX25Y25*%
%MOIN*%
G70*
G01*
G75*
%ADD14C,0.02087*%
%ADD15R,0.02362X0.02559*%
%ADD16R,0.06000X0.06000*%
%ADD17O,0.03150X0.01102*%
%ADD18O,0.01102X0.03150*%
%ADD19R,0.02559X0.02362*%
%ADD20R,0.05512X0.04528*%
%ADD34C,0.05906*%
%ADD35R,0.05906X0.05906*%
D14*
X180313Y238000D02*
D03*
X239313D02*
D03*
X298313D02*
D03*
X357313D02*
D03*
X180313Y321782D02*
D03*
X239313D02*
D03*
X298313D02*
D03*
X357313D02*
D03*
X180313Y405563D02*
D03*
X239313D02*
D03*
X298313D02*
D03*
X357313D02*
D03*
D15*
X180827Y222500D02*
D03*
X184173D02*
D03*
X171327Y208260D02*
D03*
X174673D02*
D03*
X171327Y202354D02*
D03*
X174673D02*
D03*
X185327Y217000D02*
D03*
X188673D02*
D03*
X174500Y231500D02*
D03*
X171153D02*
D03*
X174673Y196646D02*
D03*
X171327D02*
D03*
X174673Y191000D02*
D03*
X171327D02*
D03*
X192847Y222500D02*
D03*
X189500D02*
D03*
X213173Y217500D02*
D03*
X209827D02*
D03*
X209827Y197000D02*
D03*
X213173D02*
D03*
X239827Y222500D02*
D03*
X243173D02*
D03*
X230327Y208260D02*
D03*
X233673D02*
D03*
X230327Y202354D02*
D03*
X233673D02*
D03*
X244327Y217000D02*
D03*
X247673D02*
D03*
X233500Y231500D02*
D03*
X230153D02*
D03*
X233673Y196646D02*
D03*
X230327D02*
D03*
X233673Y191000D02*
D03*
X230327D02*
D03*
X251847Y222500D02*
D03*
X248500D02*
D03*
X272173Y217500D02*
D03*
X268827D02*
D03*
X268827Y197000D02*
D03*
X272173D02*
D03*
X298827Y222500D02*
D03*
X302173D02*
D03*
X289327Y208260D02*
D03*
X292673D02*
D03*
X289327Y202354D02*
D03*
X292673D02*
D03*
X303327Y217000D02*
D03*
X306673D02*
D03*
X292500Y231500D02*
D03*
X289154D02*
D03*
X292673Y196646D02*
D03*
X289327D02*
D03*
X292673Y191000D02*
D03*
X289327D02*
D03*
X310846Y222500D02*
D03*
X307500D02*
D03*
X331173Y217500D02*
D03*
X327827D02*
D03*
X327827Y197000D02*
D03*
X331173D02*
D03*
X357827Y222500D02*
D03*
X361173D02*
D03*
X348327Y208260D02*
D03*
X351673D02*
D03*
X348327Y202354D02*
D03*
X351673D02*
D03*
X362327Y217000D02*
D03*
X365673D02*
D03*
X351500Y231500D02*
D03*
X348153D02*
D03*
X351673Y196646D02*
D03*
X348327D02*
D03*
X351673Y191000D02*
D03*
X348327D02*
D03*
X369847Y222500D02*
D03*
X366500D02*
D03*
X390173Y217500D02*
D03*
X386827D02*
D03*
X386827Y197000D02*
D03*
X390173D02*
D03*
X180827Y306282D02*
D03*
X184173D02*
D03*
X171327Y292042D02*
D03*
X174673D02*
D03*
X171327Y286136D02*
D03*
X174673D02*
D03*
X185327Y300782D02*
D03*
X188673D02*
D03*
X174500Y315282D02*
D03*
X171153D02*
D03*
X174673Y280427D02*
D03*
X171327D02*
D03*
X174673Y274782D02*
D03*
X171327D02*
D03*
X192847Y306282D02*
D03*
X189500D02*
D03*
X213173Y301282D02*
D03*
X209827D02*
D03*
X209827Y280782D02*
D03*
X213173D02*
D03*
X239827Y306282D02*
D03*
X243173D02*
D03*
X230327Y292042D02*
D03*
X233673D02*
D03*
X230327Y286136D02*
D03*
X233673D02*
D03*
X244327Y300782D02*
D03*
X247673D02*
D03*
X233500Y315282D02*
D03*
X230153D02*
D03*
X233673Y280427D02*
D03*
X230327D02*
D03*
X233673Y274782D02*
D03*
X230327D02*
D03*
X251847Y306282D02*
D03*
X248500D02*
D03*
X272173Y301282D02*
D03*
X268827D02*
D03*
X268827Y280782D02*
D03*
X272173D02*
D03*
X298827Y306282D02*
D03*
X302173D02*
D03*
X289327Y292042D02*
D03*
X292673D02*
D03*
X289327Y286136D02*
D03*
X292673D02*
D03*
X303327Y300782D02*
D03*
X306673D02*
D03*
X292500Y315282D02*
D03*
X289154D02*
D03*
X292673Y280427D02*
D03*
X289327D02*
D03*
X292673Y274782D02*
D03*
X289327D02*
D03*
X310846Y306282D02*
D03*
X307500D02*
D03*
X331173Y301282D02*
D03*
X327827D02*
D03*
X327827Y280782D02*
D03*
X331173D02*
D03*
X357827Y306282D02*
D03*
X361173D02*
D03*
X348327Y292042D02*
D03*
X351673D02*
D03*
X348327Y286136D02*
D03*
X351673D02*
D03*
X362327Y300782D02*
D03*
X365673D02*
D03*
X351500Y315282D02*
D03*
X348153D02*
D03*
X351673Y280427D02*
D03*
X348327D02*
D03*
X351673Y274782D02*
D03*
X348327D02*
D03*
X369847Y306282D02*
D03*
X366500D02*
D03*
X390173Y301282D02*
D03*
X386827D02*
D03*
X386827Y280782D02*
D03*
X390173D02*
D03*
X180827Y390064D02*
D03*
X184173D02*
D03*
X171327Y375823D02*
D03*
X174673D02*
D03*
X171327Y369918D02*
D03*
X174673D02*
D03*
X185327Y384563D02*
D03*
X188673D02*
D03*
X174500Y399063D02*
D03*
X171153D02*
D03*
X174673Y364209D02*
D03*
X171327D02*
D03*
X174673Y358563D02*
D03*
X171327D02*
D03*
X192847Y390064D02*
D03*
X189500D02*
D03*
X213173Y385064D02*
D03*
X209827D02*
D03*
X209827Y364563D02*
D03*
X213173D02*
D03*
X239827Y390064D02*
D03*
X243173D02*
D03*
X230327Y375823D02*
D03*
X233673D02*
D03*
X230327Y369918D02*
D03*
X233673D02*
D03*
X244327Y384563D02*
D03*
X247673D02*
D03*
X233500Y399063D02*
D03*
X230153D02*
D03*
X233673Y364209D02*
D03*
X230327D02*
D03*
X233673Y358563D02*
D03*
X230327D02*
D03*
X251847Y390064D02*
D03*
X248500D02*
D03*
X272173Y385064D02*
D03*
X268827D02*
D03*
X268827Y364563D02*
D03*
X272173D02*
D03*
X298827Y390064D02*
D03*
X302173D02*
D03*
X289327Y375823D02*
D03*
X292673D02*
D03*
X289327Y369918D02*
D03*
X292673D02*
D03*
X303327Y384563D02*
D03*
X306673D02*
D03*
X292500Y399063D02*
D03*
X289154D02*
D03*
X292673Y364209D02*
D03*
X289327D02*
D03*
X292673Y358563D02*
D03*
X289327D02*
D03*
X310846Y390064D02*
D03*
X307500D02*
D03*
X331173Y385064D02*
D03*
X327827D02*
D03*
X327827Y364563D02*
D03*
X331173D02*
D03*
X357827Y390064D02*
D03*
X361173D02*
D03*
X348327Y375823D02*
D03*
X351673D02*
D03*
X348327Y369918D02*
D03*
X351673D02*
D03*
X362327Y384563D02*
D03*
X365673D02*
D03*
X351500Y399063D02*
D03*
X348153D02*
D03*
X351673Y364209D02*
D03*
X348327D02*
D03*
X351673Y358563D02*
D03*
X348327D02*
D03*
X369847Y390064D02*
D03*
X366500D02*
D03*
X390173Y385064D02*
D03*
X386827D02*
D03*
X386827Y364563D02*
D03*
X390173D02*
D03*
D16*
X186750Y204300D02*
D03*
X245750D02*
D03*
X304750D02*
D03*
X363750D02*
D03*
X186750Y288082D02*
D03*
X245750D02*
D03*
X304750D02*
D03*
X363750D02*
D03*
X186750Y371864D02*
D03*
X245750D02*
D03*
X304750D02*
D03*
X363750D02*
D03*
D17*
X179073Y200363D02*
D03*
Y202331D02*
D03*
Y204300D02*
D03*
Y206269D02*
D03*
Y208237D02*
D03*
X194427D02*
D03*
Y206269D02*
D03*
Y204300D02*
D03*
Y202331D02*
D03*
Y200363D02*
D03*
X238073D02*
D03*
Y202331D02*
D03*
Y204300D02*
D03*
Y206269D02*
D03*
Y208237D02*
D03*
X253427D02*
D03*
Y206269D02*
D03*
Y204300D02*
D03*
Y202331D02*
D03*
Y200363D02*
D03*
X297073D02*
D03*
Y202331D02*
D03*
Y204300D02*
D03*
Y206269D02*
D03*
Y208237D02*
D03*
X312427D02*
D03*
Y206269D02*
D03*
Y204300D02*
D03*
Y202331D02*
D03*
Y200363D02*
D03*
X356073D02*
D03*
Y202331D02*
D03*
Y204300D02*
D03*
Y206269D02*
D03*
Y208237D02*
D03*
X371427D02*
D03*
Y206269D02*
D03*
Y204300D02*
D03*
Y202331D02*
D03*
Y200363D02*
D03*
X179073Y284145D02*
D03*
Y286113D02*
D03*
Y288082D02*
D03*
Y290050D02*
D03*
Y292019D02*
D03*
X194427D02*
D03*
Y290050D02*
D03*
Y288082D02*
D03*
Y286113D02*
D03*
Y284145D02*
D03*
X238073D02*
D03*
Y286113D02*
D03*
Y288082D02*
D03*
Y290050D02*
D03*
Y292019D02*
D03*
X253427D02*
D03*
Y290050D02*
D03*
Y288082D02*
D03*
Y286113D02*
D03*
Y284145D02*
D03*
X297073D02*
D03*
Y286113D02*
D03*
Y288082D02*
D03*
Y290050D02*
D03*
Y292019D02*
D03*
X312427D02*
D03*
Y290050D02*
D03*
Y288082D02*
D03*
Y286113D02*
D03*
Y284145D02*
D03*
X356073D02*
D03*
Y286113D02*
D03*
Y288082D02*
D03*
Y290050D02*
D03*
Y292019D02*
D03*
X371427D02*
D03*
Y290050D02*
D03*
Y288082D02*
D03*
Y286113D02*
D03*
Y284145D02*
D03*
X179073Y367927D02*
D03*
Y369895D02*
D03*
Y371864D02*
D03*
Y373832D02*
D03*
Y375800D02*
D03*
X194427D02*
D03*
Y373832D02*
D03*
Y371864D02*
D03*
Y369895D02*
D03*
Y367927D02*
D03*
X238073D02*
D03*
Y369895D02*
D03*
Y371864D02*
D03*
Y373832D02*
D03*
Y375800D02*
D03*
X253427D02*
D03*
Y373832D02*
D03*
Y371864D02*
D03*
Y369895D02*
D03*
Y367927D02*
D03*
X297073D02*
D03*
Y369895D02*
D03*
Y371864D02*
D03*
Y373832D02*
D03*
Y375800D02*
D03*
X312427D02*
D03*
Y373832D02*
D03*
Y371864D02*
D03*
Y369895D02*
D03*
Y367927D02*
D03*
X356073D02*
D03*
Y369895D02*
D03*
Y371864D02*
D03*
Y373832D02*
D03*
Y375800D02*
D03*
X371427D02*
D03*
Y373832D02*
D03*
Y371864D02*
D03*
Y369895D02*
D03*
Y367927D02*
D03*
D18*
X182813Y211977D02*
D03*
X184782D02*
D03*
X186750D02*
D03*
X188718D02*
D03*
X190687D02*
D03*
Y196623D02*
D03*
X188718D02*
D03*
X186750D02*
D03*
X184782D02*
D03*
X182813D02*
D03*
X241813Y211977D02*
D03*
X243781D02*
D03*
X245750D02*
D03*
X247719D02*
D03*
X249687D02*
D03*
Y196623D02*
D03*
X247719D02*
D03*
X245750D02*
D03*
X243781D02*
D03*
X241813D02*
D03*
X300813Y211977D02*
D03*
X302782D02*
D03*
X304750D02*
D03*
X306718D02*
D03*
X308687D02*
D03*
Y196623D02*
D03*
X306718D02*
D03*
X304750D02*
D03*
X302782D02*
D03*
X300813D02*
D03*
X359813Y211977D02*
D03*
X361782D02*
D03*
X363750D02*
D03*
X365719D02*
D03*
X367687D02*
D03*
Y196623D02*
D03*
X365719D02*
D03*
X363750D02*
D03*
X361782D02*
D03*
X359813D02*
D03*
X182813Y295759D02*
D03*
X184782D02*
D03*
X186750D02*
D03*
X188718D02*
D03*
X190687D02*
D03*
Y280405D02*
D03*
X188718D02*
D03*
X186750D02*
D03*
X184782D02*
D03*
X182813D02*
D03*
X241813Y295759D02*
D03*
X243781D02*
D03*
X245750D02*
D03*
X247719D02*
D03*
X249687D02*
D03*
Y280405D02*
D03*
X247719D02*
D03*
X245750D02*
D03*
X243781D02*
D03*
X241813D02*
D03*
X300813Y295759D02*
D03*
X302782D02*
D03*
X304750D02*
D03*
X306718D02*
D03*
X308687D02*
D03*
Y280405D02*
D03*
X306718D02*
D03*
X304750D02*
D03*
X302782D02*
D03*
X300813D02*
D03*
X359813Y295759D02*
D03*
X361782D02*
D03*
X363750D02*
D03*
X365719D02*
D03*
X367687D02*
D03*
Y280405D02*
D03*
X365719D02*
D03*
X363750D02*
D03*
X361782D02*
D03*
X359813D02*
D03*
X182813Y379541D02*
D03*
X184782D02*
D03*
X186750D02*
D03*
X188718D02*
D03*
X190687D02*
D03*
Y364186D02*
D03*
X188718D02*
D03*
X186750D02*
D03*
X184782D02*
D03*
X182813D02*
D03*
X241813Y379541D02*
D03*
X243781D02*
D03*
X245750D02*
D03*
X247719D02*
D03*
X249687D02*
D03*
Y364186D02*
D03*
X247719D02*
D03*
X245750D02*
D03*
X243781D02*
D03*
X241813D02*
D03*
X300813Y379541D02*
D03*
X302782D02*
D03*
X304750D02*
D03*
X306718D02*
D03*
X308687D02*
D03*
Y364186D02*
D03*
X306718D02*
D03*
X304750D02*
D03*
X302782D02*
D03*
X300813D02*
D03*
X359813Y379541D02*
D03*
X361782D02*
D03*
X363750D02*
D03*
X365719D02*
D03*
X367687D02*
D03*
Y364186D02*
D03*
X365719D02*
D03*
X363750D02*
D03*
X361782D02*
D03*
X359813D02*
D03*
D19*
X180250Y231500D02*
D03*
Y228153D02*
D03*
X200000Y209173D02*
D03*
Y205827D02*
D03*
X186219Y228327D02*
D03*
Y231673D02*
D03*
X192000Y228327D02*
D03*
Y231673D02*
D03*
X239250Y231500D02*
D03*
Y228153D02*
D03*
X259000Y209173D02*
D03*
Y205827D02*
D03*
X245218Y228327D02*
D03*
Y231673D02*
D03*
X251000Y228327D02*
D03*
Y231673D02*
D03*
X298250Y231500D02*
D03*
Y228153D02*
D03*
X318000Y209173D02*
D03*
Y205827D02*
D03*
X304219Y228327D02*
D03*
Y231673D02*
D03*
X310000Y228327D02*
D03*
Y231673D02*
D03*
X357250Y231500D02*
D03*
Y228153D02*
D03*
X377000Y209173D02*
D03*
Y205827D02*
D03*
X363218Y228327D02*
D03*
Y231673D02*
D03*
X369000Y228327D02*
D03*
Y231673D02*
D03*
X180250Y315282D02*
D03*
Y311935D02*
D03*
X200000Y292955D02*
D03*
Y289609D02*
D03*
X186219Y312108D02*
D03*
Y315455D02*
D03*
X192000Y312108D02*
D03*
Y315455D02*
D03*
X239250Y315282D02*
D03*
Y311935D02*
D03*
X259000Y292955D02*
D03*
Y289609D02*
D03*
X245218Y312108D02*
D03*
Y315455D02*
D03*
X251000Y312108D02*
D03*
Y315455D02*
D03*
X298250Y315282D02*
D03*
Y311935D02*
D03*
X318000Y292955D02*
D03*
Y289609D02*
D03*
X304219Y312108D02*
D03*
Y315455D02*
D03*
X310000Y312108D02*
D03*
Y315455D02*
D03*
X357250Y315282D02*
D03*
Y311935D02*
D03*
X377000Y292955D02*
D03*
Y289609D02*
D03*
X363218Y312108D02*
D03*
Y315455D02*
D03*
X369000Y312108D02*
D03*
Y315455D02*
D03*
X180250Y399063D02*
D03*
Y395717D02*
D03*
X200000Y376737D02*
D03*
Y373390D02*
D03*
X186219Y395890D02*
D03*
Y399237D02*
D03*
X192000Y395890D02*
D03*
Y399237D02*
D03*
X239250Y399063D02*
D03*
Y395717D02*
D03*
X259000Y376737D02*
D03*
Y373390D02*
D03*
X245218Y395890D02*
D03*
Y399237D02*
D03*
X251000Y395890D02*
D03*
Y399237D02*
D03*
X298250Y399063D02*
D03*
Y395717D02*
D03*
X318000Y376737D02*
D03*
Y373390D02*
D03*
X304219Y395890D02*
D03*
Y399237D02*
D03*
X310000Y395890D02*
D03*
Y399237D02*
D03*
X357250Y399063D02*
D03*
Y395717D02*
D03*
X377000Y376737D02*
D03*
Y373390D02*
D03*
X363218Y395890D02*
D03*
Y399237D02*
D03*
X369000Y395890D02*
D03*
Y399237D02*
D03*
D20*
X215988Y204201D02*
D03*
X207327Y210500D02*
D03*
Y204201D02*
D03*
X215988Y210500D02*
D03*
X274988Y204201D02*
D03*
X266327Y210500D02*
D03*
Y204201D02*
D03*
X274988Y210500D02*
D03*
X333988Y204201D02*
D03*
X325327Y210500D02*
D03*
Y204201D02*
D03*
X333988Y210500D02*
D03*
X392988Y204201D02*
D03*
X384327Y210500D02*
D03*
Y204201D02*
D03*
X392988Y210500D02*
D03*
X215988Y287983D02*
D03*
X207327Y294282D02*
D03*
Y287983D02*
D03*
X215988Y294282D02*
D03*
X274988Y287983D02*
D03*
X266327Y294282D02*
D03*
Y287983D02*
D03*
X274988Y294282D02*
D03*
X333988Y287983D02*
D03*
X325327Y294282D02*
D03*
Y287983D02*
D03*
X333988Y294282D02*
D03*
X392988Y287983D02*
D03*
X384327Y294282D02*
D03*
Y287983D02*
D03*
X392988Y294282D02*
D03*
X215988Y371764D02*
D03*
X207327Y378064D02*
D03*
Y371764D02*
D03*
X215988Y378064D02*
D03*
X274988Y371764D02*
D03*
X266327Y378064D02*
D03*
Y371764D02*
D03*
X274988Y378064D02*
D03*
X333988Y371764D02*
D03*
X325327Y378064D02*
D03*
Y371764D02*
D03*
X333988Y378064D02*
D03*
X392988Y371764D02*
D03*
X384327Y378064D02*
D03*
Y371764D02*
D03*
X392988Y378064D02*
D03*
D34*
X182150Y178300D02*
D03*
Y188300D02*
D03*
X192150Y178300D02*
D03*
Y188300D02*
D03*
X202150Y178300D02*
D03*
Y188300D02*
D03*
X212150Y178300D02*
D03*
X241150D02*
D03*
Y188300D02*
D03*
X251150Y178300D02*
D03*
Y188300D02*
D03*
X261150Y178300D02*
D03*
Y188300D02*
D03*
X271150Y178300D02*
D03*
X300150D02*
D03*
Y188300D02*
D03*
X310150Y178300D02*
D03*
Y188300D02*
D03*
X320150Y178300D02*
D03*
Y188300D02*
D03*
X330150Y178300D02*
D03*
X359150D02*
D03*
Y188300D02*
D03*
X369150Y178300D02*
D03*
Y188300D02*
D03*
X379150Y178300D02*
D03*
Y188300D02*
D03*
X389150Y178300D02*
D03*
X182150Y262082D02*
D03*
Y272082D02*
D03*
X192150Y262082D02*
D03*
Y272082D02*
D03*
X202150Y262082D02*
D03*
Y272082D02*
D03*
X212150Y262082D02*
D03*
X241150D02*
D03*
Y272082D02*
D03*
X251150Y262082D02*
D03*
Y272082D02*
D03*
X261150Y262082D02*
D03*
Y272082D02*
D03*
X271150Y262082D02*
D03*
X300150D02*
D03*
Y272082D02*
D03*
X310150Y262082D02*
D03*
Y272082D02*
D03*
X320150Y262082D02*
D03*
Y272082D02*
D03*
X330150Y262082D02*
D03*
X359150D02*
D03*
Y272082D02*
D03*
X369150Y262082D02*
D03*
Y272082D02*
D03*
X379150Y262082D02*
D03*
Y272082D02*
D03*
X389150Y262082D02*
D03*
X182150Y345864D02*
D03*
Y355863D02*
D03*
X192150Y345864D02*
D03*
Y355863D02*
D03*
X202150Y345864D02*
D03*
Y355863D02*
D03*
X212150Y345864D02*
D03*
X241150D02*
D03*
Y355863D02*
D03*
X251150Y345864D02*
D03*
Y355863D02*
D03*
X261150Y345864D02*
D03*
Y355863D02*
D03*
X271150Y345864D02*
D03*
X300150D02*
D03*
Y355863D02*
D03*
X310150Y345864D02*
D03*
Y355863D02*
D03*
X320150Y345864D02*
D03*
Y355863D02*
D03*
X330150Y345864D02*
D03*
X359150D02*
D03*
Y355863D02*
D03*
X369150Y345864D02*
D03*
Y355863D02*
D03*
X379150Y345864D02*
D03*
Y355863D02*
D03*
X389150Y345864D02*
D03*
D35*
X212150Y188300D02*
D03*
X271150D02*
D03*
X330150D02*
D03*
X389150D02*
D03*
X212150Y272082D02*
D03*
X271150D02*
D03*
X330150D02*
D03*
X389150D02*
D03*
X212150Y355863D02*
D03*
X271150D02*
D03*
X330150D02*
D03*
X389150D02*
D03*
M02*
